<svg width="410" height="589" viewBox="0 0 410 589" fill="none" xmlns="http://www.w3.org/2000/svg">
<g filter="url(#filter0_b_11922_31917)">
<path d="M32.83 200.317C31.3927 200.317 30.2307 199.845 29.344 198.903C28.448 197.96 28 196.695 28 195.109C28 193.513 28.4433 192.243 29.33 191.301C30.2073 190.367 31.374 189.901 32.83 189.901C33.9967 189.901 34.9907 190.213 35.812 190.839C36.6333 191.464 37.1467 192.369 37.352 193.555H35.434C35.266 192.901 34.9533 192.407 34.496 192.071C34.048 191.725 33.4927 191.553 32.83 191.553C31.9433 191.553 31.2433 191.87 30.73 192.505C30.226 193.13 29.974 193.998 29.974 195.109C29.974 196.229 30.226 197.101 30.73 197.727C31.234 198.352 31.934 198.665 32.83 198.665C33.5207 198.665 34.1133 198.459 34.608 198.049C35.1027 197.638 35.4013 197.069 35.504 196.341H37.394C37.2727 197.61 36.778 198.59 35.91 199.281C35.0513 199.971 34.0247 200.317 32.83 200.317Z" fill="#F6F6F6"/>
<path d="M44.9625 200.093H43.1985C43.1145 199.943 43.0492 199.649 43.0025 199.211C42.5172 199.911 41.7425 200.261 40.6785 200.261C39.8852 200.261 39.2505 200.069 38.7745 199.687C38.3079 199.304 38.0745 198.772 38.0745 198.091C38.0745 196.775 38.9985 196.023 40.8465 195.837L41.9385 195.739C42.3025 195.692 42.5639 195.608 42.7225 195.487C42.8812 195.356 42.9605 195.165 42.9605 194.913C42.9605 194.605 42.8579 194.381 42.6525 194.241C42.4565 194.091 42.1205 194.017 41.6445 194.017C41.1312 194.017 40.7625 194.105 40.5385 194.283C40.3145 194.451 40.1839 194.745 40.1465 195.165H38.4105C38.5132 193.522 39.5959 192.701 41.6585 192.701C43.6652 192.701 44.6685 193.424 44.6685 194.871V198.721C44.6685 199.355 44.7665 199.813 44.9625 200.093ZM41.0985 199.001C41.6492 199.001 42.0972 198.851 42.4425 198.553C42.7879 198.245 42.9605 197.806 42.9605 197.237V196.579C42.7925 196.728 42.5172 196.826 42.1345 196.873L41.1825 196.985C40.7159 197.041 40.3799 197.153 40.1745 197.321C39.9785 197.479 39.8805 197.713 39.8805 198.021C39.8805 198.329 39.9832 198.571 40.1885 198.749C40.4032 198.917 40.7065 199.001 41.0985 199.001Z" fill="#F6F6F6"/>
<path d="M49.8774 192.757C50.0361 192.757 50.1807 192.766 50.3114 192.785V194.409H49.8634C49.1914 194.409 48.6734 194.581 48.3094 194.927C47.9547 195.263 47.7774 195.762 47.7774 196.425V200.093H46.0134V192.869H47.7214V194.157C48.1227 193.223 48.8414 192.757 49.8774 192.757Z" fill="#F6F6F6"/>
<path d="M55.2674 192.701C56.2567 192.701 57.0454 193.041 57.6334 193.723C58.2121 194.413 58.5014 195.333 58.5014 196.481C58.5014 197.619 58.2121 198.534 57.6334 199.225C57.0454 199.915 56.2567 200.261 55.2674 200.261C54.2501 200.261 53.4801 199.859 52.9574 199.057V200.093H51.2634V190.125H53.0274V193.807C53.5407 193.069 54.2874 192.701 55.2674 192.701ZM53.4894 198.203C53.8067 198.604 54.2594 198.805 54.8474 198.805C55.4261 198.805 55.8834 198.595 56.2194 198.175C56.5461 197.764 56.7094 197.181 56.7094 196.425C56.7094 195.687 56.5461 195.127 56.2194 194.745C55.9021 194.353 55.4447 194.157 54.8474 194.157C54.2594 194.157 53.8021 194.357 53.4754 194.759C53.1487 195.16 52.9854 195.734 52.9854 196.481C52.9854 197.237 53.1534 197.811 53.4894 198.203Z" fill="#F6F6F6"/>
<path d="M66.6313 196.481C66.6313 197.619 66.2952 198.534 65.6232 199.225C64.9512 199.915 64.0646 200.261 62.9632 200.261C61.8619 200.261 60.9752 199.915 60.3032 199.225C59.6219 198.543 59.2812 197.629 59.2812 196.481C59.2812 195.333 59.6219 194.418 60.3032 193.737C60.9752 193.046 61.8619 192.701 62.9632 192.701C64.0646 192.701 64.9512 193.041 65.6232 193.723C66.2952 194.404 66.6313 195.323 66.6313 196.481ZM61.5773 198.203C61.9133 198.604 62.3752 198.805 62.9632 198.805C63.5512 198.805 64.0086 198.604 64.3353 198.203C64.6713 197.792 64.8392 197.218 64.8392 196.481C64.8392 195.743 64.6713 195.174 64.3353 194.773C64.0086 194.362 63.5512 194.157 62.9632 194.157C62.3752 194.157 61.9133 194.357 61.5773 194.759C61.2506 195.16 61.0872 195.734 61.0872 196.481C61.0872 197.227 61.2506 197.801 61.5773 198.203Z" fill="#F6F6F6"/>
<path d="M71.7 192.701C72.484 192.701 73.1 192.929 73.548 193.387C74.0053 193.835 74.234 194.474 74.234 195.305V200.093H72.47V195.599C72.47 194.684 72.0173 194.227 71.112 194.227C70.664 194.227 70.2813 194.39 69.964 194.717C69.656 195.034 69.502 195.477 69.502 196.047V200.093H67.738V190.125H69.502V193.835C70.0527 193.079 70.7853 192.701 71.7 192.701Z" fill="#F6F6F6"/>
<path d="M79.4422 194.689L80.0302 192.869H81.8782L79.0922 200.681C78.7936 201.502 78.4202 202.067 77.9722 202.375C77.5149 202.692 76.8522 202.851 75.9842 202.851C75.6949 202.851 75.4382 202.837 75.2142 202.809V201.423H75.8862C76.2689 201.423 76.5629 201.315 76.7682 201.101C76.9736 200.886 77.0762 200.606 77.0762 200.261C77.0762 199.915 76.9642 199.43 76.7402 198.805L74.6402 192.869H76.5442L77.1322 194.675C77.5429 195.963 77.9256 197.307 78.2802 198.707C78.5602 197.652 78.9476 196.313 79.4422 194.689Z" fill="#F6F6F6"/>
<path d="M87.4095 193.807V190.125H89.1735V200.093H87.4655V199.085C86.9335 199.869 86.1729 200.261 85.1835 200.261C84.1849 200.261 83.3962 199.915 82.8175 199.225C82.2295 198.534 81.9355 197.619 81.9355 196.481C81.9355 195.323 82.2295 194.404 82.8175 193.723C83.3869 193.041 84.1755 192.701 85.1835 192.701C86.1542 192.701 86.8962 193.069 87.4095 193.807ZM83.7415 196.537C83.7415 197.283 83.9049 197.848 84.2315 198.231C84.5582 198.613 85.0109 198.805 85.5895 198.805C86.1682 198.805 86.6255 198.604 86.9615 198.203C87.2882 197.801 87.4515 197.227 87.4515 196.481C87.4515 195.734 87.2882 195.16 86.9615 194.759C86.6349 194.357 86.1775 194.157 85.5895 194.157C85.0202 194.157 84.5675 194.367 84.2315 194.787C83.9049 195.207 83.7415 195.79 83.7415 196.537Z" fill="#F6F6F6"/>
<path d="M94.4614 192.757C94.6201 192.757 94.7647 192.766 94.8954 192.785V194.409H94.4474C93.7754 194.409 93.2574 194.581 92.8934 194.927C92.5387 195.263 92.3614 195.762 92.3614 196.425V200.093H90.5974V192.869H92.3054V194.157C92.7067 193.223 93.4254 192.757 94.4614 192.757Z" fill="#F6F6F6"/>
<path d="M101.92 200.093H100.156C100.072 199.943 100.006 199.649 99.9596 199.211C99.4742 199.911 98.6996 200.261 97.6356 200.261C96.8422 200.261 96.2076 200.069 95.7316 199.687C95.2649 199.304 95.0316 198.772 95.0316 198.091C95.0316 196.775 95.9556 196.023 97.8036 195.837L98.8956 195.739C99.2596 195.692 99.5209 195.608 99.6796 195.487C99.8382 195.356 99.9176 195.165 99.9176 194.913C99.9176 194.605 99.8149 194.381 99.6096 194.241C99.4136 194.091 99.0776 194.017 98.6016 194.017C98.0882 194.017 97.7196 194.105 97.4956 194.283C97.2716 194.451 97.1409 194.745 97.1036 195.165H95.3676C95.4702 193.522 96.5529 192.701 98.6156 192.701C100.622 192.701 101.626 193.424 101.626 194.871V198.721C101.626 199.355 101.724 199.813 101.92 200.093ZM98.0556 199.001C98.6062 199.001 99.0542 198.851 99.3996 198.553C99.7449 198.245 99.9176 197.806 99.9176 197.237V196.579C99.7496 196.728 99.4742 196.826 99.0916 196.873L98.1396 196.985C97.6729 197.041 97.3369 197.153 97.1316 197.321C96.9356 197.479 96.8376 197.713 96.8376 198.021C96.8376 198.329 96.9402 198.571 97.1456 198.749C97.3602 198.917 97.6636 199.001 98.0556 199.001Z" fill="#F6F6F6"/>
<path d="M106.518 192.869V194.213H105.09V198.119C105.09 198.352 105.15 198.515 105.272 198.609C105.402 198.702 105.617 198.749 105.916 198.749H106.518V200.093C106.135 200.13 105.827 200.149 105.594 200.149C104.81 200.149 104.236 200.004 103.872 199.715C103.517 199.416 103.34 198.945 103.34 198.301V194.213H102.22V192.869H103.34V190.769H105.09V192.869H106.518Z" fill="#F6F6F6"/>
<path d="M114.232 196.607V197.027H108.828C108.893 197.643 109.084 198.109 109.402 198.427C109.728 198.735 110.162 198.889 110.704 198.889C111.506 198.889 112.057 198.543 112.356 197.853H114.05C113.863 198.59 113.471 199.178 112.874 199.617C112.276 200.046 111.548 200.261 110.69 200.261C109.616 200.261 108.748 199.915 108.086 199.225C107.423 198.534 107.092 197.619 107.092 196.481C107.092 195.342 107.418 194.427 108.072 193.737C108.734 193.046 109.598 192.701 110.662 192.701C111.754 192.701 112.622 193.06 113.266 193.779C113.91 194.497 114.232 195.44 114.232 196.607ZM110.648 194.073C109.612 194.073 109.01 194.647 108.842 195.795H112.468C112.393 195.263 112.197 194.843 111.88 194.535C111.562 194.227 111.152 194.073 110.648 194.073Z" fill="#F6F6F6"/>
<path d="M120.38 200.093H118.49V190.125H120.38V200.093Z" fill="#F6F6F6"/>
<path d="M125.882 192.701C126.666 192.701 127.282 192.929 127.73 193.387C128.187 193.835 128.416 194.474 128.416 195.305V200.093H126.652V195.599C126.652 194.684 126.199 194.227 125.294 194.227C124.846 194.227 124.463 194.39 124.146 194.717C123.838 195.034 123.684 195.477 123.684 196.047V200.093H121.92V192.869H123.628V193.905C124.178 193.102 124.93 192.701 125.882 192.701Z" fill="#F6F6F6"/>
<path d="M133.369 192.869V194.213H131.941V198.119C131.941 198.352 132.002 198.515 132.123 198.609C132.254 198.702 132.469 198.749 132.767 198.749H133.369V200.093C132.987 200.13 132.679 200.149 132.445 200.149C131.661 200.149 131.087 200.004 130.723 199.715C130.369 199.416 130.191 198.945 130.191 198.301V194.213H129.071V192.869H130.191V190.769H131.941V192.869H133.369Z" fill="#F6F6F6"/>
<path d="M140.857 200.093H139.093C139.009 199.943 138.944 199.649 138.897 199.211C138.412 199.911 137.637 200.261 136.573 200.261C135.78 200.261 135.145 200.069 134.669 199.687C134.202 199.304 133.969 198.772 133.969 198.091C133.969 196.775 134.893 196.023 136.741 195.837L137.833 195.739C138.197 195.692 138.458 195.608 138.617 195.487C138.776 195.356 138.855 195.165 138.855 194.913C138.855 194.605 138.752 194.381 138.547 194.241C138.351 194.091 138.015 194.017 137.539 194.017C137.026 194.017 136.657 194.105 136.433 194.283C136.209 194.451 136.078 194.745 136.041 195.165H134.305C134.408 193.522 135.49 192.701 137.553 192.701C139.56 192.701 140.563 193.424 140.563 194.871V198.721C140.563 199.355 140.661 199.813 140.857 200.093ZM136.993 199.001C137.544 199.001 137.992 198.851 138.337 198.553C138.682 198.245 138.855 197.806 138.855 197.237V196.579C138.687 196.728 138.412 196.826 138.029 196.873L137.077 196.985C136.61 197.041 136.274 197.153 136.069 197.321C135.873 197.479 135.775 197.713 135.775 198.021C135.775 198.329 135.878 198.571 136.083 198.749C136.298 198.917 136.601 199.001 136.993 199.001Z" fill="#F6F6F6"/>
<path d="M148.811 200.093H146.795L144.695 196.733L143.603 197.825V200.093H141.867V190.125H143.603V195.865L146.543 192.869H148.643L145.913 195.599L148.811 200.093Z" fill="#F6F6F6"/>
<path d="M155.835 196.607V197.027H150.431C150.497 197.643 150.688 198.109 151.005 198.427C151.332 198.735 151.766 198.889 152.307 198.889C153.11 198.889 153.661 198.543 153.959 197.853H155.653C155.467 198.59 155.075 199.178 154.477 199.617C153.88 200.046 153.152 200.261 152.293 200.261C151.22 200.261 150.352 199.915 149.689 199.225C149.027 198.534 148.695 197.619 148.695 196.481C148.695 195.342 149.022 194.427 149.675 193.737C150.338 193.046 151.201 192.701 152.265 192.701C153.357 192.701 154.225 193.06 154.869 193.779C155.513 194.497 155.835 195.44 155.835 196.607ZM152.251 194.073C151.215 194.073 150.613 194.647 150.445 195.795H154.071C153.997 195.263 153.801 194.843 153.483 194.535C153.166 194.227 152.755 194.073 152.251 194.073Z" fill="#F6F6F6"/>
<rect x="167.836" y="191.34" width="10" height="10" rx="5" fill="#F6F6F6"/>
<path d="M181.012 191.272V200.176H186.024V201.24H179.836V191.272H181.012Z" fill="#F6F6F6"/>
<path d="M192.395 200.372C191.732 201.063 190.892 201.408 189.875 201.408C188.858 201.408 188.018 201.063 187.355 200.372C186.702 199.691 186.375 198.776 186.375 197.628C186.375 196.48 186.702 195.566 187.355 194.884C188.018 194.194 188.858 193.848 189.875 193.848C190.892 193.848 191.732 194.194 192.395 194.884C193.048 195.566 193.375 196.48 193.375 197.628C193.375 198.776 193.048 199.691 192.395 200.372ZM188.181 199.658C188.601 200.153 189.166 200.4 189.875 200.4C190.584 200.4 191.149 200.153 191.569 199.658C191.989 199.173 192.199 198.496 192.199 197.628C192.199 196.751 191.989 196.07 191.569 195.584C191.149 195.099 190.584 194.856 189.875 194.856C189.166 194.856 188.601 195.099 188.181 195.584C187.761 196.07 187.551 196.751 187.551 197.628C187.551 198.496 187.761 199.173 188.181 199.658Z" fill="#F6F6F6"/>
<path d="M202.041 197.278L203.063 194.016H204.267L201.859 201.24H200.683L199.619 197.894C199.255 196.709 199.013 195.892 198.891 195.444C198.677 196.21 198.429 197.026 198.149 197.894L197.099 201.24H195.923L193.515 194.016H194.719L195.741 197.278C195.993 198.072 196.255 198.949 196.525 199.91C196.824 198.846 197.081 197.969 197.295 197.278L198.303 194.016H199.479L200.487 197.278C201.001 198.986 201.262 199.854 201.271 199.882C201.346 199.593 201.603 198.725 202.041 197.278Z" fill="#F6F6F6"/>
<rect x="210.268" y="191.34" width="10" height="10" rx="5" fill="#B185FF"/>
<path d="M228.428 196.774L230.654 191.272H232.194V201.24H231.046V198.048C231.046 195.948 231.06 194.254 231.088 192.966C230.864 193.582 230.57 194.338 230.206 195.234L227.742 201.24H226.734L224.256 195.234C223.892 194.338 223.598 193.582 223.374 192.966C223.402 194.254 223.416 195.948 223.416 198.048V201.24H222.268V191.272H223.808L226.118 196.942C226.463 197.792 226.841 198.748 227.252 199.812C227.821 198.3 228.213 197.288 228.428 196.774Z" fill="#F6F6F6"/>
<path d="M240.242 197.628V198.02H234.754C234.81 198.804 235.029 199.397 235.412 199.798C235.794 200.19 236.317 200.386 236.98 200.386C237.978 200.386 238.618 199.938 238.898 199.042H240.06C239.864 199.77 239.5 200.349 238.968 200.778C238.436 201.198 237.764 201.408 236.952 201.408C235.953 201.408 235.146 201.068 234.53 200.386C233.904 199.705 233.592 198.786 233.592 197.628C233.592 196.49 233.9 195.575 234.516 194.884C235.122 194.194 235.925 193.848 236.924 193.848C237.96 193.848 238.772 194.208 239.36 194.926C239.948 195.645 240.242 196.546 240.242 197.628ZM236.924 194.87C236.336 194.87 235.855 195.057 235.482 195.43C235.108 195.794 234.875 196.322 234.782 197.012H239.038C238.982 196.378 238.767 195.864 238.394 195.472C238.02 195.071 237.53 194.87 236.924 194.87Z" fill="#F6F6F6"/>
<path d="M247.003 195.052V191.272H248.123V201.24H247.059V200.12C246.48 200.979 245.654 201.408 244.581 201.408C243.563 201.408 242.751 201.063 242.145 200.372C241.529 199.682 241.221 198.767 241.221 197.628C241.221 196.471 241.529 195.552 242.145 194.87C242.742 194.189 243.554 193.848 244.581 193.848C245.617 193.848 246.424 194.25 247.003 195.052ZM242.397 197.684C242.397 198.543 242.607 199.21 243.027 199.686C243.447 200.162 244.011 200.4 244.721 200.4C245.43 200.4 245.995 200.153 246.415 199.658C246.835 199.173 247.045 198.496 247.045 197.628C247.045 196.77 246.835 196.093 246.415 195.598C245.995 195.104 245.43 194.856 244.721 194.856C244.021 194.856 243.456 195.113 243.027 195.626C242.607 196.13 242.397 196.816 242.397 197.684Z" fill="#F6F6F6"/>
<rect x="254.123" y="191.34" width="10" height="10" rx="5" fill="#CCFD56"/>
<path d="M272.857 194.185V189.901H274.033V199.869H272.857V195.277H267.299V199.869H266.123V189.901H267.299V194.185H272.857Z" fill="#F6F6F6"/>
<path d="M276.867 191.553H275.677V190.181H276.867V191.553ZM276.839 199.869H275.719V192.645H276.839V199.869Z" fill="#F6F6F6"/>
<path d="M284.01 193.695V192.645H285.074V199.589C285.074 200.578 284.784 201.357 284.206 201.927C283.627 202.496 282.796 202.781 281.714 202.781C280.818 202.781 280.099 202.575 279.558 202.165C279.016 201.754 278.708 201.185 278.634 200.457H279.754C279.894 201.371 280.547 201.829 281.714 201.829C283.207 201.829 283.954 201.082 283.954 199.589V198.889C283.384 199.654 282.577 200.037 281.532 200.037C280.514 200.037 279.702 199.691 279.096 199.001C278.48 198.31 278.172 197.395 278.172 196.257C278.172 195.099 278.48 194.18 279.096 193.499C279.693 192.817 280.505 192.477 281.532 192.477C282.605 192.477 283.431 192.883 284.01 193.695ZM281.672 199.029C282.381 199.029 282.946 198.781 283.366 198.287C283.786 197.792 283.996 197.115 283.996 196.257C283.996 195.398 283.786 194.721 283.366 194.227C282.946 193.732 282.381 193.485 281.672 193.485C280.972 193.485 280.407 193.737 279.978 194.241C279.558 194.745 279.348 195.417 279.348 196.257C279.348 197.097 279.558 197.769 279.978 198.273C280.407 198.777 280.972 199.029 281.672 199.029Z" fill="#F6F6F6"/>
<path d="M290.084 192.477C290.887 192.477 291.512 192.696 291.96 193.135C292.408 193.573 292.632 194.189 292.632 194.983V199.869H291.512V195.095C291.512 194.021 290.962 193.485 289.86 193.485C289.338 193.485 288.876 193.681 288.474 194.073C288.073 194.465 287.872 195.034 287.872 195.781V199.869H286.752V189.901H287.872V193.639C288.423 192.864 289.16 192.477 290.084 192.477Z" fill="#F6F6F6"/>
<path d="M45.0587 254.814C46.1134 254.814 46.9441 255.131 47.5507 255.766C48.1481 256.401 48.4467 257.189 48.4467 258.132C48.4467 259.177 48.1061 260.013 47.4247 260.638C46.7341 261.273 45.8427 261.59 44.7507 261.59C43.8174 261.59 43.0287 261.352 42.3847 260.876C41.3301 260.073 40.8027 258.622 40.8027 256.522C40.8027 254.805 41.1434 253.484 41.8247 252.56C42.5061 251.636 43.4907 251.174 44.7787 251.174C45.7401 251.174 46.5334 251.421 47.1587 251.916C47.7841 252.401 48.1667 253.078 48.3067 253.946H46.5287C46.3514 253.069 45.7727 252.63 44.7927 252.63C44.0647 252.63 43.5187 252.905 43.1547 253.456C42.8001 254.007 42.6041 254.875 42.5667 256.06C43.1267 255.229 43.9574 254.814 45.0587 254.814ZM42.8607 258.16C42.8607 258.72 43.0381 259.177 43.3927 259.532C43.7474 259.887 44.2001 260.064 44.7507 260.064C45.3014 260.064 45.7541 259.887 46.1087 259.532C46.4447 259.187 46.6127 258.729 46.6127 258.16C46.6127 257.6 46.4401 257.143 46.0947 256.788C45.7494 256.433 45.3014 256.256 44.7507 256.256C44.1907 256.256 43.7334 256.433 43.3787 256.788C43.0334 257.143 42.8607 257.6 42.8607 258.16Z" fill="#F6F6F6"/>
<path d="M47.5367 320.33H48.8667V321.926H47.5367V324.222H45.6467V321.926H40.8027V320.134L45.4647 314.254H47.5367V320.33ZM45.6887 320.33V316.284L42.4827 320.33H45.6887Z" fill="#F6F6F6"/>
<path d="M42.9167 385.481H48.0547V387.077H40.8027L40.8447 386.335C40.8821 385.57 41.0407 384.884 41.3207 384.277C41.6661 383.521 42.3801 382.896 43.4627 382.401L44.4427 381.897C45.0214 381.617 45.4321 381.333 45.6747 381.043C45.9174 380.754 46.0387 380.395 46.0387 379.965C46.0387 379.508 45.8941 379.149 45.6047 378.887C45.3154 378.617 44.9141 378.481 44.4007 378.481C43.2527 378.481 42.6787 379.088 42.6787 380.301H40.8587C40.8494 379.228 41.1527 378.393 41.7687 377.795C42.3941 377.189 43.2901 376.885 44.4567 376.885C45.5301 376.885 46.3794 377.156 47.0047 377.697C47.6301 378.239 47.9427 378.948 47.9427 379.825C47.9427 380.581 47.7327 381.225 47.3127 381.757C46.8927 382.28 46.2254 382.77 45.3107 383.227L44.3867 383.717C43.8641 383.997 43.4954 384.263 43.2807 384.515C43.0754 384.758 42.9541 385.08 42.9167 385.481Z" fill="#F6F6F6"/>
<path d="M47.7747 448.813C47.0934 449.709 46.0994 450.157 44.7927 450.157C43.4861 450.157 42.4921 449.709 41.8107 448.813C41.1387 447.917 40.8027 446.629 40.8027 444.949C40.8027 443.269 41.1387 441.981 41.8107 441.085C42.4921 440.189 43.4861 439.741 44.7927 439.741C46.0994 439.741 47.0934 440.189 47.7747 441.085C48.4561 441.981 48.7967 443.269 48.7967 444.949C48.7967 446.629 48.4561 447.917 47.7747 448.813ZM44.7927 448.561C46.1461 448.561 46.8227 447.357 46.8227 444.949C46.8227 442.541 46.1461 441.337 44.7927 441.337C43.4487 441.337 42.7767 442.541 42.7767 444.949C42.7767 447.357 43.4487 448.561 44.7927 448.561Z" fill="#F6F6F6"/>
<path d="M137.861 238.651C137.861 236.345 139.73 234.476 142.036 234.476V234.476C144.341 234.476 146.21 236.345 146.21 238.651L146.21 445.982C146.21 448.288 144.341 450.157 142.036 450.157V450.157C139.73 450.157 137.861 448.288 137.861 445.982L137.861 238.651Z" fill="#CCFD56"/>
<path d="M122.555 308.225C122.555 305.92 124.424 304.051 126.729 304.051V304.051C129.035 304.051 130.904 305.92 130.904 308.225L130.904 445.982C130.904 448.288 129.035 450.157 126.729 450.157V450.157C124.424 450.157 122.555 448.288 122.555 445.982L122.555 308.225Z" fill="#B185FF"/>
<path d="M107.25 366.668C107.25 364.362 109.119 362.493 111.424 362.493V362.493C113.73 362.493 115.599 364.362 115.599 366.668L115.599 445.983C115.599 448.288 113.73 450.157 111.424 450.157V450.157C109.119 450.157 107.25 448.288 107.25 445.983L107.25 366.668Z" fill="#F6F6F6"/>
<path d="M109.54 468.076V464.072H111.43V474.04H109.54V469.784H104.906V474.04H103.016V464.072H104.906V468.076H109.54Z" fill="#F6F6F6"/>
<path d="M119.743 470.554V470.974H114.339C114.405 471.59 114.596 472.056 114.913 472.374C115.24 472.682 115.674 472.836 116.215 472.836C117.018 472.836 117.569 472.49 117.867 471.8H119.561C119.375 472.537 118.983 473.125 118.385 473.564C117.788 473.993 117.06 474.208 116.201 474.208C115.128 474.208 114.26 473.862 113.597 473.172C112.935 472.481 112.603 471.566 112.603 470.428C112.603 469.289 112.93 468.374 113.583 467.684C114.246 466.993 115.109 466.648 116.173 466.648C117.265 466.648 118.133 467.007 118.777 467.726C119.421 468.444 119.743 469.387 119.743 470.554ZM116.159 468.02C115.123 468.02 114.521 468.594 114.353 469.742H117.979C117.905 469.21 117.709 468.79 117.391 468.482C117.074 468.174 116.663 468.02 116.159 468.02Z" fill="#F6F6F6"/>
<path d="M127.31 474.04H125.546C125.462 473.89 125.397 473.596 125.35 473.158C124.865 473.858 124.09 474.208 123.026 474.208C122.233 474.208 121.598 474.016 121.122 473.634C120.655 473.251 120.422 472.719 120.422 472.038C120.422 470.722 121.346 469.97 123.194 469.784L124.286 469.686C124.65 469.639 124.911 469.555 125.07 469.434C125.229 469.303 125.308 469.112 125.308 468.86C125.308 468.552 125.205 468.328 125 468.188C124.804 468.038 124.468 467.964 123.992 467.964C123.479 467.964 123.11 468.052 122.886 468.23C122.662 468.398 122.531 468.692 122.494 469.112H120.758C120.861 467.469 121.943 466.648 124.006 466.648C126.013 466.648 127.016 467.371 127.016 468.818V472.668C127.016 473.302 127.114 473.76 127.31 474.04ZM123.446 472.948C123.997 472.948 124.445 472.798 124.79 472.5C125.135 472.192 125.308 471.753 125.308 471.184V470.526C125.14 470.675 124.865 470.773 124.482 470.82L123.53 470.932C123.063 470.988 122.727 471.1 122.522 471.268C122.326 471.426 122.228 471.66 122.228 471.968C122.228 472.276 122.331 472.518 122.536 472.696C122.751 472.864 123.054 472.948 123.446 472.948Z" fill="#F6F6F6"/>
<path d="M130.084 474.04H128.32V464.072H130.084V474.04Z" fill="#F6F6F6"/>
<path d="M135.272 466.816V468.16H133.844V472.066C133.844 472.299 133.904 472.462 134.026 472.556C134.156 472.649 134.371 472.696 134.67 472.696H135.272V474.04C134.889 474.077 134.581 474.096 134.348 474.096C133.564 474.096 132.99 473.951 132.626 473.662C132.271 473.363 132.094 472.892 132.094 472.248V468.16H130.974V466.816H132.094V464.716H133.844V466.816H135.272Z" fill="#F6F6F6"/>
<path d="M140.266 466.648C141.05 466.648 141.666 466.876 142.114 467.334C142.572 467.782 142.8 468.421 142.8 469.252V474.04H141.036V469.546C141.036 468.631 140.584 468.174 139.678 468.174C139.23 468.174 138.848 468.337 138.53 468.664C138.222 468.981 138.068 469.424 138.068 469.994V474.04H136.304V464.072H138.068V467.782C138.619 467.026 139.352 466.648 140.266 466.648Z" fill="#F6F6F6"/>
<path d="M148.009 468.636L148.597 466.816H150.445L147.659 474.628C147.36 475.449 146.987 476.014 146.539 476.322C146.081 476.639 145.419 476.798 144.551 476.798C144.261 476.798 144.005 476.784 143.781 476.756V475.37H144.453C144.835 475.37 145.129 475.262 145.335 475.048C145.54 474.833 145.643 474.553 145.643 474.208C145.643 473.862 145.531 473.377 145.307 472.752L143.207 466.816H145.111L145.699 468.622C146.109 469.91 146.492 471.254 146.847 472.654C147.127 471.599 147.514 470.26 148.009 468.636Z" fill="#F6F6F6"/>
<path d="M239.285 285.802C239.285 283.496 241.154 281.627 243.46 281.627V281.627C245.765 281.627 247.634 283.496 247.634 285.802L247.634 447.215C247.634 449.52 245.765 451.389 243.46 451.389V451.389C241.154 451.389 239.285 449.52 239.285 447.215L239.285 285.802Z" fill="#CCFD56"/>
<path d="M223.979 313.632C223.979 311.326 225.847 309.457 228.153 309.457V309.457C230.458 309.457 232.327 311.326 232.327 313.632L232.327 447.215C232.327 449.52 230.458 451.389 228.153 451.389V451.389C225.847 451.389 223.979 449.52 223.979 447.215L223.979 313.632Z" fill="#B185FF"/>
<path d="M208.674 372.074C208.674 369.769 210.543 367.9 212.848 367.9V367.9C215.154 367.9 217.023 369.769 217.023 372.074L217.023 447.215C217.023 449.52 215.154 451.389 212.848 451.389V451.389C210.543 451.389 208.674 449.52 208.674 447.215L208.674 372.074Z" fill="#F6F6F6"/>
<path d="M199.905 474.292C198.99 475.244 197.786 475.72 196.293 475.72C194.799 475.72 193.595 475.244 192.681 474.292C191.766 473.331 191.309 472.071 191.309 470.512C191.309 468.953 191.766 467.693 192.681 466.732C193.595 465.78 194.799 465.304 196.293 465.304C197.786 465.304 198.99 465.78 199.905 466.732C200.81 467.675 201.263 468.935 201.263 470.512C201.263 472.089 200.81 473.349 199.905 474.292ZM193.283 470.512C193.283 471.604 193.558 472.467 194.109 473.102C194.659 473.737 195.387 474.054 196.293 474.054C197.207 474.054 197.94 473.737 198.491 473.102C199.032 472.477 199.303 471.613 199.303 470.512C199.303 469.411 199.032 468.547 198.491 467.922C197.94 467.287 197.207 466.97 196.293 466.97C195.387 466.97 194.659 467.287 194.109 467.922C193.558 468.557 193.283 469.42 193.283 470.512Z" fill="#F6F6F6"/>
<path d="M206.617 470.204L207.317 468.272H209.151L206.463 475.496H204.433L201.759 468.272H203.649L204.349 470.218C204.676 471.235 205.054 472.463 205.483 473.9C205.829 472.743 206.207 471.511 206.617 470.204Z" fill="#F6F6F6"/>
<path d="M216.359 472.01V472.43H210.955C211.02 473.046 211.211 473.513 211.529 473.83C211.855 474.138 212.289 474.292 212.831 474.292C213.633 474.292 214.184 473.947 214.483 473.256H216.177C215.99 473.993 215.598 474.581 215.001 475.02C214.403 475.449 213.675 475.664 212.817 475.664C211.743 475.664 210.875 475.319 210.213 474.628C209.55 473.937 209.219 473.023 209.219 471.884C209.219 470.745 209.545 469.831 210.199 469.14C210.861 468.449 211.725 468.104 212.789 468.104C213.881 468.104 214.749 468.463 215.393 469.182C216.037 469.901 216.359 470.843 216.359 472.01ZM212.775 469.476C211.739 469.476 211.137 470.05 210.969 471.198H214.595C214.52 470.666 214.324 470.246 214.007 469.938C213.689 469.63 213.279 469.476 212.775 469.476Z" fill="#F6F6F6"/>
<path d="M221.362 468.16C221.52 468.16 221.665 468.169 221.796 468.188V469.812H221.348C220.676 469.812 220.158 469.985 219.794 470.33C219.439 470.666 219.262 471.165 219.262 471.828V475.496H217.498V468.272H219.206V469.56C219.607 468.627 220.326 468.16 221.362 468.16Z" fill="#F6F6F6"/>
<path d="M230.977 470.974L231.789 468.272H233.679L231.299 475.496H229.451L228.541 472.528C228.195 471.315 227.99 470.596 227.925 470.372C227.897 470.475 227.696 471.193 227.323 472.528L226.427 475.496H224.579L222.199 468.272H224.089L224.901 470.974C225.106 471.618 225.344 472.453 225.615 473.48C225.876 472.444 226.105 471.604 226.301 470.96L227.099 468.272H228.779L229.577 470.96C229.773 471.604 230.001 472.444 230.263 473.48C230.505 472.556 230.743 471.721 230.977 470.974Z" fill="#F6F6F6"/>
<path d="M240.886 472.01V472.43H235.482C235.547 473.046 235.739 473.513 236.056 473.83C236.383 474.138 236.817 474.292 237.358 474.292C238.161 474.292 238.711 473.947 239.01 473.256H240.704C240.517 473.993 240.125 474.581 239.528 475.02C238.931 475.449 238.203 475.664 237.344 475.664C236.271 475.664 235.403 475.319 234.74 474.628C234.077 473.937 233.746 473.023 233.746 471.884C233.746 470.745 234.073 469.831 234.726 469.14C235.389 468.449 236.252 468.104 237.316 468.104C238.408 468.104 239.276 468.463 239.92 469.182C240.564 469.901 240.886 470.843 240.886 472.01ZM237.302 469.476C236.266 469.476 235.664 470.05 235.496 471.198H239.122C239.047 470.666 238.851 470.246 238.534 469.938C238.217 469.63 237.806 469.476 237.302 469.476Z" fill="#F6F6F6"/>
<path d="M243.775 467.334H242.039V465.682H243.775V467.334ZM243.789 475.496H242.025V468.272H243.789V475.496Z" fill="#F6F6F6"/>
<path d="M250.419 469.266V468.272H252.127V475.258C252.127 476.238 251.814 477.008 251.189 477.568C250.573 478.128 249.695 478.408 248.557 478.408C247.549 478.408 246.755 478.184 246.177 477.736C245.607 477.288 245.295 476.672 245.239 475.888H246.975C247.059 476.663 247.595 477.05 248.585 477.05C249.163 477.05 249.602 476.901 249.901 476.602C250.209 476.303 250.363 475.869 250.363 475.3V474.39C249.84 475.109 249.103 475.468 248.151 475.468C247.171 475.468 246.382 475.127 245.785 474.446C245.187 473.783 244.889 472.897 244.889 471.786C244.889 470.666 245.187 469.775 245.785 469.112C246.373 468.44 247.157 468.104 248.137 468.104C249.154 468.104 249.915 468.491 250.419 469.266ZM248.543 474.012C249.131 474.012 249.588 473.816 249.915 473.424C250.241 473.032 250.405 472.486 250.405 471.786C250.405 471.086 250.241 470.54 249.915 470.148C249.588 469.756 249.131 469.56 248.543 469.56C247.973 469.56 247.521 469.761 247.185 470.162C246.858 470.554 246.695 471.1 246.695 471.8C246.695 472.491 246.858 473.032 247.185 473.424C247.521 473.816 247.973 474.012 248.543 474.012Z" fill="#F6F6F6"/>
<path d="M257.513 468.104C258.297 468.104 258.913 468.333 259.361 468.79C259.818 469.238 260.047 469.877 260.047 470.708V475.496H258.283V471.002C258.283 470.087 257.83 469.63 256.925 469.63C256.477 469.63 256.094 469.793 255.777 470.12C255.469 470.437 255.315 470.881 255.315 471.45V475.496H253.551V465.528H255.315V469.238C255.865 468.482 256.598 468.104 257.513 468.104Z" fill="#F6F6F6"/>
<path d="M265 468.272V469.616H263.572V473.522C263.572 473.755 263.633 473.919 263.754 474.012C263.885 474.105 264.099 474.152 264.398 474.152H265V475.496C264.617 475.533 264.309 475.552 264.076 475.552C263.292 475.552 262.718 475.407 262.354 475.118C261.999 474.819 261.822 474.348 261.822 473.704V469.616H260.702V468.272H261.822V466.172H263.572V468.272H265Z" fill="#F6F6F6"/>
<path d="M345.553 252.566C345.553 250.26 347.422 248.391 349.727 248.391V248.391C352.033 248.391 353.902 250.26 353.902 252.566L353.902 445.983C353.902 448.288 352.033 450.157 349.727 450.157V450.157C347.422 450.157 345.553 448.288 345.553 445.983L345.553 252.566Z" fill="#CCFD56"/>
<path d="M330.246 361.102C330.246 358.796 332.115 356.927 334.421 356.927V356.927C336.726 356.927 338.595 358.796 338.595 361.102L338.595 445.983C338.595 448.288 336.726 450.157 334.421 450.157V450.157C332.115 450.157 330.246 448.288 330.246 445.983L330.246 361.102Z" fill="#B185FF"/>
<path d="M314.941 408.412C314.941 406.107 316.81 404.238 319.116 404.238V404.238C321.421 404.238 323.29 406.107 323.29 408.412L323.29 445.983C323.29 448.288 321.421 450.157 319.116 450.157V450.157C316.81 450.157 314.941 448.288 314.941 445.983L314.941 408.412Z" fill="#F6F6F6"/>
<path d="M322.44 473.06C321.525 474.012 320.321 474.488 318.828 474.488C317.334 474.488 316.13 474.012 315.216 473.06C314.301 472.099 313.844 470.839 313.844 469.28C313.844 467.721 314.301 466.461 315.216 465.5C316.13 464.548 317.334 464.072 318.828 464.072C320.321 464.072 321.525 464.548 322.44 465.5C323.345 466.443 323.798 467.703 323.798 469.28C323.798 470.857 323.345 472.117 322.44 473.06ZM315.818 469.28C315.818 470.372 316.093 471.235 316.644 471.87C317.194 472.505 317.922 472.822 318.828 472.822C319.742 472.822 320.475 472.505 321.026 471.87C321.567 471.245 321.838 470.381 321.838 469.28C321.838 468.179 321.567 467.315 321.026 466.69C320.475 466.055 319.742 465.738 318.828 465.738C317.922 465.738 317.194 466.055 316.644 466.69C316.093 467.325 315.818 468.188 315.818 469.28Z" fill="#F6F6F6"/>
<path d="M328.916 466.872C329.905 466.872 330.694 467.213 331.282 467.894C331.861 468.585 332.15 469.504 332.15 470.652C332.15 471.791 331.861 472.705 331.282 473.396C330.694 474.087 329.905 474.432 328.916 474.432C327.899 474.432 327.129 474.031 326.606 473.228V474.264H324.912V464.296H326.676V467.978C327.189 467.241 327.936 466.872 328.916 466.872ZM327.138 472.374C327.455 472.775 327.908 472.976 328.496 472.976C329.075 472.976 329.532 472.766 329.868 472.346C330.195 471.935 330.358 471.352 330.358 470.596C330.358 469.859 330.195 469.299 329.868 468.916C329.551 468.524 329.093 468.328 328.496 468.328C327.908 468.328 327.451 468.529 327.124 468.93C326.797 469.331 326.634 469.905 326.634 470.652C326.634 471.408 326.802 471.982 327.138 472.374Z" fill="#F6F6F6"/>
<path d="M340.07 470.778V471.198H334.666C334.731 471.814 334.922 472.281 335.24 472.598C335.566 472.906 336 473.06 336.542 473.06C337.344 473.06 337.895 472.715 338.194 472.024H339.888C339.701 472.761 339.309 473.349 338.712 473.788C338.114 474.217 337.386 474.432 336.528 474.432C335.454 474.432 334.586 474.087 333.924 473.396C333.261 472.705 332.93 471.791 332.93 470.652C332.93 469.513 333.256 468.599 333.91 467.908C334.572 467.217 335.436 466.872 336.5 466.872C337.592 466.872 338.46 467.231 339.104 467.95C339.748 468.669 340.07 469.611 340.07 470.778ZM336.486 468.244C335.45 468.244 334.848 468.818 334.68 469.966H338.306C338.231 469.434 338.035 469.014 337.718 468.706C337.4 468.398 336.99 468.244 336.486 468.244Z" fill="#F6F6F6"/>
<path d="M344.037 474.46C341.928 474.46 340.826 473.629 340.733 471.968H342.455C342.502 472.416 342.646 472.733 342.889 472.92C343.141 473.107 343.533 473.2 344.065 473.2C345.017 473.2 345.493 472.911 345.493 472.332C345.493 472.071 345.39 471.87 345.185 471.73C344.98 471.59 344.611 471.473 344.079 471.38L343.253 471.24C341.676 470.979 340.887 470.251 340.887 469.056C340.887 468.375 341.148 467.843 341.671 467.46C342.194 467.068 342.931 466.872 343.883 466.872C345.946 466.872 347.01 467.689 347.075 469.322H345.409C345.39 468.893 345.255 468.589 345.003 468.412C344.751 468.225 344.378 468.132 343.883 468.132C343.043 468.132 342.623 468.412 342.623 468.972C342.623 469.215 342.716 469.406 342.903 469.546C343.09 469.677 343.398 469.779 343.827 469.854L344.737 469.994C345.614 470.153 346.249 470.405 346.641 470.75C347.042 471.095 347.243 471.576 347.243 472.192C347.243 472.92 346.963 473.48 346.403 473.872C345.843 474.264 345.054 474.46 344.037 474.46Z" fill="#F6F6F6"/>
<path d="M354.999 470.778V471.198H349.595C349.661 471.814 349.852 472.281 350.169 472.598C350.496 472.906 350.93 473.06 351.471 473.06C352.274 473.06 352.825 472.715 353.123 472.024H354.817C354.631 472.761 354.239 473.349 353.641 473.788C353.044 474.217 352.316 474.432 351.457 474.432C350.384 474.432 349.516 474.087 348.853 473.396C348.191 472.705 347.859 471.791 347.859 470.652C347.859 469.513 348.186 468.599 348.839 467.908C349.502 467.217 350.365 466.872 351.429 466.872C352.521 466.872 353.389 467.231 354.033 467.95C354.677 468.669 354.999 469.611 354.999 470.778ZM351.415 468.244C350.379 468.244 349.777 468.818 349.609 469.966H353.235C353.161 469.434 352.965 469.014 352.647 468.706C352.33 468.398 351.919 468.244 351.415 468.244Z" fill="#F6F6F6"/>
<path d="M179.24 503.126C179.79 503.322 180.215 503.635 180.514 504.064C180.822 504.493 180.976 504.979 180.976 505.52C180.976 506.425 180.677 507.13 180.08 507.634C179.492 508.129 178.633 508.376 177.504 508.376H172.842V498.408H177.35C178.395 498.408 179.193 498.646 179.744 499.122C180.294 499.598 180.57 500.219 180.57 500.984C180.57 501.964 180.126 502.678 179.24 503.126ZM177.21 499.962H174.732V502.566H177.21C177.686 502.566 178.05 502.449 178.302 502.216C178.563 501.973 178.694 501.642 178.694 501.222C178.694 500.83 178.563 500.522 178.302 500.298C178.04 500.074 177.676 499.962 177.21 499.962ZM174.732 506.808H177.406C177.938 506.808 178.344 506.691 178.624 506.458C178.904 506.215 179.044 505.875 179.044 505.436C179.044 504.512 178.498 504.05 177.406 504.05H174.732V506.808Z" fill="#F6F6F6"/>
<path d="M188.272 503.154L189.938 498.408H192.682V508.376H190.876V505.338C190.876 503.471 190.895 501.824 190.932 500.396C190.727 501.096 190.475 501.861 190.176 502.692L188.16 508.376H186.606L184.576 502.692C184.222 501.656 183.974 500.9 183.834 500.424C183.872 501.843 183.89 503.481 183.89 505.338V508.376H182.07V498.408H184.814L186.536 503.252C186.648 503.579 186.933 504.479 187.39 505.954C187.689 504.918 187.983 503.985 188.272 503.154Z" fill="#F6F6F6"/>
<path d="M196.21 508.376H194.32V498.408H196.21V508.376Z" fill="#F6F6F6"/>
<path d="M205.979 502.146V501.152H207.687V508.138C207.687 509.118 207.374 509.888 206.749 510.448C206.133 511.008 205.256 511.288 204.117 511.288C203.109 511.288 202.316 511.064 201.737 510.616C201.168 510.168 200.855 509.552 200.799 508.768H202.535C202.619 509.543 203.156 509.93 204.145 509.93C204.724 509.93 205.162 509.781 205.461 509.482C205.769 509.183 205.923 508.749 205.923 508.18V507.27C205.4 507.989 204.663 508.348 203.711 508.348C202.731 508.348 201.942 508.007 201.345 507.326C200.748 506.663 200.449 505.777 200.449 504.666C200.449 503.546 200.748 502.655 201.345 501.992C201.933 501.32 202.717 500.984 203.697 500.984C204.714 500.984 205.475 501.371 205.979 502.146ZM204.103 506.892C204.691 506.892 205.148 506.696 205.475 506.304C205.802 505.912 205.965 505.366 205.965 504.666C205.965 503.966 205.802 503.42 205.475 503.028C205.148 502.636 204.691 502.44 204.103 502.44C203.534 502.44 203.081 502.641 202.745 503.042C202.418 503.434 202.255 503.98 202.255 504.68C202.255 505.371 202.418 505.912 202.745 506.304C203.081 506.696 203.534 506.892 204.103 506.892Z" fill="#F6F6F6"/>
<path d="M212.975 501.04C213.134 501.04 213.278 501.049 213.409 501.068V502.692H212.961C212.289 502.692 211.771 502.865 211.407 503.21C211.052 503.546 210.875 504.045 210.875 504.708V508.376H209.111V501.152H210.819V502.44C211.22 501.507 211.939 501.04 212.975 501.04Z" fill="#F6F6F6"/>
<path d="M221.061 504.764C221.061 505.903 220.725 506.817 220.053 507.508C219.381 508.199 218.494 508.544 217.393 508.544C216.292 508.544 215.405 508.199 214.733 507.508C214.052 506.827 213.711 505.912 213.711 504.764C213.711 503.616 214.052 502.701 214.733 502.02C215.405 501.329 216.292 500.984 217.393 500.984C218.494 500.984 219.381 501.325 220.053 502.006C220.725 502.687 221.061 503.607 221.061 504.764ZM216.007 506.486C216.343 506.887 216.805 507.088 217.393 507.088C217.981 507.088 218.438 506.887 218.765 506.486C219.101 506.075 219.269 505.501 219.269 504.764C219.269 504.027 219.101 503.457 218.765 503.056C218.438 502.645 217.981 502.44 217.393 502.44C216.805 502.44 216.343 502.641 216.007 503.042C215.68 503.443 215.517 504.017 215.517 504.764C215.517 505.511 215.68 506.085 216.007 506.486Z" fill="#F6F6F6"/>
<path d="M226.722 505.198V501.152H228.486V508.376H226.778V507.326C226.227 508.138 225.471 508.544 224.51 508.544C223.735 508.544 223.119 508.32 222.662 507.872C222.214 507.415 221.99 506.771 221.99 505.94V501.152H223.754V505.646C223.754 506.561 224.207 507.018 225.112 507.018C225.56 507.018 225.938 506.859 226.246 506.542C226.563 506.215 226.722 505.767 226.722 505.198Z" fill="#F6F6F6"/>
<path d="M233.924 500.984C234.913 500.984 235.702 501.325 236.29 502.006C236.868 502.697 237.158 503.616 237.158 504.764C237.158 505.903 236.868 506.817 236.29 507.508C235.702 508.199 234.913 508.544 233.924 508.544C232.944 508.544 232.197 508.175 231.684 507.438V511.12H229.92V501.152H231.614V502.188C232.136 501.385 232.906 500.984 233.924 500.984ZM232.146 506.486C232.463 506.887 232.916 507.088 233.504 507.088C234.082 507.088 234.54 506.878 234.876 506.458C235.202 506.047 235.366 505.464 235.366 504.708C235.366 503.971 235.202 503.411 234.876 503.028C234.558 502.636 234.101 502.44 233.504 502.44C232.916 502.44 232.458 502.641 232.132 503.042C231.805 503.443 231.642 504.017 231.642 504.764C231.642 505.52 231.81 506.094 232.146 506.486Z" fill="#F6F6F6"/>
<path d="M28 532.288H35.994V533.352H32.606V542.256H31.388V533.352H28V532.288Z" fill="#F6F6F6"/>
<path d="M40.1772 534.864C40.9798 534.864 41.6052 535.083 42.0532 535.522C42.5012 535.961 42.7252 536.577 42.7252 537.37V542.256H41.6052V537.482C41.6052 536.409 41.0545 535.872 39.9532 535.872C39.4305 535.872 38.9685 536.068 38.5672 536.46C38.1658 536.852 37.9652 537.421 37.9652 538.168V542.256H36.8452V532.288H37.9652V536.026C38.5158 535.251 39.2532 534.864 40.1772 534.864Z" fill="#F6F6F6"/>
<path d="M50.7057 538.644V539.036H45.2177C45.2737 539.82 45.493 540.413 45.8757 540.814C46.2584 541.206 46.781 541.402 47.4437 541.402C48.4424 541.402 49.0817 540.954 49.3617 540.058H50.5237C50.3277 540.786 49.9637 541.365 49.4317 541.794C48.8997 542.214 48.2277 542.424 47.4157 542.424C46.417 542.424 45.6097 542.083 44.9937 541.402C44.3684 540.721 44.0557 539.801 44.0557 538.644C44.0557 537.505 44.3637 536.591 44.9797 535.9C45.5864 535.209 46.389 534.864 47.3877 534.864C48.4237 534.864 49.2357 535.223 49.8237 535.942C50.4117 536.661 50.7057 537.561 50.7057 538.644ZM47.3877 535.886C46.7997 535.886 46.319 536.073 45.9457 536.446C45.5724 536.81 45.339 537.337 45.2457 538.028H49.5017C49.4457 537.393 49.231 536.88 48.8577 536.488C48.4844 536.087 47.9944 535.886 47.3877 535.886Z" fill="#F6F6F6"/>
<path d="M60.6086 541.346H61.0146V542.256C60.828 542.284 60.6226 542.298 60.3986 542.298C59.6426 542.298 59.2366 541.953 59.1806 541.262C58.6766 542.037 57.8926 542.424 56.8286 542.424C56.0353 542.424 55.41 542.242 54.9526 541.878C54.5046 541.505 54.2806 540.982 54.2806 540.31C54.2806 539.003 55.172 538.257 56.9546 538.07L57.9906 537.958C58.7466 537.874 59.1246 537.543 59.1246 536.964C59.1246 536.563 58.9986 536.273 58.7466 536.096C58.504 535.919 58.0886 535.83 57.5006 535.83C56.8753 535.83 56.4226 535.937 56.1426 536.152C55.872 536.357 55.718 536.726 55.6806 537.258H54.5606C54.654 535.662 55.634 534.864 57.5006 534.864C59.3113 534.864 60.2166 535.564 60.2166 536.964V540.996C60.2166 541.229 60.3473 541.346 60.6086 541.346ZM56.8846 541.472C57.482 541.472 58.0046 541.29 58.4526 540.926C58.9006 540.571 59.1246 540.063 59.1246 539.4V538.546C58.9193 538.705 58.602 538.807 58.1726 538.854L57.1226 538.98C56.516 539.055 56.082 539.195 55.8206 539.4C55.5686 539.605 55.4426 539.899 55.4426 540.282C55.4426 540.655 55.564 540.949 55.8066 541.164C56.0493 541.369 56.4086 541.472 56.8846 541.472Z" fill="#F6F6F6"/>
<path d="M64.5494 542.424C62.6174 542.424 61.5954 541.603 61.4834 539.96H62.6174C62.6827 540.501 62.8601 540.889 63.1494 541.122C63.4481 541.346 63.9147 541.458 64.5494 541.458C65.7067 541.458 66.2854 541.085 66.2854 540.338C66.2854 540.011 66.1641 539.764 65.9214 539.596C65.6881 539.428 65.2587 539.283 64.6334 539.162L63.9614 539.036C62.4587 538.756 61.7074 538.047 61.7074 536.908C61.7074 536.283 61.9407 535.788 62.4074 535.424C62.8834 535.051 63.5274 534.864 64.3394 534.864C66.2527 534.864 67.2327 535.662 67.2794 537.258H66.1594C66.1314 536.735 65.9727 536.367 65.6834 536.152C65.3941 535.937 64.9461 535.83 64.3394 535.83C63.8541 535.83 63.4807 535.923 63.2194 536.11C62.9581 536.297 62.8274 536.558 62.8274 536.894C62.8274 537.211 62.9394 537.449 63.1634 537.608C63.3874 537.767 63.7607 537.902 64.2834 538.014L64.9274 538.14C65.8141 538.317 66.4487 538.569 66.8314 538.896C67.2234 539.223 67.4194 539.68 67.4194 540.268C67.4194 540.949 67.1627 541.481 66.6494 541.864C66.1454 542.237 65.4454 542.424 64.5494 542.424Z" fill="#F6F6F6"/>
<path d="M71.2213 542.424C69.2893 542.424 68.2673 541.603 68.1553 539.96H69.2893C69.3546 540.501 69.5319 540.889 69.8213 541.122C70.1199 541.346 70.5866 541.458 71.2213 541.458C72.3786 541.458 72.9573 541.085 72.9573 540.338C72.9573 540.011 72.8359 539.764 72.5933 539.596C72.3599 539.428 71.9306 539.283 71.3053 539.162L70.6333 539.036C69.1306 538.756 68.3793 538.047 68.3793 536.908C68.3793 536.283 68.6126 535.788 69.0793 535.424C69.5553 535.051 70.1993 534.864 71.0113 534.864C72.9246 534.864 73.9046 535.662 73.9513 537.258H72.8313C72.8033 536.735 72.6446 536.367 72.3553 536.152C72.0659 535.937 71.6179 535.83 71.0113 535.83C70.5259 535.83 70.1526 535.923 69.8913 536.11C69.6299 536.297 69.4993 536.558 69.4993 536.894C69.4993 537.211 69.6113 537.449 69.8353 537.608C70.0593 537.767 70.4326 537.902 70.9553 538.014L71.5993 538.14C72.4859 538.317 73.1206 538.569 73.5033 538.896C73.8953 539.223 74.0913 539.68 74.0913 540.268C74.0913 540.949 73.8346 541.481 73.3213 541.864C72.8173 542.237 72.1173 542.424 71.2213 542.424Z" fill="#F6F6F6"/>
<path d="M80.8784 541.388C80.2158 542.079 79.3758 542.424 78.3584 542.424C77.3411 542.424 76.5011 542.079 75.8384 541.388C75.1851 540.707 74.8584 539.792 74.8584 538.644C74.8584 537.496 75.1851 536.581 75.8384 535.9C76.5011 535.209 77.3411 534.864 78.3584 534.864C79.3758 534.864 80.2158 535.209 80.8784 535.9C81.5318 536.581 81.8584 537.496 81.8584 538.644C81.8584 539.792 81.5318 540.707 80.8784 541.388ZM76.6644 540.674C77.0844 541.169 77.6491 541.416 78.3584 541.416C79.0678 541.416 79.6324 541.169 80.0524 540.674C80.4724 540.189 80.6824 539.512 80.6824 538.644C80.6824 537.767 80.4724 537.085 80.0524 536.6C79.6324 536.115 79.0678 535.872 78.3584 535.872C77.6491 535.872 77.0844 536.115 76.6644 536.6C76.2444 537.085 76.0344 537.767 76.0344 538.644C76.0344 539.512 76.2444 540.189 76.6644 540.674Z" fill="#F6F6F6"/>
<path d="M86.1888 542.424C85.1901 542.424 84.3828 542.079 83.7668 541.388C83.1508 540.697 82.8428 539.783 82.8428 538.644C82.8428 537.487 83.1508 536.567 83.7668 535.886C84.3641 535.205 85.1715 534.864 86.1888 534.864C87.0475 534.864 87.7521 535.097 88.3028 535.564C88.8535 536.031 89.1848 536.67 89.2968 537.482H88.1348C88.0508 536.969 87.8268 536.572 87.4628 536.292C87.1081 536.012 86.6835 535.872 86.1888 535.872C85.5261 535.872 84.9988 536.115 84.6068 536.6C84.2148 537.076 84.0188 537.757 84.0188 538.644C84.0188 539.521 84.2148 540.203 84.6068 540.688C85.0081 541.173 85.5355 541.416 86.1888 541.416C86.6835 541.416 87.1128 541.271 87.4768 540.982C87.8408 540.693 88.0648 540.291 88.1488 539.778H89.2968C89.1755 540.59 88.8301 541.234 88.2608 541.71C87.7008 542.186 87.0101 542.424 86.1888 542.424Z" fill="#F6F6F6"/>
<path d="M91.6416 533.94H90.4516V532.568H91.6416V533.94ZM91.6136 542.256H90.4936V535.032H91.6136V542.256Z" fill="#F6F6F6"/>
<path d="M99.2043 541.346H99.6103V542.256C99.4237 542.284 99.2183 542.298 98.9943 542.298C98.2383 542.298 97.8323 541.953 97.7763 541.262C97.2723 542.037 96.4883 542.424 95.4243 542.424C94.631 542.424 94.0057 542.242 93.5483 541.878C93.1003 541.505 92.8763 540.982 92.8763 540.31C92.8763 539.003 93.7677 538.257 95.5503 538.07L96.5863 537.958C97.3423 537.874 97.7203 537.543 97.7203 536.964C97.7203 536.563 97.5943 536.273 97.3423 536.096C97.0997 535.919 96.6843 535.83 96.0963 535.83C95.471 535.83 95.0183 535.937 94.7383 536.152C94.4677 536.357 94.3137 536.726 94.2763 537.258H93.1563C93.2497 535.662 94.2297 534.864 96.0963 534.864C97.907 534.864 98.8123 535.564 98.8123 536.964V540.996C98.8123 541.229 98.943 541.346 99.2043 541.346ZM95.4803 541.472C96.0777 541.472 96.6003 541.29 97.0483 540.926C97.4963 540.571 97.7203 540.063 97.7203 539.4V538.546C97.515 538.705 97.1977 538.807 96.7683 538.854L95.7183 538.98C95.1117 539.055 94.6777 539.195 94.4163 539.4C94.1643 539.605 94.0383 539.899 94.0383 540.282C94.0383 540.655 94.1597 540.949 94.4023 541.164C94.645 541.369 95.0043 541.472 95.4803 541.472Z" fill="#F6F6F6"/>
<path d="M103.488 535.032V536.012H102.004V540.702C102.004 541.113 102.279 541.318 102.83 541.318H103.488V542.256C103.18 542.284 102.914 542.298 102.69 542.298C101.486 542.298 100.884 541.799 100.884 540.8V536.012H99.6937V535.032H100.884V532.988H102.004V535.032H103.488Z" fill="#F6F6F6"/>
<path d="M105.819 533.94H104.629V532.568H105.819V533.94ZM105.791 542.256H104.671V535.032H105.791V542.256Z" fill="#F6F6F6"/>
<path d="M113.144 541.388C112.481 542.079 111.641 542.424 110.624 542.424C109.607 542.424 108.767 542.079 108.104 541.388C107.451 540.707 107.124 539.792 107.124 538.644C107.124 537.496 107.451 536.581 108.104 535.9C108.767 535.209 109.607 534.864 110.624 534.864C111.641 534.864 112.481 535.209 113.144 535.9C113.797 536.581 114.124 537.496 114.124 538.644C114.124 539.792 113.797 540.707 113.144 541.388ZM108.93 540.674C109.35 541.169 109.915 541.416 110.624 541.416C111.333 541.416 111.898 541.169 112.318 540.674C112.738 540.189 112.948 539.512 112.948 538.644C112.948 537.767 112.738 537.085 112.318 536.6C111.898 536.115 111.333 535.872 110.624 535.872C109.915 535.872 109.35 536.115 108.93 536.6C108.51 537.085 108.3 537.767 108.3 538.644C108.3 539.512 108.51 540.189 108.93 540.674Z" fill="#F6F6F6"/>
<path d="M118.79 534.864C119.593 534.864 120.218 535.083 120.666 535.522C121.114 535.961 121.338 536.577 121.338 537.37V542.256H120.218V537.482C120.218 536.409 119.668 535.872 118.566 535.872C118.044 535.872 117.582 536.068 117.18 536.46C116.779 536.852 116.578 537.421 116.578 538.168V542.256H115.458V535.032H116.522V536.11C117.073 535.279 117.829 534.864 118.79 534.864Z" fill="#F6F6F6"/>
<path d="M129.227 534.864C130.244 534.864 131.061 535.205 131.677 535.886C132.284 536.577 132.587 537.496 132.587 538.644C132.587 539.783 132.284 540.697 131.677 541.388C131.061 542.079 130.244 542.424 129.227 542.424C128.154 542.424 127.328 541.995 126.749 541.136V542.256H125.685V532.288H126.805V536.068C127.384 535.265 128.191 534.864 129.227 534.864ZM129.087 541.416C129.787 541.416 130.347 541.164 130.767 540.66C131.196 540.147 131.411 539.456 131.411 538.588C131.411 537.739 131.201 537.076 130.781 536.6C130.37 536.115 129.806 535.872 129.087 535.872C128.378 535.872 127.813 536.115 127.393 536.6C126.973 537.085 126.763 537.767 126.763 538.644C126.763 539.512 126.973 540.189 127.393 540.674C127.813 541.169 128.378 541.416 129.087 541.416Z" fill="#F6F6F6"/>
<path d="M140.215 538.644V539.036H134.727C134.783 539.82 135.003 540.413 135.385 540.814C135.768 541.206 136.291 541.402 136.953 541.402C137.952 541.402 138.591 540.954 138.871 540.058H140.033C139.837 540.786 139.473 541.365 138.941 541.794C138.409 542.214 137.737 542.424 136.925 542.424C135.927 542.424 135.119 542.083 134.503 541.402C133.878 540.721 133.565 539.801 133.565 538.644C133.565 537.505 133.873 536.591 134.489 535.9C135.096 535.209 135.899 534.864 136.897 534.864C137.933 534.864 138.745 535.223 139.333 535.942C139.921 536.661 140.215 537.561 140.215 538.644ZM136.897 535.886C136.309 535.886 135.829 536.073 135.455 536.446C135.082 536.81 134.849 537.337 134.755 538.028H139.011C138.955 537.393 138.741 536.88 138.367 536.488C137.994 536.087 137.504 535.886 136.897 535.886Z" fill="#F6F6F6"/>
<path d="M144.285 535.032V536.012H142.801V540.702C142.801 541.113 143.076 541.318 143.627 541.318H144.285V542.256C143.977 542.284 143.711 542.298 143.487 542.298C142.283 542.298 141.681 541.799 141.681 540.8V536.012H140.491V535.032H141.681V532.988H142.801V535.032H144.285Z" fill="#F6F6F6"/>
<path d="M153.224 538.294L154.246 535.032H155.45L153.042 542.256H151.866L150.802 538.91C150.438 537.725 150.196 536.908 150.074 536.46C149.86 537.225 149.612 538.042 149.332 538.91L148.282 542.256H147.106L144.698 535.032H145.902L146.924 538.294C147.176 539.087 147.438 539.965 147.708 540.926C148.007 539.862 148.264 538.985 148.478 538.294L149.486 535.032H150.662L151.67 538.294C152.184 540.002 152.445 540.87 152.454 540.898C152.529 540.609 152.786 539.741 153.224 538.294Z" fill="#F6F6F6"/>
<path d="M162.241 538.644V539.036H156.753C156.809 539.82 157.028 540.413 157.411 540.814C157.794 541.206 158.316 541.402 158.979 541.402C159.978 541.402 160.617 540.954 160.897 540.058H162.059C161.863 540.786 161.499 541.365 160.967 541.794C160.435 542.214 159.763 542.424 158.951 542.424C157.952 542.424 157.145 542.083 156.529 541.402C155.904 540.721 155.591 539.801 155.591 538.644C155.591 537.505 155.899 536.591 156.515 535.9C157.122 535.209 157.924 534.864 158.923 534.864C159.959 534.864 160.771 535.223 161.359 535.942C161.947 536.661 162.241 537.561 162.241 538.644ZM158.923 535.886C158.335 535.886 157.854 536.073 157.481 536.446C157.108 536.81 156.874 537.337 156.781 538.028H161.037C160.981 537.393 160.766 536.88 160.393 536.488C160.02 536.087 159.53 535.886 158.923 535.886Z" fill="#F6F6F6"/>
<path d="M169.87 538.644V539.036H164.382C164.438 539.82 164.657 540.413 165.04 540.814C165.422 541.206 165.945 541.402 166.608 541.402C167.606 541.402 168.246 540.954 168.526 540.058H169.688C169.492 540.786 169.128 541.365 168.596 541.794C168.064 542.214 167.392 542.424 166.58 542.424C165.581 542.424 164.774 542.083 164.158 541.402C163.532 540.721 163.22 539.801 163.22 538.644C163.22 537.505 163.528 536.591 164.144 535.9C164.75 535.209 165.553 534.864 166.552 534.864C167.588 534.864 168.4 535.223 168.988 535.942C169.576 536.661 169.87 537.561 169.87 538.644ZM166.552 535.886C165.964 535.886 165.483 536.073 165.11 536.446C164.736 536.81 164.503 537.337 164.41 538.028H168.666C168.61 537.393 168.395 536.88 168.022 536.488C167.648 536.087 167.158 535.886 166.552 535.886Z" fill="#F6F6F6"/>
<path d="M174.531 534.864C175.333 534.864 175.959 535.083 176.407 535.522C176.855 535.961 177.079 536.577 177.079 537.37V542.256H175.959V537.482C175.959 536.409 175.408 535.872 174.307 535.872C173.784 535.872 173.322 536.068 172.921 536.46C172.519 536.852 172.319 537.421 172.319 538.168V542.256H171.199V535.032H172.263V536.11C172.813 535.279 173.569 534.864 174.531 534.864Z" fill="#F6F6F6"/>
<path d="M189.027 534.864C189.811 534.864 190.418 535.093 190.847 535.55C191.286 535.998 191.505 536.6 191.505 537.356V542.256H190.385V537.468C190.385 536.404 189.881 535.872 188.873 535.872C188.341 535.872 187.898 536.087 187.543 536.516C187.198 536.936 187.025 537.533 187.025 538.308V542.256H185.905V537.468C185.905 536.404 185.401 535.872 184.393 535.872C183.871 535.872 183.432 536.087 183.077 536.516C182.723 536.936 182.545 537.533 182.545 538.308V542.256H181.425V535.032H182.489V536.096C182.965 535.275 183.661 534.864 184.575 534.864C185.658 534.864 186.4 535.317 186.801 536.222C187.305 535.317 188.047 534.864 189.027 534.864Z" fill="#F6F6F6"/>
<path d="M199.091 541.346H199.497V542.256C199.31 542.284 199.105 542.298 198.881 542.298C198.125 542.298 197.719 541.953 197.663 541.262C197.159 542.037 196.375 542.424 195.311 542.424C194.518 542.424 193.892 542.242 193.435 541.878C192.987 541.505 192.763 540.982 192.763 540.31C192.763 539.003 193.654 538.257 195.437 538.07L196.473 537.958C197.229 537.874 197.607 537.543 197.607 536.964C197.607 536.563 197.481 536.273 197.229 536.096C196.986 535.919 196.571 535.83 195.983 535.83C195.358 535.83 194.905 535.937 194.625 536.152C194.354 536.357 194.2 536.726 194.163 537.258H193.043C193.136 535.662 194.116 534.864 195.983 534.864C197.794 534.864 198.699 535.564 198.699 536.964V540.996C198.699 541.229 198.83 541.346 199.091 541.346ZM195.367 541.472C195.964 541.472 196.487 541.29 196.935 540.926C197.383 540.571 197.607 540.063 197.607 539.4V538.546C197.402 538.705 197.084 538.807 196.655 538.854L195.605 538.98C194.998 539.055 194.564 539.195 194.303 539.4C194.051 539.605 193.925 539.899 193.925 540.282C193.925 540.655 194.046 540.949 194.289 541.164C194.532 541.369 194.891 541.472 195.367 541.472Z" fill="#F6F6F6"/>
<path d="M203.411 542.424C202.413 542.424 201.605 542.079 200.989 541.388C200.373 540.697 200.065 539.783 200.065 538.644C200.065 537.487 200.373 536.567 200.989 535.886C201.587 535.205 202.394 534.864 203.411 534.864C204.27 534.864 204.975 535.097 205.525 535.564C206.076 536.031 206.407 536.67 206.519 537.482H205.357C205.273 536.969 205.049 536.572 204.685 536.292C204.331 536.012 203.906 535.872 203.411 535.872C202.749 535.872 202.221 536.115 201.829 536.6C201.437 537.076 201.241 537.757 201.241 538.644C201.241 539.521 201.437 540.203 201.829 540.688C202.231 541.173 202.758 541.416 203.411 541.416C203.906 541.416 204.335 541.271 204.699 540.982C205.063 540.693 205.287 540.291 205.371 539.778H206.519C206.398 540.59 206.053 541.234 205.483 541.71C204.923 542.186 204.233 542.424 203.411 542.424Z" fill="#F6F6F6"/>
<path d="M211.104 534.92C211.291 534.92 211.417 534.925 211.482 534.934V536.012H211.202C210.456 536.012 209.872 536.199 209.452 536.572C209.042 536.936 208.836 537.459 208.836 538.14V542.256H207.716V535.032H208.78V536.306C209.266 535.382 210.04 534.92 211.104 534.92Z" fill="#F6F6F6"/>
<path d="M217.775 541.388C217.112 542.079 216.272 542.424 215.255 542.424C214.238 542.424 213.398 542.079 212.735 541.388C212.082 540.707 211.755 539.792 211.755 538.644C211.755 537.496 212.082 536.581 212.735 535.9C213.398 535.209 214.238 534.864 215.255 534.864C216.272 534.864 217.112 535.209 217.775 535.9C218.428 536.581 218.755 537.496 218.755 538.644C218.755 539.792 218.428 540.707 217.775 541.388ZM213.561 540.674C213.981 541.169 214.546 541.416 215.255 541.416C215.964 541.416 216.529 541.169 216.949 540.674C217.369 540.189 217.579 539.512 217.579 538.644C217.579 537.767 217.369 537.085 216.949 536.6C216.529 536.115 215.964 535.872 215.255 535.872C214.546 535.872 213.981 536.115 213.561 536.6C213.141 537.085 212.931 537.767 212.931 538.644C212.931 539.512 213.141 540.189 213.561 540.674Z" fill="#F6F6F6"/>
<path d="M223.421 534.864C224.224 534.864 224.849 535.083 225.297 535.522C225.745 535.961 225.969 536.577 225.969 537.37V542.256H224.849V537.482C224.849 536.409 224.299 535.872 223.197 535.872C222.675 535.872 222.213 536.068 221.811 536.46C221.41 536.852 221.209 537.421 221.209 538.168V542.256H220.089V535.032H221.153V536.11C221.704 535.279 222.46 534.864 223.421 534.864Z" fill="#F6F6F6"/>
<path d="M232.136 539.12V535.032H233.256V542.256H232.192V541.178C231.642 542.009 230.886 542.424 229.924 542.424C229.122 542.424 228.496 542.205 228.048 541.766C227.6 541.327 227.376 540.711 227.376 539.918V535.032H228.496V539.806C228.496 540.879 229.047 541.416 230.148 541.416C230.671 541.416 231.133 541.22 231.534 540.828C231.936 540.436 232.136 539.867 232.136 539.12Z" fill="#F6F6F6"/>
<path d="M238.101 535.032V536.012H236.617V540.702C236.617 541.113 236.892 541.318 237.443 541.318H238.101V542.256C237.793 542.284 237.527 542.298 237.303 542.298C236.099 542.298 235.497 541.799 235.497 540.8V536.012H234.307V535.032H235.497V532.988H236.617V535.032H238.101Z" fill="#F6F6F6"/>
<path d="M242.673 534.92C242.859 534.92 242.985 534.925 243.051 534.934V536.012H242.771C242.024 536.012 241.441 536.199 241.021 536.572C240.61 536.936 240.405 537.459 240.405 538.14V542.256H239.285V535.032H240.349V536.306C240.834 535.382 241.609 534.92 242.673 534.92Z" fill="#F6F6F6"/>
<path d="M245.245 533.94H244.055V532.568H245.245V533.94ZM245.217 542.256H244.097V535.032H245.217V542.256Z" fill="#F6F6F6"/>
<path d="M253.2 538.644V539.036H247.712C247.768 539.82 247.987 540.413 248.37 540.814C248.753 541.206 249.275 541.402 249.938 541.402C250.937 541.402 251.576 540.954 251.856 540.058H253.018C252.822 540.786 252.458 541.365 251.926 541.794C251.394 542.214 250.722 542.424 249.91 542.424C248.911 542.424 248.104 542.083 247.488 541.402C246.863 540.721 246.55 539.801 246.55 538.644C246.55 537.505 246.858 536.591 247.474 535.9C248.081 535.209 248.883 534.864 249.882 534.864C250.918 534.864 251.73 535.223 252.318 535.942C252.906 536.661 253.2 537.561 253.2 538.644ZM249.882 535.886C249.294 535.886 248.813 536.073 248.44 536.446C248.067 536.81 247.833 537.337 247.74 538.028H251.996C251.94 537.393 251.725 536.88 251.352 536.488C250.979 536.087 250.489 535.886 249.882 535.886Z" fill="#F6F6F6"/>
<path d="M257.861 534.864C258.663 534.864 259.289 535.083 259.737 535.522C260.185 535.961 260.409 536.577 260.409 537.37V542.256H259.289V537.482C259.289 536.409 258.738 535.872 257.637 535.872C257.114 535.872 256.652 536.068 256.251 536.46C255.849 536.852 255.649 537.421 255.649 538.168V542.256H254.529V535.032H255.593V536.11C256.143 535.279 256.899 534.864 257.861 534.864Z" fill="#F6F6F6"/>
<path d="M264.98 535.032V536.012H263.496V540.702C263.496 541.113 263.771 541.318 264.322 541.318H264.98V542.256C264.672 542.284 264.406 542.298 264.182 542.298C262.978 542.298 262.376 541.799 262.376 540.8V536.012H261.186V535.032H262.376V532.988H263.496V535.032H264.98Z" fill="#F6F6F6"/>
<path d="M271.826 542.424C270.827 542.424 270.02 542.079 269.404 541.388C268.788 540.697 268.48 539.783 268.48 538.644C268.48 537.487 268.788 536.567 269.404 535.886C270.001 535.205 270.808 534.864 271.826 534.864C272.684 534.864 273.389 535.097 273.94 535.564C274.49 536.031 274.822 536.67 274.934 537.482H273.772C273.688 536.969 273.464 536.572 273.1 536.292C272.745 536.012 272.32 535.872 271.826 535.872C271.163 535.872 270.636 536.115 270.244 536.6C269.852 537.076 269.656 537.757 269.656 538.644C269.656 539.521 269.852 540.203 270.244 540.688C270.645 541.173 271.172 541.416 271.826 541.416C272.32 541.416 272.75 541.271 273.114 540.982C273.478 540.693 273.702 540.291 273.786 539.778H274.934C274.812 540.59 274.467 541.234 273.898 541.71C273.338 542.186 272.647 542.424 271.826 542.424Z" fill="#F6F6F6"/>
<path d="M281.8 541.388C281.138 542.079 280.298 542.424 279.28 542.424C278.263 542.424 277.423 542.079 276.76 541.388C276.107 540.707 275.78 539.792 275.78 538.644C275.78 537.496 276.107 536.581 276.76 535.9C277.423 535.209 278.263 534.864 279.28 534.864C280.298 534.864 281.138 535.209 281.8 535.9C282.454 536.581 282.78 537.496 282.78 538.644C282.78 539.792 282.454 540.707 281.8 541.388ZM277.586 540.674C278.006 541.169 278.571 541.416 279.28 541.416C279.99 541.416 280.554 541.169 280.974 540.674C281.394 540.189 281.604 539.512 281.604 538.644C281.604 537.767 281.394 537.085 280.974 536.6C280.554 536.115 279.99 535.872 279.28 535.872C278.571 535.872 278.006 536.115 277.586 536.6C277.166 537.085 276.956 537.767 276.956 538.644C276.956 539.512 277.166 540.189 277.586 540.674Z" fill="#F6F6F6"/>
<path d="M287.447 534.864C288.249 534.864 288.875 535.083 289.323 535.522C289.771 535.961 289.995 536.577 289.995 537.37V542.256H288.875V537.482C288.875 536.409 288.324 535.872 287.223 535.872C286.7 535.872 286.238 536.068 285.837 536.46C285.435 536.852 285.235 537.421 285.235 538.168V542.256H284.115V535.032H285.179V536.11C285.729 535.279 286.485 534.864 287.447 534.864Z" fill="#F6F6F6"/>
<path d="M294.223 542.424C292.291 542.424 291.269 541.603 291.157 539.96H292.291C292.357 540.501 292.534 540.889 292.823 541.122C293.122 541.346 293.589 541.458 294.223 541.458C295.381 541.458 295.959 541.085 295.959 540.338C295.959 540.011 295.838 539.764 295.595 539.596C295.362 539.428 294.933 539.283 294.307 539.162L293.635 539.036C292.133 538.756 291.381 538.047 291.381 536.908C291.381 536.283 291.615 535.788 292.081 535.424C292.557 535.051 293.201 534.864 294.013 534.864C295.927 534.864 296.907 535.662 296.953 537.258H295.833C295.805 536.735 295.647 536.367 295.357 536.152C295.068 535.937 294.62 535.83 294.013 535.83C293.528 535.83 293.155 535.923 292.893 536.11C292.632 536.297 292.501 536.558 292.501 536.894C292.501 537.211 292.613 537.449 292.837 537.608C293.061 537.767 293.435 537.902 293.957 538.014L294.601 538.14C295.488 538.317 296.123 538.569 296.505 538.896C296.897 539.223 297.093 539.68 297.093 540.268C297.093 540.949 296.837 541.481 296.323 541.864C295.819 542.237 295.119 542.424 294.223 542.424Z" fill="#F6F6F6"/>
<path d="M302.97 539.12V535.032H304.09V542.256H303.026V541.178C302.476 542.009 301.72 542.424 300.758 542.424C299.956 542.424 299.33 542.205 298.882 541.766C298.434 541.327 298.21 540.711 298.21 539.918V535.032H299.33V539.806C299.33 540.879 299.881 541.416 300.982 541.416C301.505 541.416 301.967 541.22 302.368 540.828C302.77 540.436 302.97 539.867 302.97 539.12Z" fill="#F6F6F6"/>
<path d="M313.373 534.864C314.157 534.864 314.764 535.093 315.193 535.55C315.632 535.998 315.851 536.6 315.851 537.356V542.256H314.731V537.468C314.731 536.404 314.227 535.872 313.219 535.872C312.687 535.872 312.244 536.087 311.889 536.516C311.544 536.936 311.371 537.533 311.371 538.308V542.256H310.251V537.468C310.251 536.404 309.747 535.872 308.739 535.872C308.216 535.872 307.778 536.087 307.423 536.516C307.068 536.936 306.891 537.533 306.891 538.308V542.256H305.771V535.032H306.835V536.096C307.311 535.275 308.006 534.864 308.921 534.864C310.004 534.864 310.746 535.317 311.147 536.222C311.651 535.317 312.393 534.864 313.373 534.864Z" fill="#F6F6F6"/>
<path d="M321.071 534.864C322.088 534.864 322.905 535.205 323.521 535.886C324.127 536.577 324.431 537.496 324.431 538.644C324.431 539.783 324.127 540.697 323.521 541.388C322.905 542.079 322.088 542.424 321.071 542.424C320.035 542.424 319.227 542.023 318.649 541.22V545H317.529V535.032H318.593V536.152C319.171 535.293 319.997 534.864 321.071 534.864ZM320.931 541.416C321.631 541.416 322.191 541.164 322.611 540.66C323.04 540.147 323.255 539.456 323.255 538.588C323.255 537.739 323.045 537.076 322.625 536.6C322.214 536.115 321.649 535.872 320.931 535.872C320.221 535.872 319.657 536.115 319.237 536.6C318.817 537.085 318.607 537.767 318.607 538.644C318.607 539.512 318.817 540.189 319.237 540.674C319.657 541.169 320.221 541.416 320.931 541.416Z" fill="#F6F6F6"/>
<path d="M328.499 535.032V536.012H327.015V540.702C327.015 541.113 327.291 541.318 327.841 541.318H328.499V542.256C328.191 542.284 327.925 542.298 327.701 542.298C326.497 542.298 325.895 541.799 325.895 540.8V536.012H324.705V535.032H325.895V532.988H327.015V535.032H328.499Z" fill="#F6F6F6"/>
<path d="M330.831 533.94H329.641V532.568H330.831V533.94ZM330.803 542.256H329.683V535.032H330.803V542.256Z" fill="#F6F6F6"/>
<path d="M338.156 541.388C337.493 542.079 336.653 542.424 335.636 542.424C334.618 542.424 333.778 542.079 333.116 541.388C332.462 540.707 332.136 539.792 332.136 538.644C332.136 537.496 332.462 536.581 333.116 535.9C333.778 535.209 334.618 534.864 335.636 534.864C336.653 534.864 337.493 535.209 338.156 535.9C338.809 536.581 339.136 537.496 339.136 538.644C339.136 539.792 338.809 540.707 338.156 541.388ZM333.942 540.674C334.362 541.169 334.926 541.416 335.636 541.416C336.345 541.416 336.91 541.169 337.33 540.674C337.75 540.189 337.96 539.512 337.96 538.644C337.96 537.767 337.75 537.085 337.33 536.6C336.91 536.115 336.345 535.872 335.636 535.872C334.926 535.872 334.362 536.115 333.942 536.6C333.522 537.085 333.312 537.767 333.312 538.644C333.312 539.512 333.522 540.189 333.942 540.674Z" fill="#F6F6F6"/>
<path d="M343.802 534.864C344.605 534.864 345.23 535.083 345.678 535.522C346.126 535.961 346.35 536.577 346.35 537.37V542.256H345.23V537.482C345.23 536.409 344.679 535.872 343.578 535.872C343.055 535.872 342.594 536.068 342.192 536.46C341.791 536.852 341.59 537.421 341.59 538.168V542.256H340.47V535.032H341.534V536.11C342.085 535.279 342.841 534.864 343.802 534.864Z" fill="#F6F6F6"/>
<path d="M356.605 541.346H357.011V542.256C356.824 542.284 356.619 542.298 356.395 542.298C355.639 542.298 355.233 541.953 355.177 541.262C354.673 542.037 353.889 542.424 352.825 542.424C352.031 542.424 351.406 542.242 350.949 541.878C350.501 541.505 350.277 540.982 350.277 540.31C350.277 539.003 351.168 538.257 352.951 538.07L353.987 537.958C354.743 537.874 355.121 537.543 355.121 536.964C355.121 536.563 354.995 536.273 354.743 536.096C354.5 535.919 354.085 535.83 353.497 535.83C352.871 535.83 352.419 535.937 352.139 536.152C351.868 536.357 351.714 536.726 351.677 537.258H350.557C350.65 535.662 351.63 534.864 353.497 534.864C355.307 534.864 356.213 535.564 356.213 536.964V540.996C356.213 541.229 356.343 541.346 356.605 541.346ZM352.881 541.472C353.478 541.472 354.001 541.29 354.449 540.926C354.897 540.571 355.121 540.063 355.121 539.4V538.546C354.915 538.705 354.598 538.807 354.169 538.854L353.119 538.98C352.512 539.055 352.078 539.195 351.817 539.4C351.565 539.605 351.439 539.899 351.439 540.282C351.439 540.655 351.56 540.949 351.803 541.164C352.045 541.369 352.405 541.472 352.881 541.472Z" fill="#F6F6F6"/>
<path d="M361.329 534.864C362.132 534.864 362.758 535.083 363.206 535.522C363.654 535.961 363.878 536.577 363.878 537.37V542.256H362.758V537.482C362.758 536.409 362.207 535.872 361.105 535.872C360.583 535.872 360.121 536.068 359.72 536.46C359.318 536.852 359.117 537.421 359.117 538.168V542.256H357.997V535.032H359.061V536.11C359.612 535.279 360.368 534.864 361.329 534.864Z" fill="#F6F6F6"/>
<path d="M370.99 536.068V532.288H372.11V542.256H371.046V541.136C370.467 541.995 369.641 542.424 368.568 542.424C367.551 542.424 366.739 542.079 366.132 541.388C365.516 540.697 365.208 539.783 365.208 538.644C365.208 537.487 365.516 536.567 366.132 535.886C366.729 535.205 367.541 534.864 368.568 534.864C369.604 534.864 370.411 535.265 370.99 536.068ZM366.384 538.7C366.384 539.559 366.594 540.226 367.014 540.702C367.434 541.178 367.999 541.416 368.708 541.416C369.417 541.416 369.982 541.169 370.402 540.674C370.822 540.189 371.032 539.512 371.032 538.644C371.032 537.785 370.822 537.109 370.402 536.614C369.982 536.119 369.417 535.872 368.708 535.872C368.008 535.872 367.443 536.129 367.014 536.642C366.594 537.146 366.384 537.832 366.384 538.7Z" fill="#F6F6F6"/>
<path d="M34.496 557.076C35.644 557.515 36.218 558.308 36.218 559.456C36.218 560.324 35.9333 561.01 35.364 561.514C34.804 562.009 34.0107 562.256 32.984 562.256H28.63V552.288H32.774C33.7353 552.288 34.482 552.531 35.014 553.016C35.546 553.492 35.812 554.117 35.812 554.892C35.812 555.891 35.3733 556.619 34.496 557.076ZM32.69 553.352H29.806V556.642H32.69C33.334 556.642 33.824 556.493 34.16 556.194C34.496 555.895 34.664 555.475 34.664 554.934C34.664 554.439 34.4913 554.052 34.146 553.772C33.81 553.492 33.3247 553.352 32.69 553.352ZM29.806 561.192H32.928C33.6187 561.192 34.1413 561.043 34.496 560.744C34.86 560.445 35.042 560.016 35.042 559.456C35.042 558.28 34.3327 557.692 32.914 557.692H29.806V561.192Z" fill="#F6F6F6"/>
<path d="M43.6357 557.79L45.8617 552.288H47.4017V562.256H46.2537V559.064C46.2537 556.964 46.2677 555.27 46.2957 553.982C46.0717 554.598 45.7777 555.354 45.4137 556.25L42.9497 562.256H41.9417L39.4637 556.25C39.0997 555.354 38.8057 554.598 38.5817 553.982C38.6097 555.27 38.6237 556.964 38.6237 559.064V562.256H37.4757V552.288H39.0157L41.3257 557.958C41.671 558.807 42.049 559.764 42.4597 560.828C43.029 559.316 43.421 558.303 43.6357 557.79Z" fill="#F6F6F6"/>
<path d="M50.3958 562.256H49.2198V552.288H50.3958V562.256Z" fill="#F6F6F6"/>
<path d="M57.974 555.032V556.012H56.49V560.702C56.49 561.113 56.7653 561.318 57.316 561.318H57.974V562.256C57.666 562.284 57.4 562.298 57.176 562.298C55.972 562.298 55.37 561.799 55.37 560.8V556.012H54.18V555.032H55.37V552.988H56.49V555.032H57.974Z" fill="#F6F6F6"/>
<path d="M64.6909 561.388C64.0283 562.079 63.1883 562.424 62.1709 562.424C61.1536 562.424 60.3136 562.079 59.6509 561.388C58.9976 560.707 58.6709 559.792 58.6709 558.644C58.6709 557.496 58.9976 556.581 59.6509 555.9C60.3136 555.209 61.1536 554.864 62.1709 554.864C63.1883 554.864 64.0283 555.209 64.6909 555.9C65.3443 556.581 65.6709 557.496 65.6709 558.644C65.6709 559.792 65.3443 560.707 64.6909 561.388ZM60.4769 560.674C60.8969 561.169 61.4616 561.416 62.1709 561.416C62.8803 561.416 63.4449 561.169 63.8649 560.674C64.2849 560.189 64.4949 559.512 64.4949 558.644C64.4949 557.767 64.2849 557.085 63.8649 556.6C63.4449 556.115 62.8803 555.872 62.1709 555.872C61.4616 555.872 60.8969 556.115 60.4769 556.6C60.0569 557.085 59.8469 557.767 59.8469 558.644C59.8469 559.512 60.0569 560.189 60.4769 560.674Z" fill="#F6F6F6"/>
<path d="M75.9713 558.644V559.036H70.4833C70.5393 559.82 70.7587 560.413 71.1413 560.814C71.524 561.206 72.0467 561.402 72.7093 561.402C73.708 561.402 74.3473 560.954 74.6273 560.058H75.7893C75.5933 560.786 75.2293 561.365 74.6973 561.794C74.1653 562.214 73.4933 562.424 72.6813 562.424C71.6827 562.424 70.8753 562.083 70.2593 561.402C69.634 560.721 69.3213 559.801 69.3213 558.644C69.3213 557.505 69.6293 556.591 70.2453 555.9C70.852 555.209 71.6547 554.864 72.6533 554.864C73.6893 554.864 74.5013 555.223 75.0893 555.942C75.6773 556.661 75.9713 557.561 75.9713 558.644ZM72.6533 555.886C72.0653 555.886 71.5847 556.073 71.2113 556.446C70.838 556.81 70.6047 557.337 70.5113 558.028H74.7673C74.7113 557.393 74.4967 556.88 74.1233 556.488C73.75 556.087 73.26 555.886 72.6533 555.886Z" fill="#F6F6F6"/>
<path d="M82.6337 555.032L80.0157 558.56L82.7737 562.256H81.4577L81.0657 561.71C80.3844 560.739 79.8197 559.955 79.3717 559.358C78.6997 560.263 78.1257 561.052 77.6497 561.724L77.2717 562.256H75.9697L78.7277 558.56L76.1097 555.032H77.4257L77.9857 555.802C78.611 556.642 79.0777 557.295 79.3857 557.762C80.095 556.763 80.5617 556.11 80.7857 555.802L81.3317 555.032H82.6337Z" fill="#F6F6F6"/>
<path d="M86.8119 554.864C87.6146 554.864 88.2399 555.083 88.6879 555.522C89.1359 555.961 89.3599 556.577 89.3599 557.37V562.256H88.2399V557.482C88.2399 556.409 87.6893 555.872 86.5879 555.872C86.0653 555.872 85.6033 556.068 85.2019 556.46C84.8006 556.852 84.5999 557.421 84.5999 558.168V562.256H83.4799V552.288H84.5999V556.026C85.1506 555.251 85.8879 554.864 86.8119 554.864Z" fill="#F6F6F6"/>
<path d="M96.9485 561.346H97.3545V562.256C97.1678 562.284 96.9625 562.298 96.7385 562.298C95.9825 562.298 95.5765 561.953 95.5205 561.262C95.0165 562.037 94.2325 562.424 93.1685 562.424C92.3751 562.424 91.7498 562.242 91.2925 561.878C90.8445 561.505 90.6205 560.982 90.6205 560.31C90.6205 559.003 91.5118 558.257 93.2945 558.07L94.3305 557.958C95.0865 557.874 95.4645 557.543 95.4645 556.964C95.4645 556.563 95.3385 556.273 95.0865 556.096C94.8438 555.919 94.4285 555.83 93.8405 555.83C93.2151 555.83 92.7625 555.937 92.4825 556.152C92.2118 556.357 92.0578 556.726 92.0205 557.258H90.9005C90.9938 555.662 91.9738 554.864 93.8405 554.864C95.6511 554.864 96.5565 555.564 96.5565 556.964V560.996C96.5565 561.229 96.6871 561.346 96.9485 561.346ZM93.2245 561.472C93.8218 561.472 94.3445 561.29 94.7925 560.926C95.2405 560.571 95.4645 560.063 95.4645 559.4V558.546C95.2591 558.705 94.9418 558.807 94.5125 558.854L93.4625 558.98C92.8558 559.055 92.4218 559.195 92.1605 559.4C91.9085 559.605 91.7825 559.899 91.7825 560.282C91.7825 560.655 91.9038 560.949 92.1465 561.164C92.3891 561.369 92.7485 561.472 93.2245 561.472Z" fill="#F6F6F6"/>
<path d="M99.3929 562.256H98.2729V552.288H99.3929V562.256Z" fill="#F6F6F6"/>
<path d="M107.376 558.644V559.036H101.888C101.944 559.82 102.163 560.413 102.546 560.814C102.928 561.206 103.451 561.402 104.114 561.402C105.112 561.402 105.752 560.954 106.032 560.058H107.194C106.998 560.786 106.634 561.365 106.102 561.794C105.57 562.214 104.898 562.424 104.086 562.424C103.087 562.424 102.28 562.083 101.664 561.402C101.038 560.721 100.726 559.801 100.726 558.644C100.726 557.505 101.034 556.591 101.65 555.9C102.256 555.209 103.059 554.864 104.058 554.864C105.094 554.864 105.906 555.223 106.494 555.942C107.082 556.661 107.376 557.561 107.376 558.644ZM104.058 555.886C103.47 555.886 102.989 556.073 102.616 556.446C102.242 556.81 102.009 557.337 101.916 558.028H106.172C106.116 557.393 105.901 556.88 105.528 556.488C105.154 556.087 104.664 555.886 104.058 555.886Z" fill="#F6F6F6"/>
<path d="M114.137 556.068V552.288H115.257V562.256H114.193V561.136C113.614 561.995 112.788 562.424 111.715 562.424C110.697 562.424 109.885 562.079 109.279 561.388C108.663 560.697 108.355 559.783 108.355 558.644C108.355 557.487 108.663 556.567 109.279 555.886C109.876 555.205 110.688 554.864 111.715 554.864C112.751 554.864 113.558 555.265 114.137 556.068ZM109.531 558.7C109.531 559.559 109.741 560.226 110.161 560.702C110.581 561.178 111.145 561.416 111.855 561.416C112.564 561.416 113.129 561.169 113.549 560.674C113.969 560.189 114.179 559.512 114.179 558.644C114.179 557.785 113.969 557.109 113.549 556.614C113.129 556.119 112.564 555.872 111.855 555.872C111.155 555.872 110.59 556.129 110.161 556.642C109.741 557.146 109.531 557.832 109.531 558.7Z" fill="#F6F6F6"/>
<path d="M123.857 562.48C122.504 562.48 121.398 562.009 120.539 561.066C119.68 560.123 119.251 558.859 119.251 557.272C119.251 555.685 119.68 554.421 120.539 553.478C121.398 552.535 122.504 552.064 123.857 552.064C124.93 552.064 125.845 552.358 126.601 552.946C127.357 553.525 127.856 554.374 128.099 555.494H126.909C126.489 553.926 125.472 553.142 123.857 553.142C122.84 553.142 122.023 553.506 121.407 554.234C120.791 554.971 120.483 555.984 120.483 557.272C120.483 558.56 120.791 559.568 121.407 560.296C122.023 561.033 122.84 561.402 123.857 561.402C124.622 561.402 125.304 561.164 125.901 560.688C126.489 560.231 126.848 559.545 126.979 558.63H128.155C128.024 559.871 127.553 560.819 126.741 561.472C125.92 562.144 124.958 562.48 123.857 562.48Z" fill="#F6F6F6"/>
<path d="M137.313 561.038C136.436 561.999 135.279 562.48 133.841 562.48C132.404 562.48 131.251 561.999 130.383 561.038C129.506 560.095 129.067 558.84 129.067 557.272C129.067 555.713 129.506 554.453 130.383 553.492C131.251 552.54 132.404 552.064 133.841 552.064C135.279 552.064 136.436 552.54 137.313 553.492C138.181 554.463 138.615 555.723 138.615 557.272C138.615 558.831 138.181 560.086 137.313 561.038ZM131.265 560.282C131.909 561.029 132.768 561.402 133.841 561.402C134.915 561.402 135.773 561.029 136.417 560.282C137.061 559.545 137.383 558.541 137.383 557.272C137.383 556.003 137.061 554.999 136.417 554.262C135.773 553.515 134.915 553.142 133.841 553.142C132.768 553.142 131.909 553.515 131.265 554.262C130.621 554.999 130.299 556.003 130.299 557.272C130.299 558.541 130.621 559.545 131.265 560.282Z" fill="#F6F6F6"/>
<path d="M139.804 564.118H142.996V565H138.684L138.698 564.608C138.726 564.011 138.876 563.511 139.146 563.11C139.426 562.718 139.888 562.391 140.532 562.13L140.924 561.976C141.587 561.705 141.918 561.332 141.918 560.856C141.918 560.268 141.559 559.974 140.84 559.974C140.486 559.974 140.215 560.072 140.028 560.268C139.851 560.455 139.762 560.707 139.762 561.024H138.754C138.764 560.436 138.946 559.969 139.3 559.624C139.664 559.269 140.187 559.092 140.868 559.092C141.522 559.092 142.03 559.255 142.394 559.582C142.758 559.909 142.94 560.324 142.94 560.828C142.94 561.677 142.408 562.331 141.344 562.788L140.854 562.998C140.518 563.138 140.271 563.292 140.112 563.46C139.954 563.628 139.851 563.847 139.804 564.118Z" fill="#F6F6F6"/>
</g>
<defs>
<filter id="filter0_b_11922_31917" x="-44.5" y="-44.5" width="499" height="678" filterUnits="userSpaceOnUse" color-interpolation-filters="sRGB">
<feFlood flood-opacity="0" result="BackgroundImageFix"/>
<feGaussianBlur in="BackgroundImageFix" stdDeviation="22.25"/>
<feComposite in2="SourceAlpha" operator="in" result="effect1_backgroundBlur_11922_31917"/>
<feBlend mode="normal" in="SourceGraphic" in2="effect1_backgroundBlur_11922_31917" result="shape"/>
</filter>
</defs>
</svg>
