<svg width="410" height="589" viewBox="0 0 410 589" fill="none" xmlns="http://www.w3.org/2000/svg">
<g filter="url(#filter0_b_11922_32049)">
<rect x="73" y="234.634" width="61" height="227" rx="4" fill="#F5F5F5" fill-opacity="0.1"/>
<rect x="136" y="234.634" width="61" height="227" rx="4" fill="#F5F5F5" fill-opacity="0.1"/>
<rect x="199" y="234.634" width="61" height="227" rx="4" fill="#F5F5F5" fill-opacity="0.1"/>
<path d="M214.718 248.764C214.091 249.451 213.265 249.794 212.238 249.794C211.211 249.794 210.388 249.451 209.768 248.764C209.141 248.091 208.828 247.194 208.828 246.074C208.828 244.961 209.141 244.061 209.768 243.374C210.388 242.694 211.211 242.354 212.238 242.354C213.265 242.354 214.091 242.694 214.718 243.374C215.338 244.067 215.648 244.967 215.648 246.074C215.648 247.187 215.338 248.084 214.718 248.764ZM210.398 248.224C210.858 248.757 211.471 249.024 212.238 249.024C213.005 249.024 213.618 248.757 214.078 248.224C214.538 247.697 214.768 246.981 214.768 246.074C214.768 245.167 214.538 244.451 214.078 243.924C213.618 243.391 213.005 243.124 212.238 243.124C211.471 243.124 210.858 243.391 210.398 243.924C209.938 244.451 209.708 245.167 209.708 246.074C209.708 246.981 209.938 247.697 210.398 248.224Z" fill="#F6F6F6"/>
<path d="M219.228 246.764L220.078 244.474H220.938L218.908 249.634H218.068L216.048 244.474H216.918L217.768 246.774C218.188 247.901 218.431 248.567 218.498 248.774C218.618 248.421 218.861 247.751 219.228 246.764Z" fill="#F6F6F6"/>
<path d="M224.89 247.394V244.474H225.69V249.634H224.93V248.864C224.537 249.457 223.997 249.754 223.31 249.754C222.737 249.754 222.29 249.597 221.97 249.284C221.65 248.971 221.49 248.531 221.49 247.964V244.474H222.29V247.884C222.29 248.651 222.684 249.034 223.47 249.034C223.844 249.034 224.174 248.894 224.46 248.614C224.747 248.334 224.89 247.927 224.89 247.394Z" fill="#F6F6F6"/>
<path d="M227.691 249.634H226.891V242.514H227.691V249.634Z" fill="#F6F6F6"/>
<path d="M233.113 248.984H233.403V249.634C233.269 249.654 233.123 249.664 232.963 249.664C232.423 249.664 232.133 249.417 232.093 248.924C231.733 249.477 231.173 249.754 230.413 249.754C229.846 249.754 229.399 249.624 229.073 249.364C228.753 249.097 228.593 248.724 228.593 248.244C228.593 247.311 229.229 246.777 230.503 246.644L231.243 246.564C231.783 246.504 232.053 246.267 232.053 245.854C232.053 245.567 231.963 245.361 231.783 245.234C231.609 245.107 231.313 245.044 230.893 245.044C230.446 245.044 230.123 245.121 229.923 245.274C229.729 245.421 229.619 245.684 229.593 246.064H228.793C228.859 244.924 229.559 244.354 230.893 244.354C232.186 244.354 232.833 244.854 232.833 245.854V248.734C232.833 248.901 232.926 248.984 233.113 248.984ZM230.453 249.074C230.879 249.074 231.253 248.944 231.573 248.684C231.893 248.431 232.053 248.067 232.053 247.594V246.984C231.906 247.097 231.679 247.171 231.373 247.204L230.623 247.294C230.189 247.347 229.879 247.447 229.693 247.594C229.513 247.741 229.423 247.951 229.423 248.224C229.423 248.491 229.509 248.701 229.683 248.854C229.856 249.001 230.113 249.074 230.453 249.074Z" fill="#F6F6F6"/>
<path d="M236.172 244.474V245.174H235.112V248.524C235.112 248.817 235.309 248.964 235.702 248.964H236.172V249.634C235.952 249.654 235.762 249.664 235.602 249.664C234.742 249.664 234.312 249.307 234.312 248.594V245.174H233.462V244.474H234.312V243.014H235.112V244.474H236.172Z" fill="#F6F6F6"/>
<path d="M237.838 243.694H236.988V242.714H237.838V243.694ZM237.818 249.634H237.018V244.474H237.818V249.634Z" fill="#F6F6F6"/>
<path d="M243.07 249.014C242.596 249.507 241.996 249.754 241.27 249.754C240.543 249.754 239.943 249.507 239.47 249.014C239.003 248.527 238.77 247.874 238.77 247.054C238.77 246.234 239.003 245.581 239.47 245.094C239.943 244.601 240.543 244.354 241.27 244.354C241.996 244.354 242.596 244.601 243.07 245.094C243.536 245.581 243.77 246.234 243.77 247.054C243.77 247.874 243.536 248.527 243.07 249.014ZM240.06 248.504C240.36 248.857 240.763 249.034 241.27 249.034C241.776 249.034 242.18 248.857 242.48 248.504C242.78 248.157 242.93 247.674 242.93 247.054C242.93 246.427 242.78 245.941 242.48 245.594C242.18 245.247 241.776 245.074 241.27 245.074C240.763 245.074 240.36 245.247 240.06 245.594C239.76 245.941 239.61 246.427 239.61 247.054C239.61 247.674 239.76 248.157 240.06 248.504Z" fill="#F6F6F6"/>
<path d="M247.103 244.354C247.676 244.354 248.123 244.511 248.443 244.824C248.763 245.137 248.923 245.577 248.923 246.144V249.634H248.123V246.224C248.123 245.457 247.729 245.074 246.943 245.074C246.569 245.074 246.239 245.214 245.953 245.494C245.666 245.774 245.523 246.181 245.523 246.714V249.634H244.723V244.474H245.483V245.244C245.876 244.651 246.416 244.354 247.103 244.354Z" fill="#F6F6F6"/>
<path d="M148.921 242.514V243.274H144.811V245.544H148.521V246.304H144.811V248.874H148.881V249.634H143.971V242.514H148.921Z" fill="#F6F6F6"/>
<path d="M151.639 249.754C150.259 249.754 149.529 249.167 149.449 247.994H150.259C150.306 248.381 150.432 248.657 150.639 248.824C150.852 248.984 151.186 249.064 151.639 249.064C152.466 249.064 152.879 248.797 152.879 248.264C152.879 248.031 152.792 247.854 152.619 247.734C152.452 247.614 152.146 247.511 151.699 247.424L151.219 247.334C150.146 247.134 149.609 246.627 149.609 245.814C149.609 245.367 149.776 245.014 150.109 244.754C150.449 244.487 150.909 244.354 151.489 244.354C152.856 244.354 153.556 244.924 153.589 246.064H152.789C152.769 245.691 152.656 245.427 152.449 245.274C152.242 245.121 151.922 245.044 151.489 245.044C151.142 245.044 150.876 245.111 150.689 245.244C150.502 245.377 150.409 245.564 150.409 245.804C150.409 246.031 150.489 246.201 150.649 246.314C150.809 246.427 151.076 246.524 151.449 246.604L151.909 246.694C152.542 246.821 152.996 247.001 153.269 247.234C153.549 247.467 153.689 247.794 153.689 248.214C153.689 248.701 153.506 249.081 153.139 249.354C152.779 249.621 152.279 249.754 151.639 249.754Z" fill="#F6F6F6"/>
<path d="M156.649 244.474V245.174H155.589V248.524C155.589 248.817 155.786 248.964 156.179 248.964H156.649V249.634C156.429 249.654 156.239 249.664 156.079 249.664C155.219 249.664 154.789 249.307 154.789 248.594V245.174H153.939V244.474H154.789V243.014H155.589V244.474H156.649Z" fill="#F6F6F6"/>
<path d="M159.915 244.394C160.048 244.394 160.138 244.397 160.185 244.404V245.174H159.985C159.452 245.174 159.035 245.307 158.735 245.574C158.442 245.834 158.295 246.207 158.295 246.694V249.634H157.495V244.474H158.255V245.384C158.602 244.724 159.155 244.394 159.915 244.394Z" fill="#F6F6F6"/>
<path d="M164.68 249.014C164.206 249.507 163.606 249.754 162.88 249.754C162.153 249.754 161.553 249.507 161.08 249.014C160.613 248.527 160.38 247.874 160.38 247.054C160.38 246.234 160.613 245.581 161.08 245.094C161.553 244.601 162.153 244.354 162.88 244.354C163.606 244.354 164.206 244.601 164.68 245.094C165.146 245.581 165.38 246.234 165.38 247.054C165.38 247.874 165.146 248.527 164.68 249.014ZM161.67 248.504C161.97 248.857 162.373 249.034 162.88 249.034C163.386 249.034 163.79 248.857 164.09 248.504C164.39 248.157 164.54 247.674 164.54 247.054C164.54 246.427 164.39 245.941 164.09 245.594C163.79 245.247 163.386 245.074 162.88 245.074C162.373 245.074 161.97 245.247 161.67 245.594C161.37 245.941 161.22 246.427 161.22 247.054C161.22 247.674 161.37 248.157 161.67 248.504Z" fill="#F6F6F6"/>
<path d="M170.253 245.224V244.474H171.013V249.434C171.013 250.141 170.806 250.697 170.393 251.104C169.979 251.511 169.386 251.714 168.613 251.714C167.973 251.714 167.459 251.567 167.073 251.274C166.686 250.981 166.466 250.574 166.413 250.054H167.213C167.313 250.707 167.779 251.034 168.613 251.034C169.679 251.034 170.213 250.501 170.213 249.434V248.934C169.806 249.481 169.229 249.754 168.483 249.754C167.756 249.754 167.176 249.507 166.743 249.014C166.303 248.521 166.083 247.867 166.083 247.054C166.083 246.227 166.303 245.571 166.743 245.084C167.169 244.597 167.749 244.354 168.483 244.354C169.249 244.354 169.839 244.644 170.253 245.224ZM168.583 249.034C169.089 249.034 169.493 248.857 169.793 248.504C170.093 248.151 170.243 247.667 170.243 247.054C170.243 246.441 170.093 245.957 169.793 245.604C169.493 245.251 169.089 245.074 168.583 245.074C168.083 245.074 167.679 245.254 167.373 245.614C167.073 245.974 166.923 246.454 166.923 247.054C166.923 247.654 167.073 248.134 167.373 248.494C167.679 248.854 168.083 249.034 168.583 249.034Z" fill="#F6F6F6"/>
<path d="M176.712 247.054V247.334H172.792C172.832 247.894 172.988 248.317 173.262 248.604C173.535 248.884 173.908 249.024 174.382 249.024C175.095 249.024 175.552 248.704 175.752 248.064H176.582C176.442 248.584 176.182 248.997 175.802 249.304C175.422 249.604 174.942 249.754 174.362 249.754C173.648 249.754 173.072 249.511 172.632 249.024C172.185 248.537 171.962 247.881 171.962 247.054C171.962 246.241 172.182 245.587 172.622 245.094C173.055 244.601 173.628 244.354 174.342 244.354C175.082 244.354 175.662 244.611 176.082 245.124C176.502 245.637 176.712 246.281 176.712 247.054ZM174.342 245.084C173.922 245.084 173.578 245.217 173.312 245.484C173.045 245.744 172.878 246.121 172.812 246.614H175.852C175.812 246.161 175.658 245.794 175.392 245.514C175.125 245.227 174.775 245.084 174.342 245.084Z" fill="#F6F6F6"/>
<path d="M180.041 244.354C180.614 244.354 181.061 244.511 181.381 244.824C181.701 245.137 181.861 245.577 181.861 246.144V249.634H181.061V246.224C181.061 245.457 180.668 245.074 179.881 245.074C179.508 245.074 179.178 245.214 178.891 245.494C178.604 245.774 178.461 246.181 178.461 246.714V249.634H177.661V244.474H178.421V245.244C178.814 244.651 179.354 244.354 180.041 244.354Z" fill="#F6F6F6"/>
<path d="M183.881 243.694H183.031V242.714H183.881V243.694ZM183.861 249.634H183.061V244.474H183.861V249.634Z" fill="#F6F6F6"/>
<path d="M187.203 249.754C186.49 249.754 185.913 249.507 185.473 249.014C185.033 248.521 184.813 247.867 184.813 247.054C184.813 246.227 185.033 245.571 185.473 245.084C185.9 244.597 186.477 244.354 187.203 244.354C187.817 244.354 188.32 244.521 188.713 244.854C189.107 245.187 189.343 245.644 189.423 246.224H188.593C188.533 245.857 188.373 245.574 188.113 245.374C187.86 245.174 187.557 245.074 187.203 245.074C186.73 245.074 186.353 245.247 186.073 245.594C185.793 245.934 185.653 246.421 185.653 247.054C185.653 247.681 185.793 248.167 186.073 248.514C186.36 248.861 186.737 249.034 187.203 249.034C187.557 249.034 187.863 248.931 188.123 248.724C188.383 248.517 188.543 248.231 188.603 247.864H189.423C189.337 248.444 189.09 248.904 188.683 249.244C188.283 249.584 187.79 249.754 187.203 249.754Z" fill="#F6F6F6"/>
<path d="M88.1148 246.444L89.7048 242.514H90.8048V249.634H89.9848V247.354C89.9848 245.854 89.9948 244.644 90.0148 243.724C89.8548 244.164 89.6448 244.704 89.3848 245.344L87.6248 249.634H86.9048L85.1348 245.344C84.8748 244.704 84.6648 244.164 84.5048 243.724C84.5248 244.644 84.5348 245.854 84.5348 247.354V249.634H83.7148V242.514H84.8148L86.4648 246.564C86.7115 247.171 86.9815 247.854 87.2748 248.614C87.6815 247.534 87.9615 246.811 88.1148 246.444Z" fill="#F6F6F6"/>
<path d="M96.5535 247.054V247.334H92.6335C92.6735 247.894 92.8302 248.317 93.1035 248.604C93.3768 248.884 93.7502 249.024 94.2235 249.024C94.9368 249.024 95.3935 248.704 95.5935 248.064H96.4235C96.2835 248.584 96.0235 248.997 95.6435 249.304C95.2635 249.604 94.7835 249.754 94.2035 249.754C93.4902 249.754 92.9135 249.511 92.4735 249.024C92.0268 248.537 91.8035 247.881 91.8035 247.054C91.8035 246.241 92.0235 245.587 92.4635 245.094C92.8968 244.601 93.4702 244.354 94.1835 244.354C94.9235 244.354 95.5035 244.611 95.9235 245.124C96.3435 245.637 96.5535 246.281 96.5535 247.054ZM94.1835 245.084C93.7635 245.084 93.4202 245.217 93.1535 245.484C92.8868 245.744 92.7202 246.121 92.6535 246.614H95.6935C95.6535 246.161 95.5002 245.794 95.2335 245.514C94.9668 245.227 94.6168 245.084 94.1835 245.084Z" fill="#F6F6F6"/>
<path d="M99.8827 244.354C100.456 244.354 100.903 244.511 101.223 244.824C101.543 245.137 101.703 245.577 101.703 246.144V249.634H100.903V246.224C100.903 245.457 100.509 245.074 99.7227 245.074C99.3494 245.074 99.0194 245.214 98.7327 245.494C98.4461 245.774 98.3027 246.181 98.3027 246.714V249.634H97.5027V244.474H98.2627V245.244C98.6561 244.651 99.1961 244.354 99.8827 244.354Z" fill="#F6F6F6"/>
<path d="M104.723 249.754C103.343 249.754 102.613 249.167 102.533 247.994H103.343C103.39 248.381 103.516 248.657 103.723 248.824C103.936 248.984 104.27 249.064 104.723 249.064C105.55 249.064 105.963 248.797 105.963 248.264C105.963 248.031 105.876 247.854 105.703 247.734C105.536 247.614 105.23 247.511 104.783 247.424L104.303 247.334C103.23 247.134 102.693 246.627 102.693 245.814C102.693 245.367 102.86 245.014 103.193 244.754C103.533 244.487 103.993 244.354 104.573 244.354C105.94 244.354 106.64 244.924 106.673 246.064H105.873C105.853 245.691 105.74 245.427 105.533 245.274C105.326 245.121 105.006 245.044 104.573 245.044C104.226 245.044 103.96 245.111 103.773 245.244C103.586 245.377 103.493 245.564 103.493 245.804C103.493 246.031 103.573 246.201 103.733 246.314C103.893 246.427 104.16 246.524 104.533 246.604L104.993 246.694C105.626 246.821 106.08 247.001 106.353 247.234C106.633 247.467 106.773 247.794 106.773 248.214C106.773 248.701 106.59 249.081 106.223 249.354C105.863 249.621 105.363 249.754 104.723 249.754Z" fill="#F6F6F6"/>
<path d="M109.733 244.474V245.174H108.673V248.524C108.673 248.817 108.87 248.964 109.263 248.964H109.733V249.634C109.513 249.654 109.323 249.664 109.163 249.664C108.303 249.664 107.873 249.307 107.873 248.594V245.174H107.023V244.474H107.873V243.014H108.673V244.474H109.733Z" fill="#F6F6F6"/>
<path d="M112.999 244.394C113.132 244.394 113.222 244.397 113.269 244.404V245.174H113.069C112.536 245.174 112.119 245.307 111.819 245.574C111.526 245.834 111.379 246.207 111.379 246.694V249.634H110.579V244.474H111.339V245.384C111.686 244.724 112.239 244.394 112.999 244.394Z" fill="#F6F6F6"/>
<path d="M117.368 247.394V244.474H118.168V249.634H117.408V248.864C117.014 249.457 116.474 249.754 115.788 249.754C115.214 249.754 114.768 249.597 114.448 249.284C114.128 248.971 113.968 248.531 113.968 247.964V244.474H114.768V247.884C114.768 248.651 115.161 249.034 115.948 249.034C116.321 249.034 116.651 248.894 116.938 248.614C117.224 248.334 117.368 247.927 117.368 247.394Z" fill="#F6F6F6"/>
<path d="M123.588 248.984H123.878V249.634C123.745 249.654 123.598 249.664 123.438 249.664C122.898 249.664 122.608 249.417 122.568 248.924C122.208 249.477 121.648 249.754 120.888 249.754C120.321 249.754 119.875 249.624 119.548 249.364C119.228 249.097 119.068 248.724 119.068 248.244C119.068 247.311 119.705 246.777 120.978 246.644L121.718 246.564C122.258 246.504 122.528 246.267 122.528 245.854C122.528 245.567 122.438 245.361 122.258 245.234C122.085 245.107 121.788 245.044 121.368 245.044C120.921 245.044 120.598 245.121 120.398 245.274C120.205 245.421 120.095 245.684 120.068 246.064H119.268C119.335 244.924 120.035 244.354 121.368 244.354C122.661 244.354 123.308 244.854 123.308 245.854V248.734C123.308 248.901 123.401 248.984 123.588 248.984ZM120.928 249.074C121.355 249.074 121.728 248.944 122.048 248.684C122.368 248.431 122.528 248.067 122.528 247.594V246.984C122.381 247.097 122.155 247.171 121.848 247.204L121.098 247.294C120.665 247.347 120.355 247.447 120.168 247.594C119.988 247.741 119.898 247.951 119.898 248.224C119.898 248.491 119.985 248.701 120.158 248.854C120.331 249.001 120.588 249.074 120.928 249.074Z" fill="#F6F6F6"/>
<path d="M125.334 249.634H124.534V242.514H125.334V249.634Z" fill="#F6F6F6"/>
<rect x="262" y="234.634" width="61" height="227" rx="4" fill="#F5F5F5" fill-opacity="0.1"/>
<rect x="325" y="234.634" width="61" height="227" rx="4" fill="#F5F5F5" fill-opacity="0.1"/>
<path d="M34.734 265.976H36.064V267.572H34.734V269.868H32.844V267.572H28V265.78L32.662 259.9H34.734V265.976ZM32.886 265.976V261.93L29.68 265.976H32.886Z" fill="#F6F6F6"/>
<path d="M38.8383 269.868H36.7803V267.866H38.8383V269.868Z" fill="#F6F6F6"/>
<path d="M38.7555 261.496V259.9H45.5735V261.412C44.4442 262.607 43.6275 263.857 43.1235 265.164C42.6008 266.508 42.3255 268.076 42.2975 269.868H40.3375C40.3935 266.648 41.4948 263.857 43.6415 261.496H38.7555Z" fill="#F6F6F6"/>
<path d="M52.7494 268.748C52.068 269.644 51.074 270.092 49.7674 270.092C48.4607 270.092 47.4667 269.644 46.7854 268.748C46.1134 267.852 45.7774 266.564 45.7774 264.884C45.7774 263.204 46.1134 261.916 46.7854 261.02C47.4667 260.124 48.4607 259.676 49.7674 259.676C51.074 259.676 52.068 260.124 52.7494 261.02C53.4307 261.916 53.7714 263.204 53.7714 264.884C53.7714 266.564 53.4307 267.852 52.7494 268.748ZM49.7674 268.496C51.1207 268.496 51.7974 267.292 51.7974 264.884C51.7974 262.476 51.1207 261.272 49.7674 261.272C48.4234 261.272 47.7514 262.476 47.7514 264.884C47.7514 267.292 48.4234 268.496 49.7674 268.496Z" fill="#F6F6F6"/>
<path d="M34.734 308.222H36.064V309.818H34.734V312.114H32.844V309.818H28V308.026L32.662 302.146H34.734V308.222ZM32.886 308.222V304.176L29.68 308.222H32.886Z" fill="#F6F6F6"/>
<path d="M38.8383 312.114H36.7803V310.112H38.8383V312.114Z" fill="#F6F6F6"/>
<path d="M45.8605 306.822C47.0178 307.27 47.5965 308.091 47.5965 309.286C47.5965 310.219 47.2465 310.956 46.5465 311.498C45.8372 312.058 44.8852 312.338 43.6905 312.338C42.4958 312.338 41.5485 312.058 40.8485 311.498C40.1485 310.956 39.7985 310.219 39.7985 309.286C39.7985 308.11 40.3725 307.288 41.5205 306.822C40.6432 306.364 40.2045 305.65 40.2045 304.68C40.2045 303.83 40.5265 303.158 41.1705 302.664C41.8238 302.169 42.6638 301.922 43.6905 301.922C44.7172 301.922 45.5572 302.169 46.2105 302.664C46.8545 303.158 47.1765 303.83 47.1765 304.68C47.1765 305.65 46.7378 306.364 45.8605 306.822ZM45.4545 304.792C45.4545 304.334 45.2958 303.98 44.9785 303.728C44.6612 303.476 44.2318 303.35 43.6905 303.35C43.1678 303.35 42.7432 303.476 42.4165 303.728C42.0898 303.98 41.9265 304.334 41.9265 304.792C41.9265 305.23 42.0852 305.576 42.4025 305.828C42.7198 306.08 43.1492 306.206 43.6905 306.206C44.2318 306.206 44.6612 306.08 44.9785 305.828C45.2958 305.576 45.4545 305.23 45.4545 304.792ZM43.6905 310.826C44.3345 310.826 44.8292 310.681 45.1745 310.392C45.5292 310.102 45.7065 309.696 45.7065 309.174C45.7065 308.642 45.5292 308.231 45.1745 307.942C44.8198 307.652 44.3252 307.508 43.6905 307.508C43.0558 307.508 42.5612 307.652 42.2065 307.942C41.8518 308.231 41.6745 308.642 41.6745 309.174C41.6745 309.696 41.8518 310.102 42.2065 310.392C42.5612 310.681 43.0558 310.826 43.6905 310.826Z" fill="#F6F6F6"/>
<path d="M55.4701 310.994C54.7887 311.89 53.7947 312.338 52.4881 312.338C51.1814 312.338 50.1874 311.89 49.5061 310.994C48.8341 310.098 48.4981 308.81 48.4981 307.13C48.4981 305.45 48.8341 304.162 49.5061 303.266C50.1874 302.37 51.1814 301.922 52.4881 301.922C53.7947 301.922 54.7887 302.37 55.4701 303.266C56.1514 304.162 56.4921 305.45 56.4921 307.13C56.4921 308.81 56.1514 310.098 55.4701 310.994ZM52.4881 310.742C53.8414 310.742 54.5181 309.538 54.5181 307.13C54.5181 304.722 53.8414 303.518 52.4881 303.518C51.1441 303.518 50.4721 304.722 50.4721 307.13C50.4721 309.538 51.1441 310.742 52.4881 310.742Z" fill="#F6F6F6"/>
<path d="M34.734 350.468H36.064V352.064H34.734V354.36H32.844V352.064H28V350.272L32.662 344.392H34.734V350.468ZM32.886 350.468V346.422L29.68 350.468H32.886Z" fill="#F6F6F6"/>
<path d="M38.8383 354.36H36.7803V352.358H38.8383V354.36Z" fill="#F6F6F6"/>
<path d="M43.7791 347.808C44.8618 347.808 45.7064 348.125 46.3131 348.76C46.9011 349.394 47.1951 350.183 47.1951 351.126C47.1951 352.162 46.8498 352.997 46.1591 353.632C45.4684 354.266 44.5724 354.584 43.4711 354.584C42.4538 354.584 41.5998 354.308 40.9091 353.758C40.2371 353.216 39.8638 352.47 39.7891 351.518H41.5951C41.6604 351.994 41.8611 352.372 42.1971 352.652C42.5424 352.922 42.9671 353.058 43.4711 353.058C44.0404 353.058 44.4978 352.88 44.8431 352.526C45.1978 352.162 45.3751 351.695 45.3751 351.126C45.3751 350.556 45.1978 350.094 44.8431 349.74C44.4978 349.376 44.0404 349.194 43.4711 349.194C42.6311 349.194 42.0478 349.53 41.7211 350.202H39.9851L40.9091 344.392H46.6771V345.988H42.3931L41.9591 348.466C42.5004 348.027 43.1071 347.808 43.7791 347.808Z" fill="#F6F6F6"/>
<path d="M52.0096 347.808C53.0922 347.808 53.9369 348.125 54.5436 348.76C55.1316 349.394 55.4256 350.183 55.4256 351.126C55.4256 352.162 55.0802 352.997 54.3896 353.632C53.6989 354.266 52.8029 354.584 51.7016 354.584C50.6842 354.584 49.8302 354.308 49.1396 353.758C48.4676 353.216 48.0942 352.47 48.0196 351.518H49.8256C49.8909 351.994 50.0916 352.372 50.4276 352.652C50.7729 352.922 51.1976 353.058 51.7016 353.058C52.2709 353.058 52.7282 352.88 53.0736 352.526C53.4282 352.162 53.6056 351.695 53.6056 351.126C53.6056 350.556 53.4282 350.094 53.0736 349.74C52.7282 349.376 52.2709 349.194 51.7016 349.194C50.8616 349.194 50.2782 349.53 49.9516 350.202H48.2156L49.1396 344.392H54.9076V345.988H50.6236L50.1896 348.466C50.7309 348.027 51.3376 347.808 52.0096 347.808Z" fill="#F6F6F6"/>
<path d="M34.734 392.713H36.064V394.309H34.734V396.605H32.844V394.309H28V392.517L32.662 386.637H34.734V392.713ZM32.886 392.713V388.667L29.68 392.713H32.886Z" fill="#F6F6F6"/>
<path d="M38.8383 396.605H36.7803V394.603H38.8383V396.605Z" fill="#F6F6F6"/>
<path d="M43.7791 390.053C44.8618 390.053 45.7064 390.371 46.3131 391.005C46.9011 391.64 47.1951 392.429 47.1951 393.371C47.1951 394.407 46.8498 395.243 46.1591 395.877C45.4684 396.512 44.5724 396.829 43.4711 396.829C42.4538 396.829 41.5998 396.554 40.9091 396.003C40.2371 395.462 39.8638 394.715 39.7891 393.763H41.5951C41.6604 394.239 41.8611 394.617 42.1971 394.897C42.5424 395.168 42.9671 395.303 43.4711 395.303C44.0404 395.303 44.4978 395.126 44.8431 394.771C45.1978 394.407 45.3751 393.941 45.3751 393.371C45.3751 392.802 45.1978 392.34 44.8431 391.985C44.4978 391.621 44.0404 391.439 43.4711 391.439C42.6311 391.439 42.0478 391.775 41.7211 392.447H39.9851L40.9091 386.637H46.6771V388.233H42.3931L41.9591 390.711C42.5004 390.273 43.1071 390.053 43.7791 390.053Z" fill="#F6F6F6"/>
<path d="M55.1693 395.485C54.488 396.381 53.494 396.829 52.1873 396.829C50.8806 396.829 49.8866 396.381 49.2053 395.485C48.5333 394.589 48.1973 393.301 48.1973 391.621C48.1973 389.941 48.5333 388.653 49.2053 387.757C49.8866 386.861 50.8806 386.413 52.1873 386.413C53.494 386.413 54.488 386.861 55.1693 387.757C55.8506 388.653 56.1913 389.941 56.1913 391.621C56.1913 393.301 55.8506 394.589 55.1693 395.485ZM52.1873 395.233C53.5406 395.233 54.2173 394.029 54.2173 391.621C54.2173 389.213 53.5406 388.009 52.1873 388.009C50.8433 388.009 50.1713 389.213 50.1713 391.621C50.1713 394.029 50.8433 395.233 52.1873 395.233Z" fill="#F6F6F6"/>
<path d="M34.734 434.959H36.064V436.555H34.734V438.851H32.844V436.555H28V434.763L32.662 428.883H34.734V434.959ZM32.886 434.959V430.913L29.68 434.959H32.886Z" fill="#F6F6F6"/>
<path d="M38.8383 438.851H36.7803V436.849H38.8383V438.851Z" fill="#F6F6F6"/>
<path d="M46.1227 434.959H47.4527V436.555H46.1227V438.851H44.2327V436.555H39.3887V434.763L44.0507 428.883H46.1227V434.959ZM44.2747 434.959V430.913L41.0687 434.959H44.2747Z" fill="#F6F6F6"/>
<path d="M55.1966 437.731C54.5153 438.627 53.5213 439.075 52.2146 439.075C50.908 439.075 49.914 438.627 49.2326 437.731C48.5606 436.835 48.2246 435.547 48.2246 433.867C48.2246 432.187 48.5606 430.899 49.2326 430.003C49.914 429.107 50.908 428.659 52.2146 428.659C53.5213 428.659 54.5153 429.107 55.1966 430.003C55.878 430.899 56.2186 432.187 56.2186 433.867C56.2186 435.547 55.878 436.835 55.1966 437.731ZM52.2146 437.479C53.568 437.479 54.2446 436.275 54.2446 433.867C54.2446 431.459 53.568 430.255 52.2146 430.255C50.8706 430.255 50.1986 431.459 50.1986 433.867C50.1986 436.275 50.8706 437.479 52.2146 437.479Z" fill="#F6F6F6"/>
<path d="M35.1025 202.564C35.1025 203.525 34.8971 204.267 34.4865 204.79C34.0758 205.313 33.4691 205.574 32.6665 205.574C31.8638 205.574 31.2571 205.313 30.8465 204.79C30.4358 204.267 30.2305 203.525 30.2305 202.564C30.2305 201.584 30.4358 200.837 30.8465 200.324C31.2571 199.801 31.8638 199.54 32.6665 199.54C33.4691 199.54 34.0758 199.801 34.4865 200.324C34.8971 200.837 35.1025 201.584 35.1025 202.564ZM34.2345 209.634H32.9605L38.2805 199.666H39.5545L34.2345 209.634ZM31.6165 202.564C31.6165 203.824 31.9665 204.454 32.6665 204.454C33.3665 204.454 33.7165 203.824 33.7165 202.564C33.7165 201.295 33.3665 200.66 32.6665 200.66C31.9665 200.66 31.6165 201.295 31.6165 202.564ZM42.2845 206.75C42.2845 207.711 42.0791 208.453 41.6685 208.976C41.2578 209.499 40.6511 209.76 39.8485 209.76C39.0458 209.76 38.4391 209.499 38.0285 208.976C37.6178 208.453 37.4125 207.711 37.4125 206.75C37.4125 205.77 37.6178 205.023 38.0285 204.51C38.4391 203.987 39.0458 203.726 39.8485 203.726C40.6511 203.726 41.2578 203.987 41.6685 204.51C42.0791 205.023 42.2845 205.77 42.2845 206.75ZM39.8485 208.64C40.5485 208.64 40.8985 208.01 40.8985 206.75C40.8985 205.481 40.5485 204.846 39.8485 204.846C39.1391 204.846 38.7845 205.481 38.7845 206.75C38.7845 208.01 39.1391 208.64 39.8485 208.64Z" fill="#F6F6F6"/>
<path d="M47.7916 209.858C46.3543 209.858 45.1923 209.387 44.3056 208.444C43.4096 207.501 42.9616 206.237 42.9616 204.65C42.9616 203.054 43.4049 201.785 44.2916 200.842C45.1689 199.909 46.3356 199.442 47.7916 199.442C48.9583 199.442 49.9523 199.755 50.7736 200.38C51.5949 201.005 52.1083 201.911 52.3136 203.096H50.3956C50.2276 202.443 49.9149 201.948 49.4576 201.612C49.0096 201.267 48.4543 201.094 47.7916 201.094C46.9049 201.094 46.2049 201.411 45.6916 202.046C45.1876 202.671 44.9356 203.539 44.9356 204.65C44.9356 205.77 45.1876 206.643 45.6916 207.268C46.1956 207.893 46.8956 208.206 47.7916 208.206C48.4823 208.206 49.0749 208.001 49.5696 207.59C50.0643 207.179 50.3629 206.61 50.4656 205.882H52.3556C52.2343 207.151 51.7396 208.131 50.8716 208.822C50.0129 209.513 48.9863 209.858 47.7916 209.858Z" fill="#F6F6F6"/>
<path d="M61.7021 208.43C60.7875 209.382 59.5835 209.858 58.0901 209.858C56.5968 209.858 55.3928 209.382 54.4781 208.43C53.5635 207.469 53.1061 206.209 53.1061 204.65C53.1061 203.091 53.5635 201.831 54.4781 200.87C55.3928 199.918 56.5968 199.442 58.0901 199.442C59.5835 199.442 60.7875 199.918 61.7021 200.87C62.6075 201.813 63.0601 203.073 63.0601 204.65C63.0601 206.227 62.6075 207.487 61.7021 208.43ZM55.0801 204.65C55.0801 205.742 55.3555 206.605 55.9061 207.24C56.4568 207.875 57.1848 208.192 58.0901 208.192C59.0048 208.192 59.7375 207.875 60.2881 207.24C60.8295 206.615 61.1001 205.751 61.1001 204.65C61.1001 203.549 60.8295 202.685 60.2881 202.06C59.7375 201.425 59.0048 201.108 58.0901 201.108C57.1848 201.108 56.4568 201.425 55.9061 202.06C55.3555 202.695 55.0801 203.558 55.0801 204.65Z" fill="#F6F6F6"/>
<path d="M64.5937 211.258H67.5477V212.378H63.0677L63.0957 211.874C63.161 210.726 63.7584 209.909 64.8877 209.424L65.3077 209.242C65.905 208.981 66.2037 208.663 66.2037 208.29C66.2037 207.823 65.9237 207.59 65.3637 207.59C65.0837 207.59 64.8644 207.669 64.7057 207.828C64.547 207.987 64.4677 208.215 64.4677 208.514H63.1657C63.203 207.87 63.4084 207.371 63.7817 207.016C64.155 206.652 64.687 206.47 65.3777 206.47C66.0404 206.47 66.563 206.633 66.9457 206.96C67.3284 207.287 67.5197 207.707 67.5197 208.22C67.5197 208.687 67.389 209.074 67.1277 209.382C66.8664 209.69 66.4417 209.97 65.8537 210.222L65.4617 210.404C64.9484 210.637 64.659 210.922 64.5937 211.258Z" fill="#F6F6F6"/>
<path d="M68.2852 209.634V207.632H70.3432V209.788C70.3432 211.104 69.7412 211.785 68.5372 211.832H68.2852V210.824L68.5232 210.81C68.9525 210.782 69.1672 210.469 69.1672 209.872V209.634H68.2852Z" fill="#F6F6F6"/>
<path d="M80.4579 200.212C81.5125 201.015 82.0399 202.466 82.0399 204.566C82.0399 206.265 81.7039 207.581 81.0319 208.514C80.3692 209.447 79.4079 209.914 78.1479 209.914C77.1585 209.914 76.3419 209.671 75.6979 209.186C75.0632 208.691 74.6805 208.01 74.5499 207.142H76.3139C76.4912 208.019 77.0979 208.458 78.1339 208.458C78.8339 208.458 79.3565 208.183 79.7019 207.632C80.0472 207.081 80.2385 206.213 80.2759 205.028C79.7159 205.859 78.8852 206.274 77.7839 206.274C76.7385 206.274 75.9125 205.952 75.3059 205.308C74.6992 204.673 74.3959 203.894 74.3959 202.97C74.3959 201.934 74.7412 201.094 75.4319 200.45C76.1225 199.815 77.0139 199.498 78.1059 199.498C79.0299 199.498 79.8139 199.736 80.4579 200.212ZM76.7479 204.3C77.1025 204.655 77.5552 204.832 78.1059 204.832C78.6565 204.832 79.1092 204.655 79.4639 204.3C79.8092 203.955 79.9819 203.497 79.9819 202.928C79.9819 202.368 79.8092 201.911 79.4639 201.556C79.1185 201.201 78.6659 201.024 78.1059 201.024C77.5552 201.024 77.1025 201.206 76.7479 201.57C76.4025 201.925 76.2299 202.377 76.2299 202.928C76.2299 203.497 76.4025 203.955 76.7479 204.3Z" fill="#F6F6F6"/>
<path d="M86.9598 203.082C88.0424 203.082 88.8871 203.399 89.4938 204.034C90.0818 204.669 90.3758 205.457 90.3758 206.4C90.3758 207.436 90.0304 208.271 89.3398 208.906C88.6491 209.541 87.7531 209.858 86.6518 209.858C85.6344 209.858 84.7804 209.583 84.0898 209.032C83.4178 208.491 83.0444 207.744 82.9698 206.792H84.7758C84.8411 207.268 85.0418 207.646 85.3778 207.926C85.7231 208.197 86.1478 208.332 86.6518 208.332C87.2211 208.332 87.6784 208.155 88.0238 207.8C88.3784 207.436 88.5558 206.969 88.5558 206.4C88.5558 205.831 88.3784 205.369 88.0238 205.014C87.6784 204.65 87.2211 204.468 86.6518 204.468C85.8118 204.468 85.2284 204.804 84.9018 205.476H83.1658L84.0898 199.666H89.8578V201.262H85.5738L85.1398 203.74C85.6811 203.301 86.2878 203.082 86.9598 203.082Z" fill="#F6F6F6"/>
<path d="M95.8603 202.564C95.8603 203.525 95.6549 204.267 95.2443 204.79C94.8336 205.313 94.2269 205.574 93.4243 205.574C92.6216 205.574 92.0149 205.313 91.6043 204.79C91.1936 204.267 90.9883 203.525 90.9883 202.564C90.9883 201.584 91.1936 200.837 91.6043 200.324C92.0149 199.801 92.6216 199.54 93.4243 199.54C94.2269 199.54 94.8336 199.801 95.2443 200.324C95.6549 200.837 95.8603 201.584 95.8603 202.564ZM94.9923 209.634H93.7183L99.0383 199.666H100.312L94.9923 209.634ZM92.3743 202.564C92.3743 203.824 92.7243 204.454 93.4243 204.454C94.1243 204.454 94.4743 203.824 94.4743 202.564C94.4743 201.295 94.1243 200.66 93.4243 200.66C92.7243 200.66 92.3743 201.295 92.3743 202.564ZM103.042 206.75C103.042 207.711 102.837 208.453 102.426 208.976C102.016 209.499 101.409 209.76 100.606 209.76C99.8036 209.76 99.1969 209.499 98.7863 208.976C98.3756 208.453 98.1703 207.711 98.1703 206.75C98.1703 205.77 98.3756 205.023 98.7863 204.51C99.1969 203.987 99.8036 203.726 100.606 203.726C101.409 203.726 102.016 203.987 102.426 204.51C102.837 205.023 103.042 205.77 103.042 206.75ZM100.606 208.64C101.306 208.64 101.656 208.01 101.656 206.75C101.656 205.481 101.306 204.846 100.606 204.846C99.897 204.846 99.5423 205.481 99.5423 206.75C99.5423 208.01 99.897 208.64 100.606 208.64Z" fill="#F6F6F6"/>
<path d="M108.549 209.858C107.112 209.858 105.95 209.387 105.063 208.444C104.167 207.501 103.719 206.237 103.719 204.65C103.719 203.054 104.163 201.785 105.049 200.842C105.927 199.909 107.093 199.442 108.549 199.442C109.716 199.442 110.71 199.755 111.531 200.38C112.353 201.005 112.866 201.911 113.071 203.096H111.153C110.985 202.443 110.673 201.948 110.215 201.612C109.767 201.267 109.212 201.094 108.549 201.094C107.663 201.094 106.963 201.411 106.449 202.046C105.945 202.671 105.693 203.539 105.693 204.65C105.693 205.77 105.945 206.643 106.449 207.268C106.953 207.893 107.653 208.206 108.549 208.206C109.24 208.206 109.833 208.001 110.327 207.59C110.822 207.179 111.121 206.61 111.223 205.882H113.113C112.992 207.151 112.497 208.131 111.629 208.822C110.771 209.513 109.744 209.858 108.549 209.858Z" fill="#F6F6F6"/>
<path d="M116.174 209.634H114.284V199.666H116.174V209.634Z" fill="#F6F6F6"/>
<path d="M75 356.3L86.5878 338.572L97.4184 320.444C97.706 319.962 98.1688 319.611 98.7099 319.463L108.567 316.774C108.746 316.725 108.918 316.653 109.079 316.561L119.431 310.596C120.052 310.238 120.811 310.21 121.457 310.522L129.964 314.629C130.816 315.04 131.835 314.852 132.484 314.165L142.871 303.168C143.046 302.982 143.254 302.829 143.483 302.715L153.946 297.518C154.155 297.414 154.378 297.345 154.608 297.312L165.694 295.75L176.758 293.491C176.901 293.462 177.046 293.448 177.192 293.448H187.549C188.19 293.448 188.799 293.164 189.211 292.672L199.271 280.68C199.808 280.04 200.663 279.765 201.471 279.972L210.747 282.341C210.891 282.378 211.031 282.43 211.165 282.495L222.359 287.982C222.589 288.095 222.797 288.247 222.973 288.432L233.907 299.88C234.061 300.042 234.189 300.226 234.287 300.427L245.264 322.916L256.762 340.279C256.822 340.369 256.874 340.463 256.92 340.56L268.439 365.278L279.504 393.445C279.544 393.545 279.591 393.643 279.645 393.736L290.997 413.395L301.675 430.854C301.962 431.323 302.416 431.665 302.945 431.812L313.355 434.708C313.59 434.773 313.811 434.877 314.011 435.016L324.082 442.005C324.651 442.4 325.375 442.5 326.03 442.272L335.833 438.871C336.119 438.771 336.381 438.613 336.602 438.407L347.566 428.169C347.757 427.991 347.978 427.849 348.22 427.749L359.068 423.283C359.415 423.14 359.719 422.91 359.95 422.614L370.075 409.682C370.296 409.399 370.585 409.176 370.914 409.032L382 404.186" stroke="#CCFD56" stroke-width="4" stroke-linecap="round"/>
<path d="M346.932 241.514H349.892C350.645 241.514 351.225 241.711 351.632 242.104C352.045 242.497 352.252 243.031 352.252 243.704C352.252 244.377 352.045 244.911 351.632 245.304C351.225 245.697 350.645 245.894 349.892 245.894H347.772V248.634H346.932V241.514ZM347.772 245.134H349.892C350.385 245.134 350.755 245.014 351.002 244.774C351.255 244.527 351.382 244.171 351.382 243.704C351.382 243.237 351.255 242.884 351.002 242.644C350.755 242.397 350.385 242.274 349.892 242.274H347.772V245.134Z" fill="#F6F6F6"/>
<path d="M355.464 243.394C355.597 243.394 355.687 243.397 355.734 243.404V244.174H355.534C355.001 244.174 354.584 244.307 354.284 244.574C353.991 244.834 353.844 245.207 353.844 245.694V248.634H353.044V243.474H353.804V244.384C354.151 243.724 354.704 243.394 355.464 243.394Z" fill="#F6F6F6"/>
<path d="M360.679 246.054V246.334H356.759C356.799 246.894 356.955 247.317 357.229 247.604C357.502 247.884 357.875 248.024 358.349 248.024C359.062 248.024 359.519 247.704 359.719 247.064H360.549C360.409 247.584 360.149 247.997 359.769 248.304C359.389 248.604 358.909 248.754 358.329 248.754C357.615 248.754 357.039 248.511 356.599 248.024C356.152 247.537 355.929 246.881 355.929 246.054C355.929 245.241 356.149 244.587 356.589 244.094C357.022 243.601 357.595 243.354 358.309 243.354C359.049 243.354 359.629 243.611 360.049 244.124C360.469 244.637 360.679 245.281 360.679 246.054ZM358.309 244.084C357.889 244.084 357.545 244.217 357.279 244.484C357.012 244.744 356.845 245.121 356.779 245.614H359.819C359.779 245.161 359.625 244.794 359.359 244.514C359.092 244.227 358.742 244.084 358.309 244.084Z" fill="#F6F6F6"/>
<path d="M364.318 246.174H361.428V245.454H364.318V246.174Z" fill="#F6F6F6"/>
<path d="M340.09 255.354C340.65 255.354 341.083 255.517 341.39 255.844C341.703 256.164 341.86 256.594 341.86 257.134V260.634H341.06V257.214C341.06 256.454 340.7 256.074 339.98 256.074C339.6 256.074 339.283 256.227 339.03 256.534C338.783 256.834 338.66 257.261 338.66 257.814V260.634H337.86V257.214C337.86 256.454 337.5 256.074 336.78 256.074C336.407 256.074 336.093 256.227 335.84 256.534C335.587 256.834 335.46 257.261 335.46 257.814V260.634H334.66V255.474H335.42V256.234C335.76 255.647 336.257 255.354 336.91 255.354C337.683 255.354 338.213 255.677 338.5 256.324C338.86 255.677 339.39 255.354 340.09 255.354Z" fill="#F6F6F6"/>
<path d="M347.559 258.054V258.334H343.639C343.679 258.894 343.835 259.317 344.109 259.604C344.382 259.884 344.755 260.024 345.229 260.024C345.942 260.024 346.399 259.704 346.599 259.064H347.429C347.289 259.584 347.029 259.997 346.649 260.304C346.269 260.604 345.789 260.754 345.209 260.754C344.495 260.754 343.919 260.511 343.479 260.024C343.032 259.537 342.809 258.881 342.809 258.054C342.809 257.241 343.029 256.587 343.469 256.094C343.902 255.601 344.475 255.354 345.189 255.354C345.929 255.354 346.509 255.611 346.929 256.124C347.349 256.637 347.559 257.281 347.559 258.054ZM345.189 256.084C344.769 256.084 344.425 256.217 344.159 256.484C343.892 256.744 343.725 257.121 343.659 257.614H346.699C346.659 257.161 346.505 256.794 346.239 256.514C345.972 256.227 345.622 256.084 345.189 256.084Z" fill="#F6F6F6"/>
<path d="M350.888 255.354C351.461 255.354 351.908 255.511 352.228 255.824C352.548 256.137 352.708 256.577 352.708 257.144V260.634H351.908V257.224C351.908 256.457 351.514 256.074 350.728 256.074C350.354 256.074 350.024 256.214 349.738 256.494C349.451 256.774 349.308 257.181 349.308 257.714V260.634H348.508V255.474H349.268V256.244C349.661 255.651 350.201 255.354 350.888 255.354Z" fill="#F6F6F6"/>
<path d="M355.728 260.754C354.348 260.754 353.618 260.167 353.538 258.994H354.348C354.395 259.381 354.522 259.657 354.728 259.824C354.942 259.984 355.275 260.064 355.728 260.064C356.555 260.064 356.968 259.797 356.968 259.264C356.968 259.031 356.882 258.854 356.708 258.734C356.542 258.614 356.235 258.511 355.788 258.424L355.308 258.334C354.235 258.134 353.698 257.627 353.698 256.814C353.698 256.367 353.865 256.014 354.198 255.754C354.538 255.487 354.998 255.354 355.578 255.354C356.945 255.354 357.645 255.924 357.678 257.064H356.878C356.858 256.691 356.745 256.427 356.538 256.274C356.332 256.121 356.012 256.044 355.578 256.044C355.232 256.044 354.965 256.111 354.778 256.244C354.592 256.377 354.498 256.564 354.498 256.804C354.498 257.031 354.578 257.201 354.738 257.314C354.898 257.427 355.165 257.524 355.538 257.604L355.998 257.694C356.632 257.821 357.085 258.001 357.358 258.234C357.638 258.467 357.778 258.794 357.778 259.214C357.778 259.701 357.595 260.081 357.228 260.354C356.868 260.621 356.368 260.754 355.728 260.754Z" fill="#F6F6F6"/>
<path d="M360.739 255.474V256.174H359.679V259.524C359.679 259.817 359.875 259.964 360.269 259.964H360.739V260.634C360.519 260.654 360.329 260.664 360.169 260.664C359.309 260.664 358.879 260.307 358.879 259.594V256.174H358.029V255.474H358.879V254.014H359.679V255.474H360.739Z" fill="#F6F6F6"/>
<path d="M364.004 255.394C364.137 255.394 364.227 255.397 364.274 255.404V256.174H364.074C363.541 256.174 363.124 256.307 362.824 256.574C362.531 256.834 362.384 257.207 362.384 257.694V260.634H361.584V255.474H362.344V256.384C362.691 255.724 363.244 255.394 364.004 255.394Z" fill="#F6F6F6"/>
<path d="M368.373 258.394V255.474H369.173V260.634H368.413V259.864C368.019 260.457 367.479 260.754 366.793 260.754C366.219 260.754 365.773 260.597 365.453 260.284C365.133 259.971 364.973 259.531 364.973 258.964V255.474H365.773V258.884C365.773 259.651 366.166 260.034 366.953 260.034C367.326 260.034 367.656 259.894 367.943 259.614C368.229 259.334 368.373 258.927 368.373 258.394Z" fill="#F6F6F6"/>
<path d="M374.593 259.984H374.883V260.634C374.75 260.654 374.603 260.664 374.443 260.664C373.903 260.664 373.613 260.417 373.573 259.924C373.213 260.477 372.653 260.754 371.893 260.754C371.326 260.754 370.88 260.624 370.553 260.364C370.233 260.097 370.073 259.724 370.073 259.244C370.073 258.311 370.71 257.777 371.983 257.644L372.723 257.564C373.263 257.504 373.533 257.267 373.533 256.854C373.533 256.567 373.443 256.361 373.263 256.234C373.09 256.107 372.793 256.044 372.373 256.044C371.926 256.044 371.603 256.121 371.403 256.274C371.21 256.421 371.1 256.684 371.073 257.064H370.273C370.34 255.924 371.04 255.354 372.373 255.354C373.666 255.354 374.313 255.854 374.313 256.854V259.734C374.313 259.901 374.406 259.984 374.593 259.984ZM371.933 260.074C372.36 260.074 372.733 259.944 373.053 259.684C373.373 259.431 373.533 259.067 373.533 258.594V257.984C373.386 258.097 373.16 258.171 372.853 258.204L372.103 258.294C371.67 258.347 371.36 258.447 371.173 258.594C370.993 258.741 370.903 258.951 370.903 259.224C370.903 259.491 370.99 259.701 371.163 259.854C371.336 260.001 371.593 260.074 371.933 260.074Z" fill="#F6F6F6"/>
<path d="M376.339 260.634H375.539V253.514H376.339V260.634Z" fill="#F6F6F6"/>
<path d="M284.555 241.514H287.515C288.268 241.514 288.848 241.711 289.255 242.104C289.668 242.497 289.875 243.031 289.875 243.704C289.875 244.377 289.668 244.911 289.255 245.304C288.848 245.697 288.268 245.894 287.515 245.894H285.395V248.634H284.555V241.514ZM285.395 245.134H287.515C288.008 245.134 288.378 245.014 288.625 244.774C288.878 244.527 289.005 244.171 289.005 243.704C289.005 243.237 288.878 242.884 288.625 242.644C288.378 242.397 288.008 242.274 287.515 242.274H285.395V245.134Z" fill="#F6F6F6"/>
<path d="M294.463 248.014C293.99 248.507 293.39 248.754 292.663 248.754C291.936 248.754 291.336 248.507 290.863 248.014C290.396 247.527 290.163 246.874 290.163 246.054C290.163 245.234 290.396 244.581 290.863 244.094C291.336 243.601 291.936 243.354 292.663 243.354C293.39 243.354 293.99 243.601 294.463 244.094C294.93 244.581 295.163 245.234 295.163 246.054C295.163 246.874 294.93 247.527 294.463 248.014ZM291.453 247.504C291.753 247.857 292.156 248.034 292.663 248.034C293.17 248.034 293.573 247.857 293.873 247.504C294.173 247.157 294.323 246.674 294.323 246.054C294.323 245.427 294.173 244.941 293.873 244.594C293.573 244.247 293.17 244.074 292.663 244.074C292.156 244.074 291.753 244.247 291.453 244.594C291.153 244.941 291.003 245.427 291.003 246.054C291.003 246.674 291.153 247.157 291.453 247.504Z" fill="#F6F6F6"/>
<path d="M297.839 248.754C296.459 248.754 295.729 248.167 295.649 246.994H296.459C296.505 247.381 296.632 247.657 296.839 247.824C297.052 247.984 297.385 248.064 297.839 248.064C298.665 248.064 299.079 247.797 299.079 247.264C299.079 247.031 298.992 246.854 298.819 246.734C298.652 246.614 298.345 246.511 297.899 246.424L297.419 246.334C296.345 246.134 295.809 245.627 295.809 244.814C295.809 244.367 295.975 244.014 296.309 243.754C296.649 243.487 297.109 243.354 297.689 243.354C299.055 243.354 299.755 243.924 299.789 245.064H298.989C298.969 244.691 298.855 244.427 298.649 244.274C298.442 244.121 298.122 244.044 297.689 244.044C297.342 244.044 297.075 244.111 296.889 244.244C296.702 244.377 296.609 244.564 296.609 244.804C296.609 245.031 296.689 245.201 296.849 245.314C297.009 245.427 297.275 245.524 297.649 245.604L298.109 245.694C298.742 245.821 299.195 246.001 299.469 246.234C299.749 246.467 299.889 246.794 299.889 247.214C299.889 247.701 299.705 248.081 299.339 248.354C298.979 248.621 298.479 248.754 297.839 248.754Z" fill="#F6F6F6"/>
<path d="M302.849 243.474V244.174H301.789V247.524C301.789 247.817 301.986 247.964 302.379 247.964H302.849V248.634C302.629 248.654 302.439 248.664 302.279 248.664C301.419 248.664 300.989 248.307 300.989 247.594V244.174H300.139V243.474H300.989V242.014H301.789V243.474H302.849Z" fill="#F6F6F6"/>
<path d="M278.687 260.014C278.213 260.507 277.613 260.754 276.887 260.754C276.16 260.754 275.56 260.507 275.087 260.014C274.62 259.527 274.387 258.874 274.387 258.054C274.387 257.234 274.62 256.581 275.087 256.094C275.56 255.601 276.16 255.354 276.887 255.354C277.613 255.354 278.213 255.601 278.687 256.094C279.153 256.581 279.387 257.234 279.387 258.054C279.387 258.874 279.153 259.527 278.687 260.014ZM275.677 259.504C275.977 259.857 276.38 260.034 276.887 260.034C277.393 260.034 277.797 259.857 278.097 259.504C278.397 259.157 278.547 258.674 278.547 258.054C278.547 257.427 278.397 256.941 278.097 256.594C277.797 256.247 277.393 256.074 276.887 256.074C276.38 256.074 275.977 256.247 275.677 256.594C275.377 256.941 275.227 257.427 275.227 258.054C275.227 258.674 275.377 259.157 275.677 259.504Z" fill="#F6F6F6"/>
<path d="M282.667 257.764L283.517 255.474H284.377L282.347 260.634H281.507L279.487 255.474H280.357L281.207 257.774C281.627 258.901 281.87 259.567 281.937 259.774C282.057 259.421 282.3 258.751 282.667 257.764Z" fill="#F6F6F6"/>
<path d="M288.33 258.394V255.474H289.13V260.634H288.37V259.864C287.976 260.457 287.436 260.754 286.75 260.754C286.176 260.754 285.73 260.597 285.41 260.284C285.09 259.971 284.93 259.531 284.93 258.964V255.474H285.73V258.884C285.73 259.651 286.123 260.034 286.91 260.034C287.283 260.034 287.613 259.894 287.9 259.614C288.186 259.334 288.33 258.927 288.33 258.394Z" fill="#F6F6F6"/>
<path d="M291.13 260.634H290.33V253.514H291.13V260.634Z" fill="#F6F6F6"/>
<path d="M296.552 259.984H296.842V260.634C296.709 260.654 296.562 260.664 296.402 260.664C295.862 260.664 295.572 260.417 295.532 259.924C295.172 260.477 294.612 260.754 293.852 260.754C293.285 260.754 292.839 260.624 292.512 260.364C292.192 260.097 292.032 259.724 292.032 259.244C292.032 258.311 292.669 257.777 293.942 257.644L294.682 257.564C295.222 257.504 295.492 257.267 295.492 256.854C295.492 256.567 295.402 256.361 295.222 256.234C295.049 256.107 294.752 256.044 294.332 256.044C293.885 256.044 293.562 256.121 293.362 256.274C293.169 256.421 293.059 256.684 293.032 257.064H292.232C292.299 255.924 292.999 255.354 294.332 255.354C295.625 255.354 296.272 255.854 296.272 256.854V259.734C296.272 259.901 296.365 259.984 296.552 259.984ZM293.892 260.074C294.319 260.074 294.692 259.944 295.012 259.684C295.332 259.431 295.492 259.067 295.492 258.594V257.984C295.345 258.097 295.119 258.171 294.812 258.204L294.062 258.294C293.629 258.347 293.319 258.447 293.132 258.594C292.952 258.741 292.862 258.951 292.862 259.224C292.862 259.491 292.949 259.701 293.122 259.854C293.295 260.001 293.552 260.074 293.892 260.074Z" fill="#F6F6F6"/>
<path d="M299.612 255.474V256.174H298.552V259.524C298.552 259.817 298.748 259.964 299.142 259.964H299.612V260.634C299.392 260.654 299.202 260.664 299.042 260.664C298.182 260.664 297.752 260.307 297.752 259.594V256.174H296.902V255.474H297.752V254.014H298.552V255.474H299.612Z" fill="#F6F6F6"/>
<path d="M301.277 254.694H300.427V253.714H301.277V254.694ZM301.257 260.634H300.457V255.474H301.257V260.634Z" fill="#F6F6F6"/>
<path d="M306.509 260.014C306.036 260.507 305.436 260.754 304.709 260.754C303.982 260.754 303.382 260.507 302.909 260.014C302.442 259.527 302.209 258.874 302.209 258.054C302.209 257.234 302.442 256.581 302.909 256.094C303.382 255.601 303.982 255.354 304.709 255.354C305.436 255.354 306.036 255.601 306.509 256.094C306.976 256.581 307.209 257.234 307.209 258.054C307.209 258.874 306.976 259.527 306.509 260.014ZM303.499 259.504C303.799 259.857 304.202 260.034 304.709 260.034C305.216 260.034 305.619 259.857 305.919 259.504C306.219 259.157 306.369 258.674 306.369 258.054C306.369 257.427 306.219 256.941 305.919 256.594C305.619 256.247 305.216 256.074 304.709 256.074C304.202 256.074 303.799 256.247 303.499 256.594C303.199 256.941 303.049 257.427 303.049 258.054C303.049 258.674 303.199 259.157 303.499 259.504Z" fill="#F6F6F6"/>
<path d="M310.542 255.354C311.115 255.354 311.562 255.511 311.882 255.824C312.202 256.137 312.362 256.577 312.362 257.144V260.634H311.562V257.224C311.562 256.457 311.169 256.074 310.382 256.074C310.009 256.074 309.679 256.214 309.392 256.494C309.105 256.774 308.962 257.181 308.962 257.714V260.634H308.162V255.474H308.922V256.244C309.315 255.651 309.855 255.354 310.542 255.354Z" fill="#F6F6F6"/>
<circle cx="200" cy="280.634" r="6" fill="#CCFD56"/>
<circle cx="325" cy="440.634" r="6" fill="#CCFD56"/>
<circle cx="132" cy="313.634" r="6" fill="#CCFD56"/>
<path d="M367.69 491.23H372.828V492.826H365.576L365.618 492.084C365.655 491.319 365.814 490.633 366.094 490.026C366.44 489.27 367.154 488.645 368.236 488.15L369.216 487.646C369.795 487.366 370.206 487.081 370.448 486.792C370.691 486.503 370.812 486.143 370.812 485.714C370.812 485.257 370.668 484.897 370.378 484.636C370.089 484.365 369.687 484.23 369.174 484.23C368.026 484.23 367.452 484.837 367.452 486.05H365.632C365.623 484.977 365.926 484.141 366.542 483.544C367.168 482.937 368.063 482.634 369.23 482.634C370.303 482.634 371.153 482.905 371.778 483.446C372.404 483.987 372.716 484.697 372.716 485.574C372.716 486.33 372.506 486.974 372.086 487.506C371.666 488.029 370.999 488.519 370.084 488.976L369.16 489.466C368.638 489.746 368.269 490.012 368.054 490.264C367.849 490.507 367.728 490.829 367.69 491.23Z" fill="#F6F6F6"/>
<path d="M379.687 487.534C380.845 487.982 381.423 488.803 381.423 489.998C381.423 490.931 381.073 491.669 380.373 492.21C379.664 492.77 378.712 493.05 377.517 493.05C376.323 493.05 375.375 492.77 374.675 492.21C373.975 491.669 373.625 490.931 373.625 489.998C373.625 488.822 374.199 488.001 375.347 487.534C374.47 487.077 374.031 486.363 374.031 485.392C374.031 484.543 374.353 483.871 374.997 483.376C375.651 482.881 376.491 482.634 377.517 482.634C378.544 482.634 379.384 482.881 380.037 483.376C380.681 483.871 381.003 484.543 381.003 485.392C381.003 486.363 380.565 487.077 379.687 487.534ZM379.281 485.504C379.281 485.047 379.123 484.692 378.805 484.44C378.488 484.188 378.059 484.062 377.517 484.062C376.995 484.062 376.57 484.188 376.243 484.44C375.917 484.692 375.753 485.047 375.753 485.504C375.753 485.943 375.912 486.288 376.229 486.54C376.547 486.792 376.976 486.918 377.517 486.918C378.059 486.918 378.488 486.792 378.805 486.54C379.123 486.288 379.281 485.943 379.281 485.504ZM377.517 491.538C378.161 491.538 378.656 491.393 379.001 491.104C379.356 490.815 379.533 490.409 379.533 489.886C379.533 489.354 379.356 488.943 379.001 488.654C378.647 488.365 378.152 488.22 377.517 488.22C376.883 488.22 376.388 488.365 376.033 488.654C375.679 488.943 375.501 489.354 375.501 489.886C375.501 490.409 375.679 490.815 376.033 491.104C376.388 491.393 376.883 491.538 377.517 491.538Z" fill="#F6F6F6"/>
<path d="M290.44 491.23H295.578V492.826H288.326L288.368 492.084C288.406 491.319 288.564 490.633 288.844 490.026C289.19 489.27 289.904 488.645 290.986 488.15L291.966 487.646C292.545 487.366 292.955 487.081 293.198 486.792C293.441 486.503 293.562 486.143 293.562 485.714C293.562 485.257 293.418 484.897 293.128 484.636C292.839 484.365 292.438 484.23 291.924 484.23C290.776 484.23 290.202 484.837 290.202 486.05H288.382C288.373 484.977 288.676 484.141 289.292 483.544C289.918 482.937 290.814 482.634 291.98 482.634C293.054 482.634 293.903 482.905 294.528 483.446C295.154 483.987 295.466 484.697 295.466 485.574C295.466 486.33 295.256 486.974 294.836 487.506C294.416 488.029 293.749 488.519 292.834 488.976L291.91 489.466C291.388 489.746 291.019 490.012 290.804 490.264C290.599 490.507 290.478 490.829 290.44 491.23Z" fill="#F6F6F6"/>
<path d="M298.698 491.23H303.836V492.826H296.584L296.626 492.084C296.663 491.319 296.822 490.633 297.102 490.026C297.447 489.27 298.161 488.645 299.244 488.15L300.224 487.646C300.803 487.366 301.213 487.081 301.456 486.792C301.699 486.503 301.82 486.143 301.82 485.714C301.82 485.257 301.675 484.897 301.386 484.636C301.097 484.365 300.695 484.23 300.182 484.23C299.034 484.23 298.46 484.837 298.46 486.05H296.64C296.631 484.977 296.934 484.141 297.55 483.544C298.175 482.937 299.071 482.634 300.238 482.634C301.311 482.634 302.161 482.905 302.786 483.446C303.411 483.987 303.724 484.697 303.724 485.574C303.724 486.33 303.514 486.974 303.094 487.506C302.674 488.029 302.007 488.519 301.092 488.976L300.168 489.466C299.645 489.746 299.277 490.012 299.062 490.264C298.857 490.507 298.735 490.829 298.698 491.23Z" fill="#F6F6F6"/>
<path d="M215.708 482.858H217.206V492.826H215.316V486.106H213.02V484.776L213.244 484.762C213.972 484.715 214.528 484.552 214.91 484.272C215.302 483.983 215.568 483.511 215.708 482.858Z" fill="#F6F6F6"/>
<path d="M222.856 486.274C223.911 486.274 224.742 486.591 225.348 487.226C225.946 487.861 226.244 488.649 226.244 489.592C226.244 490.637 225.904 491.473 225.222 492.098C224.532 492.733 223.64 493.05 222.548 493.05C221.615 493.05 220.826 492.812 220.182 492.336C219.128 491.533 218.6 490.082 218.6 487.982C218.6 486.265 218.941 484.944 219.622 484.02C220.304 483.096 221.288 482.634 222.576 482.634C223.538 482.634 224.331 482.881 224.956 483.376C225.582 483.861 225.964 484.538 226.104 485.406H224.326C224.149 484.529 223.57 484.09 222.59 484.09C221.862 484.09 221.316 484.365 220.952 484.916C220.598 485.467 220.402 486.335 220.364 487.52C220.924 486.689 221.755 486.274 222.856 486.274ZM220.658 489.62C220.658 490.18 220.836 490.637 221.19 490.992C221.545 491.347 221.998 491.524 222.548 491.524C223.099 491.524 223.552 491.347 223.906 490.992C224.242 490.647 224.41 490.189 224.41 489.62C224.41 489.06 224.238 488.603 223.892 488.248C223.547 487.893 223.099 487.716 222.548 487.716C221.988 487.716 221.531 487.893 221.176 488.248C220.831 488.603 220.658 489.06 220.658 489.62Z" fill="#F6F6F6"/>
<path d="M149.734 487.534C150.892 487.982 151.47 488.803 151.47 489.998C151.47 490.931 151.12 491.669 150.42 492.21C149.711 492.77 148.759 493.05 147.564 493.05C146.37 493.05 145.422 492.77 144.722 492.21C144.022 491.669 143.672 490.931 143.672 489.998C143.672 488.822 144.246 488.001 145.394 487.534C144.517 487.077 144.078 486.363 144.078 485.392C144.078 484.543 144.4 483.871 145.044 483.376C145.698 482.881 146.538 482.634 147.564 482.634C148.591 482.634 149.431 482.881 150.084 483.376C150.728 483.871 151.05 484.543 151.05 485.392C151.05 486.363 150.612 487.077 149.734 487.534ZM149.328 485.504C149.328 485.047 149.17 484.692 148.852 484.44C148.535 484.188 148.106 484.062 147.564 484.062C147.042 484.062 146.617 484.188 146.29 484.44C145.964 484.692 145.8 485.047 145.8 485.504C145.8 485.943 145.959 486.288 146.276 486.54C146.594 486.792 147.023 486.918 147.564 486.918C148.106 486.918 148.535 486.792 148.852 486.54C149.17 486.288 149.328 485.943 149.328 485.504ZM147.564 491.538C148.208 491.538 148.703 491.393 149.048 491.104C149.403 490.815 149.58 490.409 149.58 489.886C149.58 489.354 149.403 488.943 149.048 488.654C148.694 488.365 148.199 488.22 147.564 488.22C146.93 488.22 146.435 488.365 146.08 488.654C145.726 488.943 145.548 489.354 145.548 489.886C145.548 490.409 145.726 490.815 146.08 491.104C146.435 491.393 146.93 491.538 147.564 491.538Z" fill="#F6F6F6"/>
<path d="M76.6902 491.23H81.8282V492.826H74.5762L74.6182 492.084C74.6555 491.319 74.8142 490.633 75.0942 490.026C75.4395 489.27 76.1535 488.645 77.2362 488.15L78.2162 487.646C78.7948 487.366 79.2055 487.081 79.4482 486.792C79.6908 486.503 79.8122 486.143 79.8122 485.714C79.8122 485.257 79.6675 484.897 79.3782 484.636C79.0888 484.365 78.6875 484.23 78.1742 484.23C77.0262 484.23 76.4522 484.837 76.4522 486.05H74.6322C74.6228 484.977 74.9262 484.141 75.5422 483.544C76.1675 482.937 77.0635 482.634 78.2302 482.634C79.3035 482.634 80.1528 482.905 80.7782 483.446C81.4035 483.987 81.7162 484.697 81.7162 485.574C81.7162 486.33 81.5062 486.974 81.0862 487.506C80.6662 488.029 79.9988 488.519 79.0842 488.976L78.1602 489.466C77.6375 489.746 77.2688 490.012 77.0542 490.264C76.8488 490.507 76.7275 490.829 76.6902 491.23Z" fill="#F6F6F6"/>
<path d="M166.1 508.274H169.908C171.504 508.274 172.736 508.717 173.604 509.604C174.472 510.5 174.906 511.718 174.906 513.258C174.906 514.798 174.472 516.011 173.604 516.898C172.736 517.794 171.504 518.242 169.908 518.242H166.1V508.274ZM167.99 516.618H169.88C170.86 516.618 171.616 516.333 172.148 515.764C172.68 515.185 172.946 514.35 172.946 513.258C172.946 512.166 172.68 511.335 172.148 510.766C171.616 510.187 170.86 509.898 169.88 509.898H167.99V516.618Z" fill="#F6F6F6"/>
<path d="M182.41 518.242H180.646C180.562 518.093 180.496 517.799 180.45 517.36C179.964 518.06 179.19 518.41 178.126 518.41C177.332 518.41 176.698 518.219 176.222 517.836C175.755 517.453 175.522 516.921 175.522 516.24C175.522 514.924 176.446 514.173 178.294 513.986L179.386 513.888C179.75 513.841 180.011 513.757 180.17 513.636C180.328 513.505 180.408 513.314 180.408 513.062C180.408 512.754 180.305 512.53 180.1 512.39C179.904 512.241 179.568 512.166 179.092 512.166C178.578 512.166 178.21 512.255 177.986 512.432C177.762 512.6 177.631 512.894 177.594 513.314H175.858C175.96 511.671 177.043 510.85 179.106 510.85C181.112 510.85 182.116 511.573 182.116 513.02V516.87C182.116 517.505 182.214 517.962 182.41 518.242ZM178.546 517.15C179.096 517.15 179.544 517.001 179.89 516.702C180.235 516.394 180.408 515.955 180.408 515.386V514.728C180.24 514.877 179.964 514.975 179.582 515.022L178.63 515.134C178.163 515.19 177.827 515.302 177.622 515.47C177.426 515.629 177.328 515.862 177.328 516.17C177.328 516.478 177.43 516.721 177.636 516.898C177.85 517.066 178.154 517.15 178.546 517.15Z" fill="#F6F6F6"/>
<path d="M187.235 512.838L187.823 511.018H189.671L186.885 518.83C186.586 519.651 186.213 520.216 185.765 520.524C185.308 520.841 184.645 521 183.777 521C183.488 521 183.231 520.986 183.007 520.958V519.572H183.679C184.062 519.572 184.356 519.465 184.561 519.25C184.766 519.035 184.869 518.755 184.869 518.41C184.869 518.065 184.757 517.579 184.533 516.954L182.433 511.018H184.337L184.925 512.824C185.336 514.112 185.718 515.456 186.073 516.856C186.353 515.801 186.74 514.462 187.235 512.838Z" fill="#F6F6F6"/>
<path d="M200.469 514.63C200.469 515.769 200.133 516.683 199.461 517.374C198.789 518.065 197.902 518.41 196.801 518.41C195.7 518.41 194.813 518.065 194.141 517.374C193.46 516.693 193.119 515.778 193.119 514.63C193.119 513.482 193.46 512.567 194.141 511.886C194.813 511.195 195.7 510.85 196.801 510.85C197.902 510.85 198.789 511.191 199.461 511.872C200.133 512.553 200.469 513.473 200.469 514.63ZM195.415 516.352C195.751 516.753 196.213 516.954 196.801 516.954C197.389 516.954 197.846 516.753 198.173 516.352C198.509 515.941 198.677 515.367 198.677 514.63C198.677 513.893 198.509 513.323 198.173 512.922C197.846 512.511 197.389 512.306 196.801 512.306C196.213 512.306 195.751 512.507 195.415 512.908C195.088 513.309 194.925 513.883 194.925 514.63C194.925 515.377 195.088 515.951 195.415 516.352Z" fill="#F6F6F6"/>
<path d="M205.166 509.632H204.55C203.944 509.632 203.64 509.921 203.64 510.5V511.018H205.124V512.362H203.64V518.242H201.89V512.362H200.77V511.018H201.89V510.472C201.89 509.772 202.086 509.226 202.478 508.834C202.87 508.433 203.463 508.232 204.256 508.232C204.611 508.232 204.914 508.246 205.166 508.274V509.632Z" fill="#F6F6F6"/>
<path d="M213.713 518.466C212.275 518.466 211.113 517.995 210.227 517.052C209.331 516.109 208.883 514.845 208.883 513.258C208.883 511.662 209.326 510.393 210.213 509.45C211.09 508.517 212.257 508.05 213.713 508.05C214.879 508.05 215.873 508.363 216.695 508.988C217.516 509.613 218.029 510.519 218.235 511.704H216.317C216.149 511.051 215.836 510.556 215.379 510.22C214.931 509.875 214.375 509.702 213.713 509.702C212.826 509.702 212.126 510.019 211.613 510.654C211.109 511.279 210.857 512.147 210.857 513.258C210.857 514.378 211.109 515.251 211.613 515.876C212.117 516.501 212.817 516.814 213.713 516.814C214.403 516.814 214.996 516.609 215.491 516.198C215.985 515.787 216.284 515.218 216.387 514.49H218.277C218.155 515.759 217.661 516.739 216.793 517.43C215.934 518.121 214.907 518.466 213.713 518.466Z" fill="#F6F6F6"/>
<path d="M223.479 512.838L224.067 511.018H225.915L223.129 518.83C222.831 519.651 222.457 520.216 222.009 520.524C221.552 520.841 220.889 521 220.021 521C219.732 521 219.475 520.986 219.251 520.958V519.572H219.923C220.306 519.572 220.6 519.465 220.805 519.25C221.011 519.035 221.113 518.755 221.113 518.41C221.113 518.065 221.001 517.579 220.777 516.954L218.677 511.018H220.581L221.169 512.824C221.58 514.112 221.963 515.456 222.317 516.856C222.597 515.801 222.985 514.462 223.479 512.838Z" fill="#F6F6F6"/>
<path d="M229.543 518.41C228.479 518.41 227.615 518.065 226.953 517.374C226.299 516.693 225.973 515.778 225.973 514.63C225.973 513.473 226.299 512.553 226.953 511.872C227.597 511.191 228.46 510.85 229.543 510.85C230.485 510.85 231.255 511.102 231.853 511.606C232.45 512.101 232.8 512.773 232.903 513.622H231.139C231.055 513.202 230.873 512.88 230.593 512.656C230.313 512.432 229.963 512.32 229.543 512.32C228.992 512.32 228.558 512.521 228.241 512.922C227.933 513.314 227.779 513.883 227.779 514.63C227.779 515.377 227.937 515.951 228.255 516.352C228.572 516.744 229.001 516.94 229.543 516.94C229.972 516.94 230.331 516.823 230.621 516.59C230.919 516.347 231.101 516.002 231.167 515.554H232.931C232.837 516.422 232.483 517.117 231.867 517.64C231.251 518.153 230.476 518.41 229.543 518.41Z" fill="#F6F6F6"/>
<path d="M235.66 518.242H233.896V508.274H235.66V518.242Z" fill="#F6F6F6"/>
<path d="M243.9 514.756V515.176H238.496C238.561 515.792 238.752 516.259 239.07 516.576C239.396 516.884 239.83 517.038 240.372 517.038C241.174 517.038 241.725 516.693 242.024 516.002H243.718C243.531 516.739 243.139 517.327 242.542 517.766C241.944 518.195 241.216 518.41 240.358 518.41C239.284 518.41 238.416 518.065 237.754 517.374C237.091 516.683 236.76 515.769 236.76 514.63C236.76 513.491 237.086 512.577 237.74 511.886C238.402 511.195 239.266 510.85 240.33 510.85C241.422 510.85 242.29 511.209 242.934 511.928C243.578 512.647 243.9 513.589 243.9 514.756ZM240.316 512.222C239.28 512.222 238.678 512.796 238.51 513.944H242.136C242.061 513.412 241.865 512.992 241.548 512.684C241.23 512.376 240.82 512.222 240.316 512.222Z" fill="#F6F6F6"/>
<path d="M35.07 553.534L37.296 548.032H38.836V558H37.688V554.808C37.688 552.708 37.702 551.014 37.73 549.726C37.506 550.342 37.212 551.098 36.848 551.994L34.384 558H33.376L30.898 551.994C30.534 551.098 30.24 550.342 30.016 549.726C30.044 551.014 30.058 552.708 30.058 554.808V558H28.91V548.032H30.45L32.76 553.702C33.1053 554.551 33.4833 555.508 33.894 556.572C34.4633 555.06 34.8553 554.047 35.07 553.534ZM46.8841 554.388V554.78H41.3961C41.4521 555.564 41.6715 556.157 42.0541 556.558C42.4368 556.95 42.9595 557.146 43.6221 557.146C44.6208 557.146 45.2601 556.698 45.5401 555.802H46.7021C46.5061 556.53 46.1421 557.109 45.6101 557.538C45.0781 557.958 44.4061 558.168 43.5941 558.168C42.5955 558.168 41.7881 557.827 41.1721 557.146C40.5468 556.465 40.2341 555.545 40.2341 554.388C40.2341 553.249 40.5421 552.335 41.1581 551.644C41.7648 550.953 42.5675 550.608 43.5661 550.608C44.6021 550.608 45.4141 550.967 46.0021 551.686C46.5901 552.405 46.8841 553.305 46.8841 554.388ZM43.5661 551.63C42.9781 551.63 42.4975 551.817 42.1241 552.19C41.7508 552.554 41.5175 553.081 41.4241 553.772H45.6801C45.6241 553.137 45.4095 552.624 45.0361 552.232C44.6628 551.831 44.1728 551.63 43.5661 551.63ZM50.9532 550.776V551.756H49.4692V556.446C49.4692 556.857 49.7446 557.062 50.2952 557.062H50.9532V558C50.6452 558.028 50.3792 558.042 50.1552 558.042C48.9512 558.042 48.3492 557.543 48.3492 556.544V551.756H47.1592V550.776H48.3492V548.732H49.4692V550.776H50.9532ZM57.9765 557.09H58.3825V558C58.1958 558.028 57.9905 558.042 57.7665 558.042C57.0105 558.042 56.6045 557.697 56.5485 557.006C56.0445 557.781 55.2605 558.168 54.1965 558.168C53.4032 558.168 52.7778 557.986 52.3205 557.622C51.8725 557.249 51.6485 556.726 51.6485 556.054C51.6485 554.747 52.5398 554.001 54.3225 553.814L55.3585 553.702C56.1145 553.618 56.4925 553.287 56.4925 552.708C56.4925 552.307 56.3665 552.017 56.1145 551.84C55.8718 551.663 55.4565 551.574 54.8685 551.574C54.2432 551.574 53.7905 551.681 53.5105 551.896C53.2398 552.101 53.0858 552.47 53.0485 553.002H51.9285C52.0218 551.406 53.0018 550.608 54.8685 550.608C56.6792 550.608 57.5845 551.308 57.5845 552.708V556.74C57.5845 556.973 57.7152 557.09 57.9765 557.09ZM54.2525 557.216C54.8498 557.216 55.3725 557.034 55.8205 556.67C56.2685 556.315 56.4925 555.807 56.4925 555.144V554.29C56.2872 554.449 55.9698 554.551 55.5405 554.598L54.4905 554.724C53.8838 554.799 53.4498 554.939 53.1885 555.144C52.9365 555.349 52.8105 555.643 52.8105 556.026C52.8105 556.399 52.9318 556.693 53.1745 556.908C53.4172 557.113 53.7765 557.216 54.2525 557.216ZM62.8429 550.608C63.8603 550.608 64.6769 550.949 65.2929 551.63C65.8996 552.321 66.2029 553.24 66.2029 554.388C66.2029 555.527 65.8996 556.441 65.2929 557.132C64.6769 557.823 63.8603 558.168 62.8429 558.168C61.7696 558.168 60.9436 557.739 60.3649 556.88V558H59.3009V548.032H60.4209V551.812C60.9996 551.009 61.8069 550.608 62.8429 550.608ZM62.7029 557.16C63.4029 557.16 63.9629 556.908 64.3829 556.404C64.8123 555.891 65.0269 555.2 65.0269 554.332C65.0269 553.483 64.8169 552.82 64.3969 552.344C63.9863 551.859 63.4216 551.616 62.7029 551.616C61.9936 551.616 61.4289 551.859 61.0089 552.344C60.5889 552.829 60.3789 553.511 60.3789 554.388C60.3789 555.256 60.5889 555.933 61.0089 556.418C61.4289 556.913 61.9936 557.16 62.7029 557.16ZM73.2014 557.132C72.5387 557.823 71.6987 558.168 70.6814 558.168C69.6641 558.168 68.8241 557.823 68.1614 557.132C67.5081 556.451 67.1814 555.536 67.1814 554.388C67.1814 553.24 67.5081 552.325 68.1614 551.644C68.8241 550.953 69.6641 550.608 70.6814 550.608C71.6987 550.608 72.5387 550.953 73.2014 551.644C73.8547 552.325 74.1814 553.24 74.1814 554.388C74.1814 555.536 73.8547 556.451 73.2014 557.132ZM68.9874 556.418C69.4074 556.913 69.9721 557.16 70.6814 557.16C71.3907 557.16 71.9554 556.913 72.3754 556.418C72.7954 555.933 73.0054 555.256 73.0054 554.388C73.0054 553.511 72.7954 552.829 72.3754 552.344C71.9554 551.859 71.3907 551.616 70.6814 551.616C69.9721 551.616 69.4074 551.859 68.9874 552.344C68.5674 552.829 68.3574 553.511 68.3574 554.388C68.3574 555.256 68.5674 555.933 68.9874 556.418ZM76.6358 558H75.5158V548.032H76.6358V558ZM79.4665 549.684H78.2765V548.312H79.4665V549.684ZM79.4385 558H78.3185V550.776H79.4385V558ZM84.1173 558.168C83.1186 558.168 82.3113 557.823 81.6953 557.132C81.0793 556.441 80.7713 555.527 80.7713 554.388C80.7713 553.231 81.0793 552.311 81.6953 551.63C82.2926 550.949 83.0999 550.608 84.1173 550.608C84.9759 550.608 85.6806 550.841 86.2313 551.308C86.7819 551.775 87.1133 552.414 87.2253 553.226H86.0633C85.9793 552.713 85.7553 552.316 85.3913 552.036C85.0366 551.756 84.6119 551.616 84.1173 551.616C83.4546 551.616 82.9273 551.859 82.5353 552.344C82.1433 552.82 81.9473 553.501 81.9473 554.388C81.9473 555.265 82.1433 555.947 82.5353 556.432C82.9366 556.917 83.4639 557.16 84.1173 557.16C84.6119 557.16 85.0413 557.015 85.4053 556.726C85.7693 556.437 85.9933 556.035 86.0773 555.522H87.2253C87.1039 556.334 86.7586 556.978 86.1893 557.454C85.6293 557.93 84.9386 558.168 84.1173 558.168ZM94.378 548.984H93.734C93.09 548.984 92.768 549.325 92.768 550.006V550.776H94.308V551.756H92.768V558H91.648V551.756H90.458V550.776H91.648V550.034C91.648 548.681 92.32 548.004 93.664 548.004C93.8414 548.004 94.0794 548.013 94.378 548.032V548.984ZM100.127 554.864V550.776H101.247V558H100.183V556.922C99.6327 557.753 98.8767 558.168 97.9153 558.168C97.1127 558.168 96.4873 557.949 96.0393 557.51C95.5913 557.071 95.3673 556.455 95.3673 555.662V550.776H96.4873V555.55C96.4873 556.623 97.038 557.16 98.1393 557.16C98.662 557.16 99.124 556.964 99.5253 556.572C99.9267 556.18 100.127 555.611 100.127 554.864ZM109.228 554.388V554.78H103.74C103.796 555.564 104.015 556.157 104.398 556.558C104.781 556.95 105.303 557.146 105.966 557.146C106.965 557.146 107.604 556.698 107.884 555.802H109.046C108.85 556.53 108.486 557.109 107.954 557.538C107.422 557.958 106.75 558.168 105.938 558.168C104.939 558.168 104.132 557.827 103.516 557.146C102.891 556.465 102.578 555.545 102.578 554.388C102.578 553.249 102.886 552.335 103.502 551.644C104.109 550.953 104.911 550.608 105.91 550.608C106.946 550.608 107.758 550.967 108.346 551.686C108.934 552.405 109.228 553.305 109.228 554.388ZM105.91 551.63C105.322 551.63 104.841 551.817 104.468 552.19C104.095 552.554 103.861 553.081 103.768 553.772H108.024C107.968 553.137 107.753 552.624 107.38 552.232C107.007 551.831 106.517 551.63 105.91 551.63ZM111.677 558H110.557V548.032H111.677V558ZM120.786 554.864V550.776H121.906V558H120.842V556.922C120.291 557.753 119.535 558.168 118.574 558.168C117.771 558.168 117.146 557.949 116.698 557.51C116.25 557.071 116.026 556.455 116.026 555.662V550.776H117.146V555.55C117.146 556.623 117.696 557.16 118.798 557.16C119.32 557.16 119.782 556.964 120.184 556.572C120.585 556.18 120.786 555.611 120.786 554.864ZM126.134 558.168C124.202 558.168 123.18 557.347 123.068 555.704H124.202C124.267 556.245 124.445 556.633 124.734 556.866C125.033 557.09 125.499 557.202 126.134 557.202C127.291 557.202 127.87 556.829 127.87 556.082C127.87 555.755 127.749 555.508 127.506 555.34C127.273 555.172 126.843 555.027 126.218 554.906L125.546 554.78C124.043 554.5 123.292 553.791 123.292 552.652C123.292 552.027 123.525 551.532 123.992 551.168C124.468 550.795 125.112 550.608 125.924 550.608C127.837 550.608 128.817 551.406 128.864 553.002H127.744C127.716 552.479 127.557 552.111 127.268 551.896C126.979 551.681 126.531 551.574 125.924 551.574C125.439 551.574 125.065 551.667 124.804 551.854C124.543 552.041 124.412 552.302 124.412 552.638C124.412 552.955 124.524 553.193 124.748 553.352C124.972 553.511 125.345 553.646 125.868 553.758L126.512 553.884C127.399 554.061 128.033 554.313 128.416 554.64C128.808 554.967 129.004 555.424 129.004 556.012C129.004 556.693 128.747 557.225 128.234 557.608C127.73 557.981 127.03 558.168 126.134 558.168ZM136.234 557.09H136.64V558C136.454 558.028 136.248 558.042 136.024 558.042C135.268 558.042 134.862 557.697 134.806 557.006C134.302 557.781 133.518 558.168 132.454 558.168C131.661 558.168 131.036 557.986 130.578 557.622C130.13 557.249 129.906 556.726 129.906 556.054C129.906 554.747 130.798 554.001 132.58 553.814L133.616 553.702C134.372 553.618 134.75 553.287 134.75 552.708C134.75 552.307 134.624 552.017 134.372 551.84C134.13 551.663 133.714 551.574 133.126 551.574C132.501 551.574 132.048 551.681 131.768 551.896C131.498 552.101 131.344 552.47 131.306 553.002H130.186C130.28 551.406 131.26 550.608 133.126 550.608C134.937 550.608 135.842 551.308 135.842 552.708V556.74C135.842 556.973 135.973 557.09 136.234 557.09ZM132.51 557.216C133.108 557.216 133.63 557.034 134.078 556.67C134.526 556.315 134.75 555.807 134.75 555.144V554.29C134.545 554.449 134.228 554.551 133.798 554.598L132.748 554.724C132.142 554.799 131.708 554.939 131.446 555.144C131.194 555.349 131.068 555.643 131.068 556.026C131.068 556.399 131.19 556.693 131.432 556.908C131.675 557.113 132.034 557.216 132.51 557.216ZM142.978 551.826V550.776H144.042V557.72C144.042 558.709 143.753 559.489 143.174 560.058C142.596 560.627 141.765 560.912 140.682 560.912C139.786 560.912 139.068 560.707 138.526 560.296C137.985 559.885 137.677 559.316 137.602 558.588H138.722C138.862 559.503 139.516 559.96 140.682 559.96C142.176 559.96 142.922 559.213 142.922 557.72V557.02C142.353 557.785 141.546 558.168 140.5 558.168C139.483 558.168 138.671 557.823 138.064 557.132C137.448 556.441 137.14 555.527 137.14 554.388C137.14 553.231 137.448 552.311 138.064 551.63C138.662 550.949 139.474 550.608 140.5 550.608C141.574 550.608 142.4 551.014 142.978 551.826ZM140.64 557.16C141.35 557.16 141.914 556.913 142.334 556.418C142.754 555.923 142.964 555.247 142.964 554.388C142.964 553.529 142.754 552.853 142.334 552.358C141.914 551.863 141.35 551.616 140.64 551.616C139.94 551.616 139.376 551.868 138.946 552.372C138.526 552.876 138.316 553.548 138.316 554.388C138.316 555.228 138.526 555.9 138.946 556.404C139.376 556.908 139.94 557.16 140.64 557.16ZM152.021 554.388V554.78H146.533C146.589 555.564 146.808 556.157 147.191 556.558C147.574 556.95 148.096 557.146 148.759 557.146C149.758 557.146 150.397 556.698 150.677 555.802H151.839C151.643 556.53 151.279 557.109 150.747 557.538C150.215 557.958 149.543 558.168 148.731 558.168C147.732 558.168 146.925 557.827 146.309 557.146C145.684 556.465 145.371 555.545 145.371 554.388C145.371 553.249 145.679 552.335 146.295 551.644C146.902 550.953 147.704 550.608 148.703 550.608C149.739 550.608 150.551 550.967 151.139 551.686C151.727 552.405 152.021 553.305 152.021 554.388ZM148.703 551.63C148.115 551.63 147.634 551.817 147.261 552.19C146.888 552.554 146.654 553.081 146.561 553.772H150.817C150.761 553.137 150.546 552.624 150.173 552.232C149.8 551.831 149.31 551.63 148.703 551.63ZM157.164 549.684H155.974V548.312H157.164V549.684ZM157.136 558H156.016V550.776H157.136V558ZM161.367 558.168C159.435 558.168 158.413 557.347 158.301 555.704H159.435C159.5 556.245 159.677 556.633 159.967 556.866C160.265 557.09 160.732 557.202 161.367 557.202C162.524 557.202 163.103 556.829 163.103 556.082C163.103 555.755 162.981 555.508 162.739 555.34C162.505 555.172 162.076 555.027 161.451 554.906L160.779 554.78C159.276 554.5 158.525 553.791 158.525 552.652C158.525 552.027 158.758 551.532 159.225 551.168C159.701 550.795 160.345 550.608 161.157 550.608C163.07 550.608 164.05 551.406 164.097 553.002H162.977C162.949 552.479 162.79 552.111 162.501 551.896C162.211 551.681 161.763 551.574 161.157 551.574C160.671 551.574 160.298 551.667 160.037 551.854C159.775 552.041 159.645 552.302 159.645 552.638C159.645 552.955 159.757 553.193 159.981 553.352C160.205 553.511 160.578 553.646 161.101 553.758L161.745 553.884C162.631 554.061 163.266 554.313 163.649 554.64C164.041 554.967 164.237 555.424 164.237 556.012C164.237 556.693 163.98 557.225 163.467 557.608C162.963 557.981 162.263 558.168 161.367 558.168ZM169.14 558H168.02V548.032H169.14V558ZM171.97 549.684H170.78V548.312H171.97V549.684ZM171.942 558H170.822V550.776H171.942V558ZM176.957 550.608C177.76 550.608 178.385 550.827 178.833 551.266C179.281 551.705 179.505 552.321 179.505 553.114V558H178.385V553.226C178.385 552.153 177.834 551.616 176.733 551.616C176.21 551.616 175.748 551.812 175.347 552.204C174.946 552.596 174.745 553.165 174.745 553.912V558H173.625V550.776H174.689V551.854C175.24 551.023 175.996 550.608 176.957 550.608ZM187.332 558H186.03L183.594 554.122L182.306 555.326V558H181.186V548.032H182.306V554.01L185.652 550.776H187.136L184.392 553.38L187.332 558ZM194.048 554.388V554.78H188.56C188.616 555.564 188.836 556.157 189.218 556.558C189.601 556.95 190.124 557.146 190.786 557.146C191.785 557.146 192.424 556.698 192.704 555.802H193.866C193.67 556.53 193.306 557.109 192.774 557.538C192.242 557.958 191.57 558.168 190.758 558.168C189.76 558.168 188.952 557.827 188.336 557.146C187.711 556.465 187.398 555.545 187.398 554.388C187.398 553.249 187.706 552.335 188.322 551.644C188.929 550.953 189.732 550.608 190.73 550.608C191.766 550.608 192.578 550.967 193.166 551.686C193.754 552.405 194.048 553.305 194.048 554.388ZM190.73 551.63C190.142 551.63 189.662 551.817 189.288 552.19C188.915 552.554 188.682 553.081 188.588 553.772H192.844C192.788 553.137 192.574 552.624 192.2 552.232C191.827 551.831 191.337 551.63 190.73 551.63ZM200.809 551.812V548.032H201.929V558H200.865V556.88C200.286 557.739 199.46 558.168 198.387 558.168C197.37 558.168 196.558 557.823 195.951 557.132C195.335 556.441 195.027 555.527 195.027 554.388C195.027 553.231 195.335 552.311 195.951 551.63C196.548 550.949 197.36 550.608 198.387 550.608C199.423 550.608 200.23 551.009 200.809 551.812ZM196.203 554.444C196.203 555.303 196.413 555.97 196.833 556.446C197.253 556.922 197.818 557.16 198.527 557.16C199.236 557.16 199.801 556.913 200.221 556.418C200.641 555.933 200.851 555.256 200.851 554.388C200.851 553.529 200.641 552.853 200.221 552.358C199.801 551.863 199.236 551.616 198.527 551.616C197.827 551.616 197.262 551.873 196.833 552.386C196.413 552.89 196.203 553.576 196.203 554.444ZM209.438 550.776V551.756H207.954V556.446C207.954 556.857 208.229 557.062 208.78 557.062H209.438V558C209.13 558.028 208.864 558.042 208.64 558.042C207.436 558.042 206.834 557.543 206.834 556.544V551.756H205.644V550.776H206.834V548.732H207.954V550.776H209.438ZM216.155 557.132C215.492 557.823 214.652 558.168 213.635 558.168C212.617 558.168 211.777 557.823 211.115 557.132C210.461 556.451 210.135 555.536 210.135 554.388C210.135 553.24 210.461 552.325 211.115 551.644C211.777 550.953 212.617 550.608 213.635 550.608C214.652 550.608 215.492 550.953 216.155 551.644C216.808 552.325 217.135 553.24 217.135 554.388C217.135 555.536 216.808 556.451 216.155 557.132ZM211.941 556.418C212.361 556.913 212.925 557.16 213.635 557.16C214.344 557.16 214.909 556.913 215.329 556.418C215.749 555.933 215.959 555.256 215.959 554.388C215.959 553.511 215.749 552.829 215.329 552.344C214.909 551.859 214.344 551.616 213.635 551.616C212.925 551.616 212.361 551.859 211.941 552.344C211.521 552.829 211.311 553.511 211.311 554.388C211.311 555.256 211.521 555.933 211.941 556.418ZM224.299 550.776V551.756H222.815V556.446C222.815 556.857 223.09 557.062 223.641 557.062H224.299V558C223.991 558.028 223.725 558.042 223.501 558.042C222.297 558.042 221.695 557.543 221.695 556.544V551.756H220.505V550.776H221.695V548.732H222.815V550.776H224.299ZM228.815 550.608C229.617 550.608 230.243 550.827 230.691 551.266C231.139 551.705 231.363 552.321 231.363 553.114V558H230.243V553.226C230.243 552.153 229.692 551.616 228.591 551.616C228.068 551.616 227.606 551.812 227.205 552.204C226.803 552.596 226.603 553.165 226.603 553.912V558H225.483V548.032H226.603V551.77C227.153 550.995 227.891 550.608 228.815 550.608ZM239.343 554.388V554.78H233.855C233.911 555.564 234.13 556.157 234.513 556.558C234.896 556.95 235.418 557.146 236.081 557.146C237.08 557.146 237.719 556.698 237.999 555.802H239.161C238.965 556.53 238.601 557.109 238.069 557.538C237.537 557.958 236.865 558.168 236.053 558.168C235.054 558.168 234.247 557.827 233.631 557.146C233.006 556.465 232.693 555.545 232.693 554.388C232.693 553.249 233.001 552.335 233.617 551.644C234.224 550.953 235.026 550.608 236.025 550.608C237.061 550.608 237.873 550.967 238.461 551.686C239.049 552.405 239.343 553.305 239.343 554.388ZM236.025 551.63C235.437 551.63 234.956 551.817 234.583 552.19C234.21 552.554 233.976 553.081 233.883 553.772H238.139C238.083 553.137 237.868 552.624 237.495 552.232C237.122 551.831 236.632 551.63 236.025 551.63ZM250.94 550.608C251.724 550.608 252.331 550.837 252.76 551.294C253.199 551.742 253.418 552.344 253.418 553.1V558H252.298V553.212C252.298 552.148 251.794 551.616 250.786 551.616C250.254 551.616 249.811 551.831 249.456 552.26C249.111 552.68 248.938 553.277 248.938 554.052V558H247.818V553.212C247.818 552.148 247.314 551.616 246.306 551.616C245.783 551.616 245.345 551.831 244.99 552.26C244.635 552.68 244.458 553.277 244.458 554.052V558H243.338V550.776H244.402V551.84C244.878 551.019 245.573 550.608 246.488 550.608C247.571 550.608 248.313 551.061 248.714 551.966C249.218 551.061 249.96 550.608 250.94 550.608ZM260.766 557.132C260.103 557.823 259.263 558.168 258.246 558.168C257.229 558.168 256.389 557.823 255.726 557.132C255.073 556.451 254.746 555.536 254.746 554.388C254.746 553.24 255.073 552.325 255.726 551.644C256.389 550.953 257.229 550.608 258.246 550.608C259.263 550.608 260.103 550.953 260.766 551.644C261.419 552.325 261.746 553.24 261.746 554.388C261.746 555.536 261.419 556.451 260.766 557.132ZM256.552 556.418C256.972 556.913 257.537 557.16 258.246 557.16C258.955 557.16 259.52 556.913 259.94 556.418C260.36 555.933 260.57 555.256 260.57 554.388C260.57 553.511 260.36 552.829 259.94 552.344C259.52 551.859 258.955 551.616 258.246 551.616C257.537 551.616 256.972 551.859 256.552 552.344C256.132 552.829 255.922 553.511 255.922 554.388C255.922 555.256 256.132 555.933 256.552 556.418ZM266.412 550.608C267.215 550.608 267.84 550.827 268.288 551.266C268.736 551.705 268.96 552.321 268.96 553.114V558H267.84V553.226C267.84 552.153 267.29 551.616 266.188 551.616C265.666 551.616 265.204 551.812 264.802 552.204C264.401 552.596 264.2 553.165 264.2 553.912V558H263.08V550.776H264.144V551.854C264.695 551.023 265.451 550.608 266.412 550.608ZM273.531 550.776V551.756H272.047V556.446C272.047 556.857 272.323 557.062 272.873 557.062H273.531V558C273.223 558.028 272.957 558.042 272.733 558.042C271.529 558.042 270.927 557.543 270.927 556.544V551.756H269.737V550.776H270.927V548.732H272.047V550.776H273.531ZM278.047 550.608C278.85 550.608 279.475 550.827 279.923 551.266C280.371 551.705 280.595 552.321 280.595 553.114V558H279.475V553.226C279.475 552.153 278.924 551.616 277.823 551.616C277.3 551.616 276.838 551.812 276.437 552.204C276.036 552.596 275.835 553.165 275.835 553.912V558H274.715V548.032H275.835V551.77C276.386 550.995 277.123 550.608 278.047 550.608ZM283.396 558H282.276V548.032H283.396V558ZM288.498 553.772L289.52 550.776H290.738L287.686 559.134C287.471 559.741 287.177 560.165 286.804 560.408C286.43 560.66 285.94 560.786 285.334 560.786C285.128 560.786 284.904 560.772 284.662 560.744V559.806H285.32C285.964 559.806 286.402 559.507 286.636 558.91L286.888 558.238L284.172 550.776H285.404L286.426 553.786C286.79 554.85 287.135 555.891 287.462 556.908C287.732 556.04 288.078 554.995 288.498 553.772ZM297.303 558.168C296.304 558.168 295.497 557.823 294.881 557.132C294.265 556.441 293.957 555.527 293.957 554.388C293.957 553.231 294.265 552.311 294.881 551.63C295.478 550.949 296.285 550.608 297.303 550.608C298.161 550.608 298.866 550.841 299.417 551.308C299.967 551.775 300.299 552.414 300.411 553.226H299.249C299.165 552.713 298.941 552.316 298.577 552.036C298.222 551.756 297.797 551.616 297.303 551.616C296.64 551.616 296.113 551.859 295.721 552.344C295.329 552.82 295.133 553.501 295.133 554.388C295.133 555.265 295.329 555.947 295.721 556.432C296.122 556.917 296.649 557.16 297.303 557.16C297.797 557.16 298.227 557.015 298.591 556.726C298.955 556.437 299.179 556.035 299.263 555.522H300.411C300.289 556.334 299.944 556.978 299.375 557.454C298.815 557.93 298.124 558.168 297.303 558.168ZM305.027 553.772L306.049 550.776H307.267L304.215 559.134C304 559.741 303.706 560.165 303.333 560.408C302.96 560.66 302.47 560.786 301.863 560.786C301.658 560.786 301.434 560.772 301.191 560.744V559.806H301.849C302.493 559.806 302.932 559.507 303.165 558.91L303.417 558.238L300.701 550.776H301.933L302.955 553.786C303.319 554.85 303.664 555.891 303.991 556.908C304.262 556.04 304.607 554.995 305.027 553.772ZM310.742 558.168C309.744 558.168 308.936 557.823 308.32 557.132C307.704 556.441 307.396 555.527 307.396 554.388C307.396 553.231 307.704 552.311 308.32 551.63C308.918 550.949 309.725 550.608 310.742 550.608C311.601 550.608 312.306 550.841 312.856 551.308C313.407 551.775 313.738 552.414 313.85 553.226H312.688C312.604 552.713 312.38 552.316 312.016 552.036C311.662 551.756 311.237 551.616 310.742 551.616C310.08 551.616 309.552 551.859 309.16 552.344C308.768 552.82 308.572 553.501 308.572 554.388C308.572 555.265 308.768 555.947 309.16 556.432C309.562 556.917 310.089 557.16 310.742 557.16C311.237 557.16 311.666 557.015 312.03 556.726C312.394 556.437 312.618 556.035 312.702 555.522H313.85C313.729 556.334 313.384 556.978 312.814 557.454C312.254 557.93 311.564 558.168 310.742 558.168ZM316.167 558H315.047V548.032H316.167V558ZM324.15 554.388V554.78H318.662C318.718 555.564 318.937 556.157 319.32 556.558C319.702 556.95 320.225 557.146 320.888 557.146C321.886 557.146 322.526 556.698 322.806 555.802H323.968C323.772 556.53 323.408 557.109 322.876 557.538C322.344 557.958 321.672 558.168 320.86 558.168C319.861 558.168 319.054 557.827 318.438 557.146C317.812 556.465 317.5 555.545 317.5 554.388C317.5 553.249 317.808 552.335 318.424 551.644C319.03 550.953 319.833 550.608 320.832 550.608C321.868 550.608 322.68 550.967 323.268 551.686C323.856 552.405 324.15 553.305 324.15 554.388ZM320.832 551.63C320.244 551.63 319.763 551.817 319.39 552.19C319.016 552.554 318.783 553.081 318.69 553.772H322.946C322.89 553.137 322.675 552.624 322.302 552.232C321.928 551.831 321.438 551.63 320.832 551.63Z" fill="#F6F6F6"/>
</g>
<defs>
<filter id="filter0_b_11922_32049" x="-44.5" y="-44.5" width="499" height="678" filterUnits="userSpaceOnUse" color-interpolation-filters="sRGB">
<feFlood flood-opacity="0" result="BackgroundImageFix"/>
<feGaussianBlur in="BackgroundImageFix" stdDeviation="22.25"/>
<feComposite in2="SourceAlpha" operator="in" result="effect1_backgroundBlur_11922_32049"/>
<feBlend mode="normal" in="SourceGraphic" in2="effect1_backgroundBlur_11922_32049" result="shape"/>
</filter>
</defs>
</svg>
