<svg width="410" height="589" viewBox="0 0 410 589" fill="none" xmlns="http://www.w3.org/2000/svg">
<g filter="url(#filter0_b_11922_32011)">
<path d="M33.3958 169.754C31.9585 169.754 30.7965 169.283 29.9098 168.34C29.0138 167.397 28.5658 166.133 28.5658 164.546C28.5658 162.95 29.0092 161.681 29.8958 160.738C30.7732 159.805 31.9398 159.338 33.3958 159.338C34.5625 159.338 35.5565 159.651 36.3778 160.276C37.1992 160.901 37.7125 161.807 37.9178 162.992H35.9998C35.8318 162.339 35.5192 161.844 35.0618 161.508C34.6138 161.163 34.0585 160.99 33.3958 160.99C32.5092 160.99 31.8092 161.307 31.2958 161.942C30.7918 162.567 30.5398 163.435 30.5398 164.546C30.5398 165.666 30.7918 166.539 31.2958 167.164C31.7998 167.789 32.4998 168.102 33.3958 168.102C34.0865 168.102 34.6792 167.897 35.1738 167.486C35.6685 167.075 35.9672 166.506 36.0698 165.778H37.9598C37.8385 167.047 37.3438 168.027 36.4758 168.718C35.6172 169.409 34.5905 169.754 33.3958 169.754ZM45.5284 169.53H43.7644C43.6804 169.381 43.615 169.087 43.5684 168.648C43.083 169.348 42.3084 169.698 41.2444 169.698C40.451 169.698 39.8164 169.507 39.3404 169.124C38.8737 168.741 38.6404 168.209 38.6404 167.528C38.6404 166.212 39.5644 165.461 41.4124 165.274L42.5044 165.176C42.8684 165.129 43.1297 165.045 43.2884 164.924C43.447 164.793 43.5264 164.602 43.5264 164.35C43.5264 164.042 43.4237 163.818 43.2184 163.678C43.0224 163.529 42.6864 163.454 42.2104 163.454C41.697 163.454 41.3284 163.543 41.1044 163.72C40.8804 163.888 40.7497 164.182 40.7124 164.602H38.9764C39.079 162.959 40.1617 162.138 42.2244 162.138C44.231 162.138 45.2344 162.861 45.2344 164.308V168.158C45.2344 168.793 45.3324 169.25 45.5284 169.53ZM41.6644 168.438C42.215 168.438 42.663 168.289 43.0084 167.99C43.3537 167.682 43.5264 167.243 43.5264 166.674V166.016C43.3584 166.165 43.083 166.263 42.7004 166.31L41.7484 166.422C41.2817 166.478 40.9457 166.59 40.7404 166.758C40.5444 166.917 40.4464 167.15 40.4464 167.458C40.4464 167.766 40.549 168.009 40.7544 168.186C40.969 168.354 41.2724 168.438 41.6644 168.438ZM50.4432 162.194C50.6019 162.194 50.7466 162.203 50.8772 162.222V163.846H50.4292C49.7572 163.846 49.2392 164.019 48.8752 164.364C48.5206 164.7 48.3432 165.199 48.3432 165.862V169.53H46.5792V162.306H48.2872V163.594C48.6886 162.661 49.4072 162.194 50.4432 162.194ZM55.8332 162.138C56.8226 162.138 57.6112 162.479 58.1992 163.16C58.7779 163.851 59.0672 164.77 59.0672 165.918C59.0672 167.057 58.7779 167.971 58.1992 168.662C57.6112 169.353 56.8226 169.698 55.8332 169.698C54.8159 169.698 54.0459 169.297 53.5232 168.494V169.53H51.8292V159.562H53.5932V163.244C54.1066 162.507 54.8532 162.138 55.8332 162.138ZM54.0552 167.64C54.3726 168.041 54.8252 168.242 55.4132 168.242C55.9919 168.242 56.4492 168.032 56.7852 167.612C57.1119 167.201 57.2752 166.618 57.2752 165.862C57.2752 165.125 57.1119 164.565 56.7852 164.182C56.4679 163.79 56.0106 163.594 55.4132 163.594C54.8252 163.594 54.3679 163.795 54.0412 164.196C53.7146 164.597 53.5512 165.171 53.5512 165.918C53.5512 166.674 53.7192 167.248 54.0552 167.64ZM67.1971 165.918C67.1971 167.057 66.8611 167.971 66.1891 168.662C65.5171 169.353 64.6304 169.698 63.5291 169.698C62.4277 169.698 61.5411 169.353 60.8691 168.662C60.1877 167.981 59.8471 167.066 59.8471 165.918C59.8471 164.77 60.1877 163.855 60.8691 163.174C61.5411 162.483 62.4277 162.138 63.5291 162.138C64.6304 162.138 65.5171 162.479 66.1891 163.16C66.8611 163.841 67.1971 164.761 67.1971 165.918ZM62.1431 167.64C62.4791 168.041 62.9411 168.242 63.5291 168.242C64.1171 168.242 64.5744 168.041 64.9011 167.64C65.2371 167.229 65.4051 166.655 65.4051 165.918C65.4051 165.181 65.2371 164.611 64.9011 164.21C64.5744 163.799 64.1171 163.594 63.5291 163.594C62.9411 163.594 62.4791 163.795 62.1431 164.196C61.8164 164.597 61.6531 165.171 61.6531 165.918C61.6531 166.665 61.8164 167.239 62.1431 167.64ZM72.2658 162.138C73.0498 162.138 73.6658 162.367 74.1138 162.824C74.5712 163.272 74.7998 163.911 74.7998 164.742V169.53H73.0358V165.036C73.0358 164.121 72.5832 163.664 71.6778 163.664C71.2298 163.664 70.8472 163.827 70.5298 164.154C70.2218 164.471 70.0678 164.915 70.0678 165.484V169.53H68.3038V159.562H70.0678V163.272C70.6185 162.516 71.3512 162.138 72.2658 162.138ZM80.0081 164.126L80.5961 162.306H82.4441L79.6581 170.118C79.3594 170.939 78.9861 171.504 78.5381 171.812C78.0807 172.129 77.4181 172.288 76.5501 172.288C76.2607 172.288 76.0041 172.274 75.7801 172.246V170.86H76.4521C76.8347 170.86 77.1287 170.753 77.3341 170.538C77.5394 170.323 77.6421 170.043 77.6421 169.698C77.6421 169.353 77.5301 168.867 77.3061 168.242L75.2061 162.306H77.1101L77.6981 164.112C78.1087 165.4 78.4914 166.744 78.8461 168.144C79.1261 167.089 79.5134 165.75 80.0081 164.126ZM87.9754 163.244V159.562H89.7394V169.53H88.0314V168.522C87.4994 169.306 86.7387 169.698 85.7494 169.698C84.7507 169.698 83.962 169.353 83.3834 168.662C82.7954 167.971 82.5014 167.057 82.5014 165.918C82.5014 164.761 82.7954 163.841 83.3834 163.16C83.9527 162.479 84.7414 162.138 85.7494 162.138C86.72 162.138 87.462 162.507 87.9754 163.244ZM84.3074 165.974C84.3074 166.721 84.4707 167.285 84.7974 167.668C85.124 168.051 85.5767 168.242 86.1554 168.242C86.734 168.242 87.1914 168.041 87.5274 167.64C87.854 167.239 88.0174 166.665 88.0174 165.918C88.0174 165.171 87.854 164.597 87.5274 164.196C87.2007 163.795 86.7434 163.594 86.1554 163.594C85.586 163.594 85.1334 163.804 84.7974 164.224C84.4707 164.644 84.3074 165.227 84.3074 165.974ZM95.0272 162.194C95.1859 162.194 95.3306 162.203 95.4612 162.222V163.846H95.0132C94.3412 163.846 93.8232 164.019 93.4592 164.364C93.1046 164.7 92.9272 165.199 92.9272 165.862V169.53H91.1632V162.306H92.8712V163.594C93.2726 162.661 93.9912 162.194 95.0272 162.194ZM102.485 169.53H100.721C100.637 169.381 100.572 169.087 100.525 168.648C100.04 169.348 99.2654 169.698 98.2014 169.698C97.4081 169.698 96.7734 169.507 96.2974 169.124C95.8307 168.741 95.5974 168.209 95.5974 167.528C95.5974 166.212 96.5214 165.461 98.3694 165.274L99.4614 165.176C99.8254 165.129 100.087 165.045 100.245 164.924C100.404 164.793 100.483 164.602 100.483 164.35C100.483 164.042 100.381 163.818 100.175 163.678C99.9794 163.529 99.6434 163.454 99.1674 163.454C98.6541 163.454 98.2854 163.543 98.0614 163.72C97.8374 163.888 97.7067 164.182 97.6694 164.602H95.9334C96.0361 162.959 97.1187 162.138 99.1814 162.138C101.188 162.138 102.191 162.861 102.191 164.308V168.158C102.191 168.793 102.289 169.25 102.485 169.53ZM98.6214 168.438C99.1721 168.438 99.6201 168.289 99.9654 167.99C100.311 167.682 100.483 167.243 100.483 166.674V166.016C100.315 166.165 100.04 166.263 99.6574 166.31L98.7054 166.422C98.2387 166.478 97.9027 166.59 97.6974 166.758C97.5014 166.917 97.4034 167.15 97.4034 167.458C97.4034 167.766 97.5061 168.009 97.7114 168.186C97.9261 168.354 98.2294 168.438 98.6214 168.438ZM107.084 162.306V163.65H105.656V167.556C105.656 167.789 105.716 167.953 105.838 168.046C105.968 168.139 106.183 168.186 106.482 168.186H107.084V169.53C106.701 169.567 106.393 169.586 106.16 169.586C105.376 169.586 104.802 169.441 104.438 169.152C104.083 168.853 103.906 168.382 103.906 167.738V163.65H102.786V162.306H103.906V160.206H105.656V162.306H107.084ZM114.798 166.044V166.464H109.394C109.459 167.08 109.65 167.547 109.968 167.864C110.294 168.172 110.728 168.326 111.27 168.326C112.072 168.326 112.623 167.981 112.922 167.29H114.616C114.429 168.027 114.037 168.615 113.44 169.054C112.842 169.483 112.114 169.698 111.256 169.698C110.182 169.698 109.314 169.353 108.652 168.662C107.989 167.971 107.658 167.057 107.658 165.918C107.658 164.779 107.984 163.865 108.638 163.174C109.3 162.483 110.164 162.138 111.228 162.138C112.32 162.138 113.188 162.497 113.832 163.216C114.476 163.935 114.798 164.877 114.798 166.044ZM111.214 163.51C110.178 163.51 109.576 164.084 109.408 165.232H113.034C112.959 164.7 112.763 164.28 112.446 163.972C112.128 163.664 111.718 163.51 111.214 163.51ZM120.946 169.53H119.056V159.562H120.946V169.53ZM126.447 162.138C127.231 162.138 127.847 162.367 128.295 162.824C128.753 163.272 128.981 163.911 128.981 164.742V169.53H127.217V165.036C127.217 164.121 126.765 163.664 125.859 163.664C125.411 163.664 125.029 163.827 124.711 164.154C124.403 164.471 124.249 164.915 124.249 165.484V169.53H122.485V162.306H124.193V163.342C124.744 162.539 125.495 162.138 126.447 162.138ZM133.935 162.306V163.65H132.507V167.556C132.507 167.789 132.568 167.953 132.689 168.046C132.82 168.139 133.034 168.186 133.333 168.186H133.935V169.53C133.552 169.567 133.244 169.586 133.011 169.586C132.227 169.586 131.653 169.441 131.289 169.152C130.934 168.853 130.757 168.382 130.757 167.738V163.65H129.637V162.306H130.757V160.206H132.507V162.306H133.935ZM141.423 169.53H139.659C139.575 169.381 139.51 169.087 139.463 168.648C138.978 169.348 138.203 169.698 137.139 169.698C136.346 169.698 135.711 169.507 135.235 169.124C134.768 168.741 134.535 168.209 134.535 167.528C134.535 166.212 135.459 165.461 137.307 165.274L138.399 165.176C138.763 165.129 139.024 165.045 139.183 164.924C139.342 164.793 139.421 164.602 139.421 164.35C139.421 164.042 139.318 163.818 139.113 163.678C138.917 163.529 138.581 163.454 138.105 163.454C137.592 163.454 137.223 163.543 136.999 163.72C136.775 163.888 136.644 164.182 136.607 164.602H134.871C134.974 162.959 136.056 162.138 138.119 162.138C140.126 162.138 141.129 162.861 141.129 164.308V168.158C141.129 168.793 141.227 169.25 141.423 169.53ZM137.559 168.438C138.11 168.438 138.558 168.289 138.903 167.99C139.248 167.682 139.421 167.243 139.421 166.674V166.016C139.253 166.165 138.978 166.263 138.595 166.31L137.643 166.422C137.176 166.478 136.84 166.59 136.635 166.758C136.439 166.917 136.341 167.15 136.341 167.458C136.341 167.766 136.444 168.009 136.649 168.186C136.864 168.354 137.167 168.438 137.559 168.438ZM149.377 169.53H147.361L145.261 166.17L144.169 167.262V169.53H142.433V159.562H144.169V165.302L147.109 162.306H149.209L146.479 165.036L149.377 169.53ZM156.401 166.044V166.464H150.997C151.062 167.08 151.254 167.547 151.571 167.864C151.898 168.172 152.332 168.326 152.873 168.326C153.676 168.326 154.226 167.981 154.525 167.29H156.219C156.032 168.027 155.64 168.615 155.043 169.054C154.446 169.483 153.718 169.698 152.859 169.698C151.786 169.698 150.918 169.353 150.255 168.662C149.592 167.971 149.261 167.057 149.261 165.918C149.261 164.779 149.588 163.865 150.241 163.174C150.904 162.483 151.767 162.138 152.831 162.138C153.923 162.138 154.791 162.497 155.435 163.216C156.079 163.935 156.401 164.877 156.401 166.044ZM152.817 163.51C151.781 163.51 151.179 164.084 151.011 165.232H154.637C154.562 164.7 154.366 164.28 154.049 163.972C153.732 163.664 153.321 163.51 152.817 163.51Z" fill="#F6F6F6"/>
<rect x="28" y="185.53" width="10" height="10" rx="5" fill="#F6F6F6"/>
<path d="M49.5095 191.064L51.7355 185.562H53.2755V195.53H52.1275V192.338C52.1275 190.238 52.1415 188.544 52.1695 187.256C51.9455 187.872 51.6515 188.628 51.2875 189.524L48.8235 195.53H47.8155L45.3375 189.524C44.9735 188.628 44.6795 187.872 44.4555 187.256C44.4835 188.544 44.4975 190.238 44.4975 192.338V195.53H43.3495V185.562H44.8895L47.1995 191.232C47.5448 192.081 47.9228 193.038 48.3335 194.102C48.9028 192.59 49.2948 191.577 49.5095 191.064ZM61.3236 191.918V192.31H55.8356C55.8916 193.094 56.1109 193.687 56.4936 194.088C56.8763 194.48 57.3989 194.676 58.0616 194.676C59.0603 194.676 59.6996 194.228 59.9796 193.332H61.1416C60.9456 194.06 60.5816 194.639 60.0496 195.068C59.5176 195.488 58.8456 195.698 58.0336 195.698C57.0349 195.698 56.2276 195.357 55.6116 194.676C54.9863 193.995 54.6736 193.075 54.6736 191.918C54.6736 190.779 54.9816 189.865 55.5976 189.174C56.2043 188.483 57.0069 188.138 58.0056 188.138C59.0416 188.138 59.8536 188.497 60.4416 189.216C61.0296 189.935 61.3236 190.835 61.3236 191.918ZM58.0056 189.16C57.4176 189.16 56.9369 189.347 56.5636 189.72C56.1903 190.084 55.9569 190.611 55.8636 191.302H60.1196C60.0636 190.667 59.8489 190.154 59.4756 189.762C59.1023 189.361 58.6123 189.16 58.0056 189.16ZM65.9845 188.138C66.7872 188.138 67.4125 188.357 67.8605 188.796C68.3085 189.235 68.5325 189.851 68.5325 190.644V195.53H67.4125V190.756C67.4125 189.683 66.8618 189.146 65.7605 189.146C65.2378 189.146 64.7758 189.342 64.3745 189.734C63.9732 190.126 63.7725 190.695 63.7725 191.442V195.53H62.6525V188.306H63.7165V189.384C64.2672 188.553 65.0232 188.138 65.9845 188.138ZM75.883 194.662C75.2204 195.353 74.3804 195.698 73.363 195.698C72.3457 195.698 71.5057 195.353 70.843 194.662C70.1897 193.981 69.863 193.066 69.863 191.918C69.863 190.77 70.1897 189.855 70.843 189.174C71.5057 188.483 72.3457 188.138 73.363 188.138C74.3804 188.138 75.2204 188.483 75.883 189.174C76.5364 189.855 76.863 190.77 76.863 191.918C76.863 193.066 76.5364 193.981 75.883 194.662ZM71.669 193.948C72.089 194.443 72.6537 194.69 73.363 194.69C74.0724 194.69 74.637 194.443 75.057 193.948C75.477 193.463 75.687 192.786 75.687 191.918C75.687 191.041 75.477 190.359 75.057 189.874C74.637 189.389 74.0724 189.146 73.363 189.146C72.6537 189.146 72.089 189.389 71.669 189.874C71.249 190.359 71.039 191.041 71.039 191.918C71.039 192.786 71.249 193.463 71.669 193.948ZM81.7394 188.138C82.7568 188.138 83.5734 188.479 84.1894 189.16C84.7961 189.851 85.0994 190.77 85.0994 191.918C85.0994 193.057 84.7961 193.971 84.1894 194.662C83.5734 195.353 82.7568 195.698 81.7394 195.698C80.7034 195.698 79.8961 195.297 79.3174 194.494V198.274H78.1974V188.306H79.2614V189.426C79.8401 188.567 80.6661 188.138 81.7394 188.138ZM81.5994 194.69C82.2994 194.69 82.8594 194.438 83.2794 193.934C83.7088 193.421 83.9234 192.73 83.9234 191.862C83.9234 191.013 83.7134 190.35 83.2934 189.874C82.8828 189.389 82.3181 189.146 81.5994 189.146C80.8901 189.146 80.3254 189.389 79.9054 189.874C79.4854 190.359 79.2754 191.041 79.2754 191.918C79.2754 192.786 79.4854 193.463 79.9054 193.948C80.3254 194.443 80.8901 194.69 81.5994 194.69ZM92.1992 194.62H92.6052V195.53C92.4185 195.558 92.2132 195.572 91.9892 195.572C91.2332 195.572 90.8272 195.227 90.7712 194.536C90.2672 195.311 89.4832 195.698 88.4192 195.698C87.6258 195.698 87.0005 195.516 86.5432 195.152C86.0952 194.779 85.8712 194.256 85.8712 193.584C85.8712 192.277 86.7625 191.531 88.5452 191.344L89.5812 191.232C90.3372 191.148 90.7152 190.817 90.7152 190.238C90.7152 189.837 90.5892 189.547 90.3372 189.37C90.0945 189.193 89.6792 189.104 89.0912 189.104C88.4658 189.104 88.0132 189.211 87.7332 189.426C87.4625 189.631 87.3085 190 87.2712 190.532H86.1512C86.2445 188.936 87.2245 188.138 89.0912 188.138C90.9018 188.138 91.8072 188.838 91.8072 190.238V194.27C91.8072 194.503 91.9378 194.62 92.1992 194.62ZM88.4752 194.746C89.0725 194.746 89.5952 194.564 90.0432 194.2C90.4912 193.845 90.7152 193.337 90.7152 192.674V191.82C90.5098 191.979 90.1925 192.081 89.7632 192.128L88.7132 192.254C88.1065 192.329 87.6725 192.469 87.4112 192.674C87.1592 192.879 87.0332 193.173 87.0332 193.556C87.0332 193.929 87.1545 194.223 87.3972 194.438C87.6398 194.643 87.9992 194.746 88.4752 194.746ZM98.352 192.394V188.306H99.472V195.53H98.408V194.452C97.8573 195.283 97.1013 195.698 96.14 195.698C95.3373 195.698 94.712 195.479 94.264 195.04C93.816 194.601 93.592 193.985 93.592 193.192V188.306H94.712V193.08C94.712 194.153 95.2626 194.69 96.364 194.69C96.8866 194.69 97.3486 194.494 97.75 194.102C98.1513 193.71 98.352 193.141 98.352 192.394ZM103.701 195.698C101.769 195.698 100.747 194.877 100.635 193.234H101.769C101.834 193.775 102.011 194.163 102.301 194.396C102.599 194.62 103.066 194.732 103.701 194.732C104.858 194.732 105.437 194.359 105.437 193.612C105.437 193.285 105.315 193.038 105.073 192.87C104.839 192.702 104.41 192.557 103.785 192.436L103.113 192.31C101.61 192.03 100.859 191.321 100.859 190.182C100.859 189.557 101.092 189.062 101.559 188.698C102.035 188.325 102.679 188.138 103.491 188.138C105.404 188.138 106.384 188.936 106.431 190.532H105.311C105.283 190.009 105.124 189.641 104.835 189.426C104.545 189.211 104.097 189.104 103.491 189.104C103.005 189.104 102.632 189.197 102.37 189.384C102.109 189.571 101.979 189.832 101.979 190.168C101.979 190.485 102.091 190.723 102.315 190.882C102.539 191.041 102.912 191.176 103.435 191.288L104.079 191.414C104.965 191.591 105.6 191.843 105.983 192.17C106.375 192.497 106.571 192.954 106.571 193.542C106.571 194.223 106.314 194.755 105.801 195.138C105.297 195.511 104.597 195.698 103.701 195.698ZM113.988 191.918V192.31H108.5C108.556 193.094 108.775 193.687 109.158 194.088C109.54 194.48 110.063 194.676 110.726 194.676C111.724 194.676 112.364 194.228 112.644 193.332H113.806C113.61 194.06 113.246 194.639 112.714 195.068C112.182 195.488 111.51 195.698 110.698 195.698C109.699 195.698 108.892 195.357 108.276 194.676C107.65 193.995 107.338 193.075 107.338 191.918C107.338 190.779 107.646 189.865 108.262 189.174C108.868 188.483 109.671 188.138 110.67 188.138C111.706 188.138 112.518 188.497 113.106 189.216C113.694 189.935 113.988 190.835 113.988 191.918ZM110.67 189.16C110.082 189.16 109.601 189.347 109.228 189.72C108.854 190.084 108.621 190.611 108.528 191.302H112.784C112.728 190.667 112.513 190.154 112.14 189.762C111.766 189.361 111.276 189.16 110.67 189.16ZM121.315 188.138C122.117 188.138 122.743 188.357 123.191 188.796C123.639 189.235 123.863 189.851 123.863 190.644V195.53H122.743V190.756C122.743 189.683 122.192 189.146 121.091 189.146C120.568 189.146 120.106 189.342 119.705 189.734C119.303 190.126 119.103 190.695 119.103 191.442V195.53H117.983V188.306H119.047V189.384C119.597 188.553 120.353 188.138 121.315 188.138ZM131.213 194.662C130.55 195.353 129.71 195.698 128.693 195.698C127.676 195.698 126.836 195.353 126.173 194.662C125.52 193.981 125.193 193.066 125.193 191.918C125.193 190.77 125.52 189.855 126.173 189.174C126.836 188.483 127.676 188.138 128.693 188.138C129.71 188.138 130.55 188.483 131.213 189.174C131.866 189.855 132.193 190.77 132.193 191.918C132.193 193.066 131.866 193.981 131.213 194.662ZM126.999 193.948C127.419 194.443 127.984 194.69 128.693 194.69C129.402 194.69 129.967 194.443 130.387 193.948C130.807 193.463 131.017 192.786 131.017 191.918C131.017 191.041 130.807 190.359 130.387 189.874C129.967 189.389 129.402 189.146 128.693 189.146C127.984 189.146 127.419 189.389 126.999 189.874C126.579 190.359 126.369 191.041 126.369 191.918C126.369 192.786 126.579 193.463 126.999 193.948ZM142.998 189.846V185.562H144.174V195.53H142.998V190.938H137.44V195.53H136.264V185.562H137.44V189.846H142.998ZM153.32 192.646L153.418 194.256C153.465 194.816 153.586 195.241 153.782 195.53H152.564C152.359 195.231 152.251 194.788 152.242 194.2L152.2 193.136C152.172 192.464 152.023 191.988 151.752 191.708C151.481 191.419 151.038 191.274 150.422 191.274H147.174V195.53H145.998V185.562H150.212C151.239 185.562 152.055 185.8 152.662 186.276C153.278 186.752 153.586 187.419 153.586 188.278C153.586 188.885 153.437 189.398 153.138 189.818C152.849 190.229 152.452 190.518 151.948 190.686C152.788 190.947 153.245 191.601 153.32 192.646ZM147.174 190.21H150.352C150.977 190.21 151.467 190.051 151.822 189.734C152.186 189.407 152.368 188.945 152.368 188.348C152.368 187.779 152.177 187.349 151.794 187.06C151.421 186.771 150.893 186.626 150.212 186.626H147.174V190.21ZM153.721 185.562H161.715V186.626H158.327V195.53H157.109V186.626H153.721V185.562Z" fill="#F6F6F6"/>
<rect x="168" y="185.53" width="10" height="10" rx="5" fill="#B185FF"/>
<path d="M189.515 191.064L191.741 185.562H193.281V195.53H192.133V192.338C192.133 190.238 192.147 188.544 192.175 187.256C191.951 187.872 191.657 188.628 191.293 189.524L188.829 195.53H187.821L185.343 189.524C184.979 188.628 184.685 187.872 184.461 187.256C184.489 188.544 184.503 190.238 184.503 192.338V195.53H183.355V185.562H184.895L187.205 191.232C187.551 192.081 187.929 193.038 188.339 194.102C188.909 192.59 189.301 191.577 189.515 191.064ZM201.329 191.918V192.31H195.841C195.897 193.094 196.117 193.687 196.499 194.088C196.882 194.48 197.405 194.676 198.067 194.676C199.066 194.676 199.705 194.228 199.985 193.332H201.147C200.951 194.06 200.587 194.639 200.055 195.068C199.523 195.488 198.851 195.698 198.039 195.698C197.041 195.698 196.233 195.357 195.617 194.676C194.992 193.995 194.679 193.075 194.679 191.918C194.679 190.779 194.987 189.865 195.603 189.174C196.21 188.483 197.013 188.138 198.011 188.138C199.047 188.138 199.859 188.497 200.447 189.216C201.035 189.935 201.329 190.835 201.329 191.918ZM198.011 189.16C197.423 189.16 196.943 189.347 196.569 189.72C196.196 190.084 195.963 190.611 195.869 191.302H200.125C200.069 190.667 199.855 190.154 199.481 189.762C199.108 189.361 198.618 189.16 198.011 189.16ZM205.99 188.138C206.793 188.138 207.418 188.357 207.866 188.796C208.314 189.235 208.538 189.851 208.538 190.644V195.53H207.418V190.756C207.418 189.683 206.868 189.146 205.766 189.146C205.244 189.146 204.782 189.342 204.38 189.734C203.979 190.126 203.778 190.695 203.778 191.442V195.53H202.658V188.306H203.722V189.384C204.273 188.553 205.029 188.138 205.99 188.138ZM215.889 194.662C215.226 195.353 214.386 195.698 213.369 195.698C212.352 195.698 211.512 195.353 210.849 194.662C210.196 193.981 209.869 193.066 209.869 191.918C209.869 190.77 210.196 189.855 210.849 189.174C211.512 188.483 212.352 188.138 213.369 188.138C214.386 188.138 215.226 188.483 215.889 189.174C216.542 189.855 216.869 190.77 216.869 191.918C216.869 193.066 216.542 193.981 215.889 194.662ZM211.675 193.948C212.095 194.443 212.66 194.69 213.369 194.69C214.078 194.69 214.643 194.443 215.063 193.948C215.483 193.463 215.693 192.786 215.693 191.918C215.693 191.041 215.483 190.359 215.063 189.874C214.643 189.389 214.078 189.146 213.369 189.146C212.66 189.146 212.095 189.389 211.675 189.874C211.255 190.359 211.045 191.041 211.045 191.918C211.045 192.786 211.255 193.463 211.675 193.948ZM221.745 188.138C222.763 188.138 223.579 188.479 224.195 189.16C224.802 189.851 225.105 190.77 225.105 191.918C225.105 193.057 224.802 193.971 224.195 194.662C223.579 195.353 222.763 195.698 221.745 195.698C220.709 195.698 219.902 195.297 219.323 194.494V198.274H218.203V188.306H219.267V189.426C219.846 188.567 220.672 188.138 221.745 188.138ZM221.605 194.69C222.305 194.69 222.865 194.438 223.285 193.934C223.715 193.421 223.929 192.73 223.929 191.862C223.929 191.013 223.719 190.35 223.299 189.874C222.889 189.389 222.324 189.146 221.605 189.146C220.896 189.146 220.331 189.389 219.911 189.874C219.491 190.359 219.281 191.041 219.281 191.918C219.281 192.786 219.491 193.463 219.911 193.948C220.331 194.443 220.896 194.69 221.605 194.69ZM232.205 194.62H232.611V195.53C232.424 195.558 232.219 195.572 231.995 195.572C231.239 195.572 230.833 195.227 230.777 194.536C230.273 195.311 229.489 195.698 228.425 195.698C227.632 195.698 227.006 195.516 226.549 195.152C226.101 194.779 225.877 194.256 225.877 193.584C225.877 192.277 226.768 191.531 228.551 191.344L229.587 191.232C230.343 191.148 230.721 190.817 230.721 190.238C230.721 189.837 230.595 189.547 230.343 189.37C230.1 189.193 229.685 189.104 229.097 189.104C228.472 189.104 228.019 189.211 227.739 189.426C227.468 189.631 227.314 190 227.277 190.532H226.157C226.25 188.936 227.23 188.138 229.097 188.138C230.908 188.138 231.813 188.838 231.813 190.238V194.27C231.813 194.503 231.944 194.62 232.205 194.62ZM228.481 194.746C229.078 194.746 229.601 194.564 230.049 194.2C230.497 193.845 230.721 193.337 230.721 192.674V191.82C230.516 191.979 230.198 192.081 229.769 192.128L228.719 192.254C228.112 192.329 227.678 192.469 227.417 192.674C227.165 192.879 227.039 193.173 227.039 193.556C227.039 193.929 227.16 194.223 227.403 194.438C227.646 194.643 228.005 194.746 228.481 194.746ZM238.358 192.394V188.306H239.478V195.53H238.414V194.452C237.863 195.283 237.107 195.698 236.146 195.698C235.343 195.698 234.718 195.479 234.27 195.04C233.822 194.601 233.598 193.985 233.598 193.192V188.306H234.718V193.08C234.718 194.153 235.268 194.69 236.37 194.69C236.892 194.69 237.354 194.494 237.756 194.102C238.157 193.71 238.358 193.141 238.358 192.394ZM243.706 195.698C241.774 195.698 240.752 194.877 240.64 193.234H241.774C241.84 193.775 242.017 194.163 242.306 194.396C242.605 194.62 243.072 194.732 243.706 194.732C244.864 194.732 245.442 194.359 245.442 193.612C245.442 193.285 245.321 193.038 245.078 192.87C244.845 192.702 244.416 192.557 243.79 192.436L243.118 192.31C241.616 192.03 240.864 191.321 240.864 190.182C240.864 189.557 241.098 189.062 241.564 188.698C242.04 188.325 242.684 188.138 243.496 188.138C245.41 188.138 246.39 188.936 246.436 190.532H245.316C245.288 190.009 245.13 189.641 244.84 189.426C244.551 189.211 244.103 189.104 243.496 189.104C243.011 189.104 242.638 189.197 242.376 189.384C242.115 189.571 241.984 189.832 241.984 190.168C241.984 190.485 242.096 190.723 242.32 190.882C242.544 191.041 242.918 191.176 243.44 191.288L244.084 191.414C244.971 191.591 245.606 191.843 245.988 192.17C246.38 192.497 246.576 192.954 246.576 193.542C246.576 194.223 246.32 194.755 245.806 195.138C245.302 195.511 244.602 195.698 243.706 195.698ZM253.994 191.918V192.31H248.506C248.562 193.094 248.781 193.687 249.164 194.088C249.546 194.48 250.069 194.676 250.732 194.676C251.73 194.676 252.37 194.228 252.65 193.332H253.812C253.616 194.06 253.252 194.639 252.72 195.068C252.188 195.488 251.516 195.698 250.704 195.698C249.705 195.698 248.898 195.357 248.282 194.676C247.656 193.995 247.344 193.075 247.344 191.918C247.344 190.779 247.652 189.865 248.268 189.174C248.874 188.483 249.677 188.138 250.676 188.138C251.712 188.138 252.524 188.497 253.112 189.216C253.7 189.935 253.994 190.835 253.994 191.918ZM250.676 189.16C250.088 189.16 249.607 189.347 249.234 189.72C248.86 190.084 248.627 190.611 248.534 191.302H252.79C252.734 190.667 252.519 190.154 252.146 189.762C251.772 189.361 251.282 189.16 250.676 189.16ZM265.744 191.568L266.766 188.306H267.97L265.562 195.53H264.386L263.322 192.184C262.958 190.999 262.716 190.182 262.594 189.734C262.38 190.499 262.132 191.316 261.852 192.184L260.802 195.53H259.626L257.218 188.306H258.422L259.444 191.568C259.696 192.361 259.958 193.239 260.228 194.2C260.527 193.136 260.784 192.259 260.998 191.568L262.006 188.306H263.182L264.19 191.568C264.704 193.276 264.965 194.144 264.974 194.172C265.049 193.883 265.306 193.015 265.744 191.568ZM269.965 187.214H268.775V185.842H269.965V187.214ZM269.937 195.53H268.817V188.306H269.937V195.53ZM274.783 188.306V189.286H273.299V193.976C273.299 194.387 273.575 194.592 274.125 194.592H274.783V195.53C274.475 195.558 274.209 195.572 273.985 195.572C272.781 195.572 272.179 195.073 272.179 194.074V189.286H270.989V188.306H272.179V186.262H273.299V188.306H274.783ZM279.299 188.138C280.102 188.138 280.727 188.357 281.175 188.796C281.623 189.235 281.847 189.851 281.847 190.644V195.53H280.727V190.756C280.727 189.683 280.176 189.146 279.075 189.146C278.552 189.146 278.09 189.342 277.689 189.734C277.288 190.126 277.087 190.695 277.087 191.442V195.53H275.967V185.562H277.087V189.3C277.638 188.525 278.375 188.138 279.299 188.138ZM292.998 189.846V185.562H294.174V195.53H292.998V190.938H287.44V195.53H286.264V185.562H287.44V189.846H292.998ZM303.32 192.646L303.418 194.256C303.465 194.816 303.586 195.241 303.782 195.53H302.564C302.359 195.231 302.251 194.788 302.242 194.2L302.2 193.136C302.172 192.464 302.023 191.988 301.752 191.708C301.481 191.419 301.038 191.274 300.422 191.274H297.174V195.53H295.998V185.562H300.212C301.239 185.562 302.055 185.8 302.662 186.276C303.278 186.752 303.586 187.419 303.586 188.278C303.586 188.885 303.437 189.398 303.138 189.818C302.849 190.229 302.452 190.518 301.948 190.686C302.788 190.947 303.245 191.601 303.32 192.646ZM297.174 190.21H300.352C300.977 190.21 301.467 190.051 301.822 189.734C302.186 189.407 302.368 188.945 302.368 188.348C302.368 187.779 302.177 187.349 301.794 187.06C301.421 186.771 300.893 186.626 300.212 186.626H297.174V190.21ZM303.721 185.562H311.715V186.626H308.327V195.53H307.109V186.626H303.721V185.562Z" fill="#F6F6F6"/>
<rect x="318" y="185.53" width="10" height="10" rx="5" fill="#CCFD56"/>
<path d="M339.263 191.064L341.489 185.562H343.029V195.53H341.881V192.338C341.881 190.238 341.895 188.544 341.923 187.256C341.699 187.872 341.405 188.628 341.041 189.524L338.577 195.53H337.569L335.091 189.524C334.727 188.628 334.433 187.872 334.209 187.256C334.237 188.544 334.251 190.238 334.251 192.338V195.53H333.103V185.562H334.643L336.953 191.232C337.299 192.081 337.677 193.038 338.087 194.102C338.657 192.59 339.049 191.577 339.263 191.064ZM350.617 194.62H351.023V195.53C350.836 195.558 350.631 195.572 350.407 195.572C349.651 195.572 349.245 195.227 349.189 194.536C348.685 195.311 347.901 195.698 346.837 195.698C346.044 195.698 345.418 195.516 344.961 195.152C344.513 194.779 344.289 194.256 344.289 193.584C344.289 192.277 345.18 191.531 346.963 191.344L347.999 191.232C348.755 191.148 349.133 190.817 349.133 190.238C349.133 189.837 349.007 189.547 348.755 189.37C348.512 189.193 348.097 189.104 347.509 189.104C346.884 189.104 346.431 189.211 346.151 189.426C345.88 189.631 345.726 190 345.689 190.532H344.569C344.662 188.936 345.642 188.138 347.509 188.138C349.32 188.138 350.225 188.838 350.225 190.238V194.27C350.225 194.503 350.356 194.62 350.617 194.62ZM346.893 194.746C347.49 194.746 348.013 194.564 348.461 194.2C348.909 193.845 349.133 193.337 349.133 192.674V191.82C348.928 191.979 348.61 192.081 348.181 192.128L347.131 192.254C346.524 192.329 346.09 192.469 345.829 192.674C345.577 192.879 345.451 193.173 345.451 193.556C345.451 193.929 345.572 194.223 345.815 194.438C346.058 194.643 346.417 194.746 346.893 194.746ZM353.062 195.53H351.942V185.562H353.062V195.53ZM361.044 191.918V192.31H355.556C355.612 193.094 355.832 193.687 356.214 194.088C356.597 194.48 357.12 194.676 357.782 194.676C358.781 194.676 359.42 194.228 359.7 193.332H360.862C360.666 194.06 360.302 194.639 359.77 195.068C359.238 195.488 358.566 195.698 357.754 195.698C356.756 195.698 355.948 195.357 355.332 194.676C354.707 193.995 354.394 193.075 354.394 191.918C354.394 190.779 354.702 189.865 355.318 189.174C355.925 188.483 356.728 188.138 357.726 188.138C358.762 188.138 359.574 188.497 360.162 189.216C360.75 189.935 361.044 190.835 361.044 191.918ZM357.726 189.16C357.138 189.16 356.658 189.347 356.284 189.72C355.911 190.084 355.678 190.611 355.584 191.302H359.84C359.784 190.667 359.57 190.154 359.196 189.762C358.823 189.361 358.333 189.16 357.726 189.16ZM364.853 195.698C362.921 195.698 361.899 194.877 361.787 193.234H362.921C362.986 193.775 363.164 194.163 363.453 194.396C363.752 194.62 364.218 194.732 364.853 194.732C366.01 194.732 366.589 194.359 366.589 193.612C366.589 193.285 366.468 193.038 366.225 192.87C365.992 192.702 365.562 192.557 364.937 192.436L364.265 192.31C362.762 192.03 362.011 191.321 362.011 190.182C362.011 189.557 362.244 189.062 362.711 188.698C363.187 188.325 363.831 188.138 364.643 188.138C366.556 188.138 367.536 188.936 367.583 190.532H366.463C366.435 190.009 366.276 189.641 365.987 189.426C365.698 189.211 365.25 189.104 364.643 189.104C364.158 189.104 363.784 189.197 363.523 189.384C363.262 189.571 363.131 189.832 363.131 190.168C363.131 190.485 363.243 190.723 363.467 190.882C363.691 191.041 364.064 191.176 364.587 191.288L365.231 191.414C366.118 191.591 366.752 191.843 367.135 192.17C367.527 192.497 367.723 192.954 367.723 193.542C367.723 194.223 367.466 194.755 366.953 195.138C366.449 195.511 365.749 195.698 364.853 195.698Z" fill="#F6F6F6"/>
<path d="M66 406.072L77.8036 413.101L89.0401 421.456C89.6588 421.916 90.475 422.013 91.1843 421.711L100.99 417.538C101.448 417.343 101.96 417.311 102.439 417.449L112.024 420.202C112.762 420.414 113.556 420.221 114.114 419.693L123.539 410.775C124.53 409.837 126.129 410.035 126.861 411.187L136.266 425.981C136.951 427.058 138.413 427.315 139.423 426.535L147.356 420.41C148.298 419.683 149.65 419.85 150.387 420.785L160.58 433.723C161.102 434.386 161.962 434.686 162.783 434.492L172.653 432.159C172.756 432.135 172.861 432.118 172.967 432.109L184.464 431.126C184.751 431.101 185.041 431.134 185.316 431.223L195.764 434.6C196.188 434.737 196.644 434.74 197.069 434.609L207.385 431.434C208.085 431.218 208.846 431.371 209.41 431.839L218.875 439.701C219.761 440.437 221.068 440.352 221.851 439.508L231.575 429.033C232.164 428.398 233.074 428.175 233.89 428.464L244.05 432.067C244.153 432.104 244.254 432.148 244.351 432.2L256.153 438.532L266.877 444.308C267.384 444.581 267.979 444.641 268.53 444.475L279.418 441.202C279.829 441.079 280.194 440.836 280.467 440.506L290.921 427.842C291.553 427.076 292.624 426.837 293.522 427.262L303.799 432.122L315.315 438.532L325.821 443.986C326.675 444.429 327.72 444.257 328.387 443.562L338.926 432.569C339.206 432.277 339.561 432.069 339.953 431.969L350.051 429.379C350.896 429.162 351.789 429.473 352.317 430.167L363.268 444.57C363.351 444.679 363.444 444.78 363.546 444.872L373.494 453.802C374.304 454.529 375.526 454.544 376.353 453.837L387 444.734" stroke="#B185FF" stroke-width="4" stroke-linecap="round"/>
<path d="M66 375.226L76.8673 371.393C77.4479 371.189 78.0881 371.24 78.6285 371.535L89.5643 377.505C89.7384 377.6 89.9247 377.671 90.1179 377.716L101.874 380.418L113.386 384.226L124.886 388.619C125.071 388.69 125.265 388.735 125.462 388.753L137.172 389.826C137.288 389.837 137.404 389.857 137.517 389.886L148.524 392.733C148.981 392.851 149.465 392.817 149.901 392.635L159.975 388.438C160.679 388.144 161.486 388.243 162.1 388.696L172.247 396.204C172.723 396.557 173.323 396.699 173.906 396.598L184.692 394.739C184.813 394.718 184.937 394.707 185.06 394.707H196.221C196.53 394.707 196.837 394.774 197.119 394.902L208.042 399.869C208.472 400.064 208.954 400.114 209.414 400.011L220.286 397.576C220.442 397.542 220.601 397.524 220.76 397.524H232.601H244.416L256.1 398.719L267.845 400.984C267.98 401.01 268.118 401.023 268.256 401.023H279.558C279.761 401.023 279.963 400.995 280.159 400.939L291.221 397.751C291.73 397.605 292.274 397.649 292.752 397.876L302.766 402.631C303.354 402.91 304.035 402.911 304.623 402.633L314.655 397.897C315.161 397.658 315.741 397.624 316.272 397.802L326.807 401.339C327.19 401.467 327.6 401.487 327.993 401.395L339.014 398.811C339.273 398.75 339.541 398.737 339.805 398.774L351.222 400.341L362.773 401.008C362.949 401.018 363.126 401.007 363.299 400.974L374.906 398.796C375.177 398.745 375.455 398.746 375.726 398.8L387 401.023" stroke="#CCFD56" stroke-width="4" stroke-linecap="round"/>
<path d="M66 270.072L77.8552 271.954C77.9677 271.972 78.0815 271.981 78.1955 271.981H89.8442C89.9802 271.981 90.1159 271.994 90.2494 272.02L101.264 274.114C101.438 274.147 101.608 274.201 101.769 274.276L112.375 279.182C112.61 279.291 112.863 279.357 113.122 279.376L125.198 280.287C125.429 280.304 125.662 280.284 125.887 280.228L137.053 277.437L148.537 275.044C149.088 274.929 149.661 275.033 150.137 275.333L160.298 281.74C160.644 281.959 161.046 282.075 161.455 282.075H172.167C172.439 282.075 172.71 282.126 172.963 282.226L183.731 286.476C184.122 286.63 184.55 286.667 184.962 286.583L195.834 284.363C196.176 284.293 196.53 284.307 196.866 284.403L207.783 287.532C208.176 287.644 208.593 287.644 208.985 287.53L219.314 284.535C219.923 284.359 220.579 284.458 221.109 284.806L231.621 291.713C231.975 291.946 232.389 292.069 232.812 292.069H243.549C244.051 292.069 244.538 291.895 244.927 291.576L255.171 283.158C255.944 282.522 257.052 282.498 257.852 283.1L266.935 289.928C267.572 290.407 268.42 290.498 269.144 290.166L278.953 285.664C279.527 285.4 280.188 285.4 280.763 285.664L291.317 290.507C291.6 290.638 291.909 290.705 292.222 290.705H303.634C303.818 290.705 304 290.682 304.177 290.636L314.735 287.908C315.245 287.777 315.786 287.835 316.256 288.072L327.416 293.706L338.46 297.715C339.08 297.941 339.77 297.871 340.333 297.526L351.038 290.969C351.321 290.795 351.64 290.689 351.97 290.659L362.789 289.651C363.176 289.615 363.566 289.684 363.917 289.85L374.534 294.863C374.824 295 375.14 295.071 375.46 295.071H387" stroke="#F6F6F6" stroke-width="4" stroke-linecap="round"/>
<path d="M34.734 261.148H36.064V262.744H34.734V265.04H32.844V262.744H28V260.952L32.662 255.072H34.734V261.148ZM32.886 261.148V257.102L29.68 261.148H32.886Z" fill="#F6F6F6"/>
<path d="M38.8383 265.04H36.7803V263.038H38.8383V265.04Z" fill="#F6F6F6"/>
<path d="M38.7555 256.668V255.072H45.5735V256.584C44.4442 257.778 43.6275 259.029 43.1235 260.336C42.6008 261.68 42.3255 263.248 42.2975 265.04H40.3375C40.3935 261.82 41.4948 259.029 43.6415 256.668H38.7555Z" fill="#F6F6F6"/>
<path d="M49.6033 258.488C50.686 258.488 51.5306 258.805 52.1373 259.44C52.7253 260.074 53.0193 260.863 53.0193 261.806C53.0193 262.842 52.674 263.677 51.9833 264.312C51.2926 264.946 50.3966 265.264 49.2953 265.264C48.278 265.264 47.424 264.988 46.7333 264.438C46.0613 263.896 45.688 263.15 45.6133 262.198H47.4193C47.4846 262.674 47.6853 263.052 48.0213 263.332C48.3666 263.602 48.7913 263.738 49.2953 263.738C49.8646 263.738 50.322 263.56 50.6673 263.206C51.022 262.842 51.1993 262.375 51.1993 261.806C51.1993 261.236 51.022 260.774 50.6673 260.42C50.322 260.056 49.8646 259.874 49.2953 259.874C48.4553 259.874 47.872 260.21 47.5453 260.882H45.8093L46.7333 255.072H52.5013V256.668H48.2173L47.7833 259.146C48.3246 258.707 48.9313 258.488 49.6033 258.488Z" fill="#F6F6F6"/>
<path d="M34.734 303.846H36.064V305.442H34.734V307.738H32.844V305.442H28V303.65L32.662 297.77H34.734V303.846ZM32.886 303.846V299.8L29.68 303.846H32.886Z" fill="#F6F6F6"/>
<path d="M38.8383 307.738H36.7803V305.736H38.8383V307.738Z" fill="#F6F6F6"/>
<path d="M45.8605 302.446C47.0178 302.894 47.5965 303.715 47.5965 304.91C47.5965 305.843 47.2465 306.58 46.5465 307.122C45.8372 307.682 44.8852 307.962 43.6905 307.962C42.4958 307.962 41.5485 307.682 40.8485 307.122C40.1485 306.58 39.7985 305.843 39.7985 304.91C39.7985 303.734 40.3725 302.912 41.5205 302.446C40.6432 301.988 40.2045 301.274 40.2045 300.304C40.2045 299.454 40.5265 298.782 41.1705 298.288C41.8238 297.793 42.6638 297.546 43.6905 297.546C44.7172 297.546 45.5572 297.793 46.2105 298.288C46.8545 298.782 47.1765 299.454 47.1765 300.304C47.1765 301.274 46.7378 301.988 45.8605 302.446ZM45.4545 300.416C45.4545 299.958 45.2958 299.604 44.9785 299.352C44.6612 299.1 44.2318 298.974 43.6905 298.974C43.1678 298.974 42.7432 299.1 42.4165 299.352C42.0898 299.604 41.9265 299.958 41.9265 300.416C41.9265 300.854 42.0852 301.2 42.4025 301.452C42.7198 301.704 43.1492 301.83 43.6905 301.83C44.2318 301.83 44.6612 301.704 44.9785 301.452C45.2958 301.2 45.4545 300.854 45.4545 300.416ZM43.6905 306.45C44.3345 306.45 44.8292 306.305 45.1745 306.016C45.5292 305.726 45.7065 305.32 45.7065 304.798C45.7065 304.266 45.5292 303.855 45.1745 303.566C44.8198 303.276 44.3252 303.132 43.6905 303.132C43.0558 303.132 42.5612 303.276 42.2065 303.566C41.8518 303.855 41.6745 304.266 41.6745 304.798C41.6745 305.32 41.8518 305.726 42.2065 306.016C42.5612 306.305 43.0558 306.45 43.6905 306.45Z" fill="#F6F6F6"/>
<path d="M55.4701 306.618C54.7887 307.514 53.7947 307.962 52.4881 307.962C51.1814 307.962 50.1874 307.514 49.5061 306.618C48.8341 305.722 48.4981 304.434 48.4981 302.754C48.4981 301.074 48.8341 299.786 49.5061 298.89C50.1874 297.994 51.1814 297.546 52.4881 297.546C53.7947 297.546 54.7887 297.994 55.4701 298.89C56.1514 299.786 56.4921 301.074 56.4921 302.754C56.4921 304.434 56.1514 305.722 55.4701 306.618ZM52.4881 306.366C53.8414 306.366 54.5181 305.162 54.5181 302.754C54.5181 300.346 53.8414 299.142 52.4881 299.142C51.1441 299.142 50.4721 300.346 50.4721 302.754C50.4721 305.162 51.1441 306.366 52.4881 306.366Z" fill="#F6F6F6"/>
<path d="M34.734 346.543H36.064V348.139H34.734V350.435H32.844V348.139H28V346.347L32.662 340.467H34.734V346.543ZM32.886 346.543V342.497L29.68 346.543H32.886Z" fill="#F6F6F6"/>
<path d="M38.8383 350.435H36.7803V348.433H38.8383V350.435Z" fill="#F6F6F6"/>
<path d="M38.7555 342.063V340.467H45.5735V341.979C44.4442 343.174 43.6275 344.425 43.1235 345.731C42.6008 347.075 42.3255 348.643 42.2975 350.435H40.3375C40.3935 347.215 41.4948 344.425 43.6415 342.063H38.7555Z" fill="#F6F6F6"/>
<path d="M52.7494 349.315C52.068 350.211 51.074 350.659 49.7674 350.659C48.4607 350.659 47.4667 350.211 46.7854 349.315C46.1134 348.419 45.7774 347.131 45.7774 345.451C45.7774 343.771 46.1134 342.483 46.7854 341.587C47.4667 340.691 48.4607 340.243 49.7674 340.243C51.074 340.243 52.068 340.691 52.7494 341.587C53.4307 342.483 53.7714 343.771 53.7714 345.451C53.7714 347.131 53.4307 348.419 52.7494 349.315ZM49.7674 349.063C51.1207 349.063 51.7974 347.859 51.7974 345.451C51.7974 343.043 51.1207 341.839 49.7674 341.839C48.4234 341.839 47.7514 343.043 47.7514 345.451C47.7514 347.859 48.4234 349.063 49.7674 349.063Z" fill="#F6F6F6"/>
<path d="M34.734 389.241H36.064V390.837H34.734V393.133H32.844V390.837H28V389.045L32.662 383.165H34.734V389.241ZM32.886 389.241V385.195L29.68 389.241H32.886Z" fill="#F6F6F6"/>
<path d="M38.8383 393.133H36.7803V391.131H38.8383V393.133Z" fill="#F6F6F6"/>
<path d="M43.7443 386.581C44.799 386.581 45.6296 386.898 46.2363 387.533C46.8336 388.168 47.1323 388.956 47.1323 389.899C47.1323 390.944 46.7916 391.78 46.1103 392.405C45.4196 393.04 44.5283 393.357 43.4363 393.357C42.503 393.357 41.7143 393.119 41.0703 392.643C40.0156 391.84 39.4883 390.389 39.4883 388.289C39.4883 386.572 39.829 385.251 40.5103 384.327C41.1916 383.403 42.1763 382.941 43.4643 382.941C44.4256 382.941 45.219 383.188 45.8443 383.683C46.4696 384.168 46.8523 384.845 46.9923 385.713H45.2143C45.037 384.836 44.4583 384.397 43.4783 384.397C42.7503 384.397 42.2043 384.672 41.8403 385.223C41.4856 385.774 41.2896 386.642 41.2523 387.827C41.8123 386.996 42.643 386.581 43.7443 386.581ZM41.5463 389.927C41.5463 390.487 41.7236 390.944 42.0783 391.299C42.433 391.654 42.8856 391.831 43.4363 391.831C43.987 391.831 44.4396 391.654 44.7943 391.299C45.1303 390.954 45.2983 390.496 45.2983 389.927C45.2983 389.367 45.1256 388.91 44.7803 388.555C44.435 388.2 43.987 388.023 43.4363 388.023C42.8763 388.023 42.419 388.2 42.0643 388.555C41.719 388.91 41.5463 389.367 41.5463 389.927Z" fill="#F6F6F6"/>
<path d="M51.9002 386.581C52.9829 386.581 53.8275 386.898 54.4342 387.533C55.0222 388.168 55.3162 388.956 55.3162 389.899C55.3162 390.935 54.9709 391.77 54.2802 392.405C53.5895 393.04 52.6935 393.357 51.5922 393.357C50.5749 393.357 49.7209 393.082 49.0302 392.531C48.3582 391.99 47.9849 391.243 47.9102 390.291H49.7162C49.7815 390.767 49.9822 391.145 50.3182 391.425C50.6635 391.696 51.0882 391.831 51.5922 391.831C52.1615 391.831 52.6189 391.654 52.9642 391.299C53.3189 390.935 53.4962 390.468 53.4962 389.899C53.4962 389.33 53.3189 388.868 52.9642 388.513C52.6189 388.149 52.1615 387.967 51.5922 387.967C50.7522 387.967 50.1689 388.303 49.8422 388.975H48.1062L49.0302 383.165H54.7982V384.761H50.5142L50.0802 387.239C50.6215 386.8 51.2282 386.581 51.9002 386.581Z" fill="#F6F6F6"/>
<path d="M34.734 431.939H36.064V433.535H34.734V435.831H32.844V433.535H28V431.743L32.662 425.863H34.734V431.939ZM32.886 431.939V427.893L29.68 431.939H32.886Z" fill="#F6F6F6"/>
<path d="M38.8383 435.831H36.7803V433.829H38.8383V435.831Z" fill="#F6F6F6"/>
<path d="M43.7443 429.279C44.799 429.279 45.6296 429.596 46.2363 430.231C46.8336 430.865 47.1323 431.654 47.1323 432.597C47.1323 433.642 46.7916 434.477 46.1103 435.103C45.4196 435.737 44.5283 436.055 43.4363 436.055C42.503 436.055 41.7143 435.817 41.0703 435.341C40.0156 434.538 39.4883 433.087 39.4883 430.987C39.4883 429.269 39.829 427.949 40.5103 427.025C41.1916 426.101 42.1763 425.639 43.4643 425.639C44.4256 425.639 45.219 425.886 45.8443 426.381C46.4696 426.866 46.8523 427.543 46.9923 428.411H45.2143C45.037 427.533 44.4583 427.095 43.4783 427.095C42.7503 427.095 42.2043 427.37 41.8403 427.921C41.4856 428.471 41.2896 429.339 41.2523 430.525C41.8123 429.694 42.643 429.279 43.7443 429.279ZM41.5463 432.625C41.5463 433.185 41.7236 433.642 42.0783 433.997C42.433 434.351 42.8856 434.529 43.4363 434.529C43.987 434.529 44.4396 434.351 44.7943 433.997C45.1303 433.651 45.2983 433.194 45.2983 432.625C45.2983 432.065 45.1256 431.607 44.7803 431.253C44.435 430.898 43.987 430.721 43.4363 430.721C42.8763 430.721 42.419 430.898 42.0643 431.253C41.719 431.607 41.5463 432.065 41.5463 432.625Z" fill="#F6F6F6"/>
<path d="M55.1009 434.711C54.4196 435.607 53.4256 436.055 52.1189 436.055C50.8123 436.055 49.8183 435.607 49.1369 434.711C48.4649 433.815 48.1289 432.527 48.1289 430.847C48.1289 429.167 48.4649 427.879 49.1369 426.983C49.8183 426.087 50.8123 425.639 52.1189 425.639C53.4256 425.639 54.4196 426.087 55.1009 426.983C55.7823 427.879 56.1229 429.167 56.1229 430.847C56.1229 432.527 55.7823 433.815 55.1009 434.711ZM52.1189 434.459C53.4723 434.459 54.1489 433.255 54.1489 430.847C54.1489 428.439 53.4723 427.235 52.1189 427.235C50.7749 427.235 50.1029 428.439 50.1029 430.847C50.1029 433.255 50.7749 434.459 52.1189 434.459Z" fill="#F6F6F6"/>
<path d="M35.1025 232.002C35.1025 232.963 34.8971 233.705 34.4865 234.228C34.0758 234.75 33.4691 235.012 32.6665 235.012C31.8638 235.012 31.2571 234.75 30.8465 234.228C30.4358 233.705 30.2305 232.963 30.2305 232.002C30.2305 231.022 30.4358 230.275 30.8465 229.762C31.2571 229.239 31.8638 228.978 32.6665 228.978C33.4691 228.978 34.0758 229.239 34.4865 229.762C34.8971 230.275 35.1025 231.022 35.1025 232.002ZM34.2345 239.072H32.9605L38.2805 229.104H39.5545L34.2345 239.072ZM31.6165 232.002C31.6165 233.262 31.9665 233.892 32.6665 233.892C33.3665 233.892 33.7165 233.262 33.7165 232.002C33.7165 230.732 33.3665 230.098 32.6665 230.098C31.9665 230.098 31.6165 230.732 31.6165 232.002ZM42.2845 236.188C42.2845 237.149 42.0791 237.891 41.6685 238.414C41.2578 238.936 40.6511 239.198 39.8485 239.198C39.0458 239.198 38.4391 238.936 38.0285 238.414C37.6178 237.891 37.4125 237.149 37.4125 236.188C37.4125 235.208 37.6178 234.461 38.0285 233.948C38.4391 233.425 39.0458 233.164 39.8485 233.164C40.6511 233.164 41.2578 233.425 41.6685 233.948C42.0791 234.461 42.2845 235.208 42.2845 236.188ZM39.8485 238.078C40.5485 238.078 40.8985 237.448 40.8985 236.188C40.8985 234.918 40.5485 234.284 39.8485 234.284C39.1391 234.284 38.7845 234.918 38.7845 236.188C38.7845 237.448 39.1391 238.078 39.8485 238.078Z" fill="#F6F6F6"/>
<path d="M47.7916 239.296C46.3543 239.296 45.1923 238.824 44.3056 237.882C43.4096 236.939 42.9616 235.674 42.9616 234.088C42.9616 232.492 43.4049 231.222 44.2916 230.28C45.1689 229.346 46.3356 228.88 47.7916 228.88C48.9583 228.88 49.9523 229.192 50.7736 229.818C51.5949 230.443 52.1083 231.348 52.3136 232.534H50.3956C50.2276 231.88 49.9149 231.386 49.4576 231.05C49.0096 230.704 48.4543 230.532 47.7916 230.532C46.9049 230.532 46.2049 230.849 45.6916 231.484C45.1876 232.109 44.9356 232.977 44.9356 234.088C44.9356 235.208 45.1876 236.08 45.6916 236.706C46.1956 237.331 46.8956 237.644 47.7916 237.644C48.4823 237.644 49.0749 237.438 49.5696 237.028C50.0643 236.617 50.3629 236.048 50.4656 235.32H52.3556C52.2343 236.589 51.7396 237.569 50.8716 238.26C50.0129 238.95 48.9863 239.296 47.7916 239.296Z" fill="#F6F6F6"/>
<path d="M61.7021 237.868C60.7875 238.82 59.5835 239.296 58.0901 239.296C56.5968 239.296 55.3928 238.82 54.4781 237.868C53.5635 236.906 53.1061 235.646 53.1061 234.088C53.1061 232.529 53.5635 231.269 54.4781 230.308C55.3928 229.356 56.5968 228.88 58.0901 228.88C59.5835 228.88 60.7875 229.356 61.7021 230.308C62.6075 231.25 63.0601 232.51 63.0601 234.088C63.0601 235.665 62.6075 236.925 61.7021 237.868ZM55.0801 234.088C55.0801 235.18 55.3555 236.043 55.9061 236.678C56.4568 237.312 57.1848 237.63 58.0901 237.63C59.0048 237.63 59.7375 237.312 60.2881 236.678C60.8295 236.052 61.1001 235.189 61.1001 234.088C61.1001 232.986 60.8295 232.123 60.2881 231.498C59.7375 230.863 59.0048 230.546 58.0901 230.546C57.1848 230.546 56.4568 230.863 55.9061 231.498C55.3555 232.132 55.0801 232.996 55.0801 234.088Z" fill="#F6F6F6"/>
<path d="M64.5937 240.696H67.5477V241.816H63.0677L63.0957 241.312C63.161 240.164 63.7584 239.347 64.8877 238.862L65.3077 238.68C65.905 238.418 66.2037 238.101 66.2037 237.728C66.2037 237.261 65.9237 237.028 65.3637 237.028C65.0837 237.028 64.8644 237.107 64.7057 237.266C64.547 237.424 64.4677 237.653 64.4677 237.952H63.1657C63.203 237.308 63.4084 236.808 63.7817 236.454C64.155 236.09 64.687 235.908 65.3777 235.908C66.0404 235.908 66.563 236.071 66.9457 236.398C67.3284 236.724 67.5197 237.144 67.5197 237.658C67.5197 238.124 67.389 238.512 67.1277 238.82C66.8664 239.128 66.4417 239.408 65.8537 239.66L65.4617 239.842C64.9484 240.075 64.659 240.36 64.5937 240.696Z" fill="#F6F6F6"/>
<path d="M68.2852 239.072V237.07H70.3432V239.226C70.3432 240.542 69.7412 241.223 68.5372 241.27H68.2852V240.262L68.5232 240.248C68.9525 240.22 69.1672 239.907 69.1672 239.31V239.072H68.2852Z" fill="#F6F6F6"/>
<path d="M80.4579 229.65C81.5125 230.452 82.0399 231.904 82.0399 234.004C82.0399 235.702 81.7039 237.018 81.0319 237.952C80.3692 238.885 79.4079 239.352 78.1479 239.352C77.1585 239.352 76.3419 239.109 75.6979 238.624C75.0632 238.129 74.6805 237.448 74.5499 236.58H76.3139C76.4912 237.457 77.0979 237.896 78.1339 237.896C78.8339 237.896 79.3565 237.62 79.7019 237.07C80.0472 236.519 80.2385 235.651 80.2759 234.466C79.7159 235.296 78.8852 235.712 77.7839 235.712C76.7385 235.712 75.9125 235.39 75.3059 234.746C74.6992 234.111 74.3959 233.332 74.3959 232.408C74.3959 231.372 74.7412 230.532 75.4319 229.888C76.1225 229.253 77.0139 228.936 78.1059 228.936C79.0299 228.936 79.8139 229.174 80.4579 229.65ZM76.7479 233.738C77.1025 234.092 77.5552 234.27 78.1059 234.27C78.6565 234.27 79.1092 234.092 79.4639 233.738C79.8092 233.392 79.9819 232.935 79.9819 232.366C79.9819 231.806 79.8092 231.348 79.4639 230.994C79.1185 230.639 78.6659 230.462 78.1059 230.462C77.5552 230.462 77.1025 230.644 76.7479 231.008C76.4025 231.362 76.2299 231.815 76.2299 232.366C76.2299 232.935 76.4025 233.392 76.7479 233.738Z" fill="#F6F6F6"/>
<path d="M86.9598 232.52C88.0424 232.52 88.8871 232.837 89.4938 233.472C90.0818 234.106 90.3758 234.895 90.3758 235.838C90.3758 236.874 90.0304 237.709 89.3398 238.344C88.6491 238.978 87.7531 239.296 86.6518 239.296C85.6344 239.296 84.7804 239.02 84.0898 238.47C83.4178 237.928 83.0444 237.182 82.9698 236.23H84.7758C84.8411 236.706 85.0418 237.084 85.3778 237.364C85.7231 237.634 86.1478 237.77 86.6518 237.77C87.2211 237.77 87.6784 237.592 88.0238 237.238C88.3784 236.874 88.5558 236.407 88.5558 235.838C88.5558 235.268 88.3784 234.806 88.0238 234.452C87.6784 234.088 87.2211 233.906 86.6518 233.906C85.8118 233.906 85.2284 234.242 84.9018 234.914H83.1658L84.0898 229.104H89.8578V230.7H85.5738L85.1398 233.178C85.6811 232.739 86.2878 232.52 86.9598 232.52Z" fill="#F6F6F6"/>
<path d="M95.8603 232.002C95.8603 232.963 95.6549 233.705 95.2443 234.228C94.8336 234.75 94.2269 235.012 93.4243 235.012C92.6216 235.012 92.0149 234.75 91.6043 234.228C91.1936 233.705 90.9883 232.963 90.9883 232.002C90.9883 231.022 91.1936 230.275 91.6043 229.762C92.0149 229.239 92.6216 228.978 93.4243 228.978C94.2269 228.978 94.8336 229.239 95.2443 229.762C95.6549 230.275 95.8603 231.022 95.8603 232.002ZM94.9923 239.072H93.7183L99.0383 229.104H100.312L94.9923 239.072ZM92.3743 232.002C92.3743 233.262 92.7243 233.892 93.4243 233.892C94.1243 233.892 94.4743 233.262 94.4743 232.002C94.4743 230.732 94.1243 230.098 93.4243 230.098C92.7243 230.098 92.3743 230.732 92.3743 232.002ZM103.042 236.188C103.042 237.149 102.837 237.891 102.426 238.414C102.016 238.936 101.409 239.198 100.606 239.198C99.8036 239.198 99.1969 238.936 98.7863 238.414C98.3756 237.891 98.1703 237.149 98.1703 236.188C98.1703 235.208 98.3756 234.461 98.7863 233.948C99.1969 233.425 99.8036 233.164 100.606 233.164C101.409 233.164 102.016 233.425 102.426 233.948C102.837 234.461 103.042 235.208 103.042 236.188ZM100.606 238.078C101.306 238.078 101.656 237.448 101.656 236.188C101.656 234.918 101.306 234.284 100.606 234.284C99.897 234.284 99.5423 234.918 99.5423 236.188C99.5423 237.448 99.897 238.078 100.606 238.078Z" fill="#F6F6F6"/>
<path d="M108.549 239.296C107.112 239.296 105.95 238.824 105.063 237.882C104.167 236.939 103.719 235.674 103.719 234.088C103.719 232.492 104.163 231.222 105.049 230.28C105.927 229.346 107.093 228.88 108.549 228.88C109.716 228.88 110.71 229.192 111.531 229.818C112.353 230.443 112.866 231.348 113.071 232.534H111.153C110.985 231.88 110.673 231.386 110.215 231.05C109.767 230.704 109.212 230.532 108.549 230.532C107.663 230.532 106.963 230.849 106.449 231.484C105.945 232.109 105.693 232.977 105.693 234.088C105.693 235.208 105.945 236.08 106.449 236.706C106.953 237.331 107.653 237.644 108.549 237.644C109.24 237.644 109.833 237.438 110.327 237.028C110.822 236.617 111.121 236.048 111.223 235.32H113.113C112.992 236.589 112.497 237.569 111.629 238.26C110.771 238.95 109.744 239.296 108.549 239.296Z" fill="#F6F6F6"/>
<path d="M116.174 239.072H114.284V229.104H116.174V239.072Z" fill="#F6F6F6"/>
<path d="M367.69 498.126H372.828V499.722H365.576L365.618 498.98C365.655 498.215 365.814 497.529 366.094 496.922C366.44 496.166 367.154 495.541 368.236 495.046L369.216 494.542C369.795 494.262 370.206 493.977 370.448 493.688C370.691 493.399 370.812 493.039 370.812 492.61C370.812 492.153 370.668 491.793 370.378 491.532C370.089 491.261 369.687 491.126 369.174 491.126C368.026 491.126 367.452 491.733 367.452 492.946H365.632C365.623 491.873 365.926 491.037 366.542 490.44C367.168 489.833 368.063 489.53 369.23 489.53C370.303 489.53 371.153 489.801 371.778 490.342C372.404 490.883 372.716 491.593 372.716 492.47C372.716 493.226 372.506 493.87 372.086 494.402C371.666 494.925 370.999 495.415 370.084 495.872L369.16 496.362C368.638 496.642 368.269 496.908 368.054 497.16C367.849 497.403 367.728 497.725 367.69 498.126Z" fill="#F6F6F6"/>
<path d="M379.687 494.43C380.845 494.878 381.423 495.699 381.423 496.894C381.423 497.827 381.073 498.565 380.373 499.106C379.664 499.666 378.712 499.946 377.517 499.946C376.323 499.946 375.375 499.666 374.675 499.106C373.975 498.565 373.625 497.827 373.625 496.894C373.625 495.718 374.199 494.897 375.347 494.43C374.47 493.973 374.031 493.259 374.031 492.288C374.031 491.439 374.353 490.767 374.997 490.272C375.651 489.777 376.491 489.53 377.517 489.53C378.544 489.53 379.384 489.777 380.037 490.272C380.681 490.767 381.003 491.439 381.003 492.288C381.003 493.259 380.565 493.973 379.687 494.43ZM379.281 492.4C379.281 491.943 379.123 491.588 378.805 491.336C378.488 491.084 378.059 490.958 377.517 490.958C376.995 490.958 376.57 491.084 376.243 491.336C375.917 491.588 375.753 491.943 375.753 492.4C375.753 492.839 375.912 493.184 376.229 493.436C376.547 493.688 376.976 493.814 377.517 493.814C378.059 493.814 378.488 493.688 378.805 493.436C379.123 493.184 379.281 492.839 379.281 492.4ZM377.517 498.434C378.161 498.434 378.656 498.289 379.001 498C379.356 497.711 379.533 497.305 379.533 496.782C379.533 496.25 379.356 495.839 379.001 495.55C378.647 495.261 378.152 495.116 377.517 495.116C376.883 495.116 376.388 495.261 376.033 495.55C375.679 495.839 375.501 496.25 375.501 496.782C375.501 497.305 375.679 497.711 376.033 498C376.388 498.289 376.883 498.434 377.517 498.434Z" fill="#F6F6F6"/>
<path d="M290.44 498.126H295.578V499.722H288.326L288.368 498.98C288.406 498.215 288.564 497.529 288.844 496.922C289.19 496.166 289.904 495.541 290.986 495.046L291.966 494.542C292.545 494.262 292.955 493.977 293.198 493.688C293.441 493.399 293.562 493.039 293.562 492.61C293.562 492.153 293.418 491.793 293.128 491.532C292.839 491.261 292.438 491.126 291.924 491.126C290.776 491.126 290.202 491.733 290.202 492.946H288.382C288.373 491.873 288.676 491.037 289.292 490.44C289.918 489.833 290.814 489.53 291.98 489.53C293.054 489.53 293.903 489.801 294.528 490.342C295.154 490.883 295.466 491.593 295.466 492.47C295.466 493.226 295.256 493.87 294.836 494.402C294.416 494.925 293.749 495.415 292.834 495.872L291.91 496.362C291.388 496.642 291.019 496.908 290.804 497.16C290.599 497.403 290.478 497.725 290.44 498.126Z" fill="#F6F6F6"/>
<path d="M298.698 498.126H303.836V499.722H296.584L296.626 498.98C296.663 498.215 296.822 497.529 297.102 496.922C297.447 496.166 298.161 495.541 299.244 495.046L300.224 494.542C300.803 494.262 301.213 493.977 301.456 493.688C301.699 493.399 301.82 493.039 301.82 492.61C301.82 492.153 301.675 491.793 301.386 491.532C301.097 491.261 300.695 491.126 300.182 491.126C299.034 491.126 298.46 491.733 298.46 492.946H296.64C296.631 491.873 296.934 491.037 297.55 490.44C298.175 489.833 299.071 489.53 300.238 489.53C301.311 489.53 302.161 489.801 302.786 490.342C303.411 490.883 303.724 491.593 303.724 492.47C303.724 493.226 303.514 493.87 303.094 494.402C302.674 494.925 302.007 495.415 301.092 495.872L300.168 496.362C299.645 496.642 299.277 496.908 299.062 497.16C298.857 497.403 298.735 497.725 298.698 498.126Z" fill="#F6F6F6"/>
<path d="M215.708 489.754H217.206V499.722H215.316V493.002H213.02V491.672L213.244 491.658C213.972 491.611 214.528 491.448 214.91 491.168C215.302 490.879 215.568 490.407 215.708 489.754Z" fill="#F6F6F6"/>
<path d="M222.856 493.17C223.911 493.17 224.742 493.487 225.348 494.122C225.946 494.757 226.244 495.545 226.244 496.488C226.244 497.533 225.904 498.369 225.222 498.994C224.532 499.629 223.64 499.946 222.548 499.946C221.615 499.946 220.826 499.708 220.182 499.232C219.128 498.429 218.6 496.978 218.6 494.878C218.6 493.161 218.941 491.84 219.622 490.916C220.304 489.992 221.288 489.53 222.576 489.53C223.538 489.53 224.331 489.777 224.956 490.272C225.582 490.757 225.964 491.434 226.104 492.302H224.326C224.149 491.425 223.57 490.986 222.59 490.986C221.862 490.986 221.316 491.261 220.952 491.812C220.598 492.363 220.402 493.231 220.364 494.416C220.924 493.585 221.755 493.17 222.856 493.17ZM220.658 496.516C220.658 497.076 220.836 497.533 221.19 497.888C221.545 498.243 221.998 498.42 222.548 498.42C223.099 498.42 223.552 498.243 223.906 497.888C224.242 497.543 224.41 497.085 224.41 496.516C224.41 495.956 224.238 495.499 223.892 495.144C223.547 494.789 223.099 494.612 222.548 494.612C221.988 494.612 221.531 494.789 221.176 495.144C220.831 495.499 220.658 495.956 220.658 496.516Z" fill="#F6F6F6"/>
<path d="M149.734 494.43C150.892 494.878 151.47 495.699 151.47 496.894C151.47 497.827 151.12 498.565 150.42 499.106C149.711 499.666 148.759 499.946 147.564 499.946C146.37 499.946 145.422 499.666 144.722 499.106C144.022 498.565 143.672 497.827 143.672 496.894C143.672 495.718 144.246 494.897 145.394 494.43C144.517 493.973 144.078 493.259 144.078 492.288C144.078 491.439 144.4 490.767 145.044 490.272C145.698 489.777 146.538 489.53 147.564 489.53C148.591 489.53 149.431 489.777 150.084 490.272C150.728 490.767 151.05 491.439 151.05 492.288C151.05 493.259 150.612 493.973 149.734 494.43ZM149.328 492.4C149.328 491.943 149.17 491.588 148.852 491.336C148.535 491.084 148.106 490.958 147.564 490.958C147.042 490.958 146.617 491.084 146.29 491.336C145.964 491.588 145.8 491.943 145.8 492.4C145.8 492.839 145.959 493.184 146.276 493.436C146.594 493.688 147.023 493.814 147.564 493.814C148.106 493.814 148.535 493.688 148.852 493.436C149.17 493.184 149.328 492.839 149.328 492.4ZM147.564 498.434C148.208 498.434 148.703 498.289 149.048 498C149.403 497.711 149.58 497.305 149.58 496.782C149.58 496.25 149.403 495.839 149.048 495.55C148.694 495.261 148.199 495.116 147.564 495.116C146.93 495.116 146.435 495.261 146.08 495.55C145.726 495.839 145.548 496.25 145.548 496.782C145.548 497.305 145.726 497.711 146.08 498C146.435 498.289 146.93 498.434 147.564 498.434Z" fill="#F6F6F6"/>
<path d="M76.6902 498.126H81.8282V499.722H74.5762L74.6182 498.98C74.6555 498.215 74.8142 497.529 75.0942 496.922C75.4395 496.166 76.1535 495.541 77.2362 495.046L78.2162 494.542C78.7948 494.262 79.2055 493.977 79.4482 493.688C79.6908 493.399 79.8122 493.039 79.8122 492.61C79.8122 492.153 79.6675 491.793 79.3782 491.532C79.0888 491.261 78.6875 491.126 78.1742 491.126C77.0262 491.126 76.4522 491.733 76.4522 492.946H74.6322C74.6228 491.873 74.9262 491.037 75.5422 490.44C76.1675 489.833 77.0635 489.53 78.2302 489.53C79.3035 489.53 80.1528 489.801 80.7782 490.342C81.4035 490.883 81.7162 491.593 81.7162 492.47C81.7162 493.226 81.5062 493.87 81.0862 494.402C80.6662 494.925 79.9988 495.415 79.0842 495.872L78.1602 496.362C77.6375 496.642 77.2688 496.908 77.0542 497.16C76.8488 497.403 76.7275 497.725 76.6902 498.126Z" fill="#F6F6F6"/>
<path d="M164.494 526.362C163.057 526.362 161.895 525.891 161.008 524.948C160.112 524.005 159.664 522.741 159.664 521.154C159.664 519.558 160.107 518.289 160.994 517.346C161.871 516.413 163.038 515.946 164.494 515.946C165.661 515.946 166.655 516.259 167.476 516.884C168.297 517.509 168.811 518.415 169.016 519.6H167.098C166.93 518.947 166.617 518.452 166.16 518.116C165.712 517.771 165.157 517.598 164.494 517.598C163.607 517.598 162.907 517.915 162.394 518.55C161.89 519.175 161.638 520.043 161.638 521.154C161.638 522.274 161.89 523.147 162.394 523.772C162.898 524.397 163.598 524.71 164.494 524.71C165.185 524.71 165.777 524.505 166.272 524.094C166.767 523.683 167.065 523.114 167.168 522.386H169.058C168.937 523.655 168.442 524.635 167.574 525.326C166.715 526.017 165.689 526.362 164.494 526.362Z" fill="#F6F6F6"/>
<path d="M174.261 520.734L174.849 518.914H176.697L173.911 526.726C173.612 527.547 173.239 528.112 172.791 528.42C172.333 528.737 171.671 528.896 170.803 528.896C170.513 528.896 170.257 528.882 170.033 528.854V527.468H170.705C171.087 527.468 171.381 527.361 171.587 527.146C171.792 526.931 171.895 526.651 171.895 526.306C171.895 525.961 171.783 525.475 171.559 524.85L169.459 518.914H171.363L171.951 520.72C172.361 522.008 172.744 523.352 173.099 524.752C173.379 523.697 173.766 522.358 174.261 520.734Z" fill="#F6F6F6"/>
<path d="M180.324 526.306C179.26 526.306 178.397 525.961 177.734 525.27C177.081 524.589 176.754 523.674 176.754 522.526C176.754 521.369 177.081 520.449 177.734 519.768C178.378 519.087 179.241 518.746 180.324 518.746C181.267 518.746 182.037 518.998 182.634 519.502C183.231 519.997 183.581 520.669 183.684 521.518H181.92C181.836 521.098 181.654 520.776 181.374 520.552C181.094 520.328 180.744 520.216 180.324 520.216C179.773 520.216 179.339 520.417 179.022 520.818C178.714 521.21 178.56 521.779 178.56 522.526C178.56 523.273 178.719 523.847 179.036 524.248C179.353 524.64 179.783 524.836 180.324 524.836C180.753 524.836 181.113 524.719 181.402 524.486C181.701 524.243 181.883 523.898 181.948 523.45H183.712C183.619 524.318 183.264 525.013 182.648 525.536C182.032 526.049 181.257 526.306 180.324 526.306Z" fill="#F6F6F6"/>
<path d="M186.441 526.138H184.677V516.17H186.441V526.138Z" fill="#F6F6F6"/>
<path d="M194.681 522.652V523.072H189.277C189.342 523.688 189.534 524.155 189.851 524.472C190.178 524.78 190.612 524.934 191.153 524.934C191.956 524.934 192.506 524.589 192.805 523.898H194.499C194.312 524.635 193.92 525.223 193.323 525.662C192.726 526.091 191.998 526.306 191.139 526.306C190.066 526.306 189.198 525.961 188.535 525.27C187.872 524.579 187.541 523.665 187.541 522.526C187.541 521.387 187.868 520.473 188.521 519.782C189.184 519.091 190.047 518.746 191.111 518.746C192.203 518.746 193.071 519.105 193.715 519.824C194.359 520.543 194.681 521.485 194.681 522.652ZM191.097 520.118C190.061 520.118 189.459 520.692 189.291 521.84H192.917C192.842 521.308 192.646 520.888 192.329 520.58C192.012 520.272 191.601 520.118 191.097 520.118Z" fill="#F6F6F6"/>
<path d="M208.726 520.188L209.776 516.17H211.736L208.978 526.138H206.85L205.786 521.994C205.347 520.174 205.076 518.998 204.974 518.466C204.712 519.707 204.442 520.883 204.162 521.994L203.098 526.138H200.984L198.212 516.17H200.186L201.222 520.188C201.707 522.129 202.01 523.394 202.132 523.982C202.43 522.582 202.715 521.313 202.986 520.174L204.008 516.17H205.954L206.976 520.174C207.237 521.238 207.517 522.512 207.816 523.996C208.012 523.128 208.315 521.859 208.726 520.188Z" fill="#F6F6F6"/>
<path d="M214.058 517.976H212.322V516.324H214.058V517.976ZM214.072 526.138H212.308V518.914H214.072V526.138Z" fill="#F6F6F6"/>
<path d="M219.456 518.746C220.24 518.746 220.856 518.975 221.304 519.432C221.761 519.88 221.99 520.519 221.99 521.35V526.138H220.226V521.644C220.226 520.729 219.773 520.272 218.868 520.272C218.42 520.272 218.037 520.435 217.72 520.762C217.412 521.079 217.258 521.523 217.258 522.092V526.138H215.494V518.914H217.202V519.95C217.753 519.147 218.504 518.746 219.456 518.746Z" fill="#F6F6F6"/>
<path d="M228.576 519.852V516.17H230.34V526.138H228.632V525.13C228.1 525.914 227.339 526.306 226.35 526.306C225.351 526.306 224.562 525.961 223.984 525.27C223.396 524.579 223.102 523.665 223.102 522.526C223.102 521.369 223.396 520.449 223.984 519.768C224.553 519.087 225.342 518.746 226.35 518.746C227.32 518.746 228.062 519.115 228.576 519.852ZM224.908 522.582C224.908 523.329 225.071 523.893 225.398 524.276C225.724 524.659 226.177 524.85 226.756 524.85C227.334 524.85 227.792 524.649 228.128 524.248C228.454 523.847 228.618 523.273 228.618 522.526C228.618 521.779 228.454 521.205 228.128 520.804C227.801 520.403 227.344 520.202 226.756 520.202C226.186 520.202 225.734 520.412 225.398 520.832C225.071 521.252 224.908 521.835 224.908 522.582Z" fill="#F6F6F6"/>
<path d="M238.791 522.526C238.791 523.665 238.455 524.579 237.783 525.27C237.111 525.961 236.225 526.306 235.123 526.306C234.022 526.306 233.135 525.961 232.463 525.27C231.782 524.589 231.441 523.674 231.441 522.526C231.441 521.378 231.782 520.463 232.463 519.782C233.135 519.091 234.022 518.746 235.123 518.746C236.225 518.746 237.111 519.087 237.783 519.768C238.455 520.449 238.791 521.369 238.791 522.526ZM233.737 524.248C234.073 524.649 234.535 524.85 235.123 524.85C235.711 524.85 236.169 524.649 236.495 524.248C236.831 523.837 236.999 523.263 236.999 522.526C236.999 521.789 236.831 521.219 236.495 520.818C236.169 520.407 235.711 520.202 235.123 520.202C234.535 520.202 234.073 520.403 233.737 520.804C233.411 521.205 233.247 521.779 233.247 522.526C233.247 523.273 233.411 523.847 233.737 524.248Z" fill="#F6F6F6"/>
<path d="M247.635 521.616L248.447 518.914H250.337L247.957 526.138H246.109L245.199 523.17C244.854 521.957 244.648 521.238 244.583 521.014C244.555 521.117 244.354 521.835 243.981 523.17L243.085 526.138H241.237L238.857 518.914H240.747L241.559 521.616C241.764 522.26 242.002 523.095 242.273 524.122C242.534 523.086 242.763 522.246 242.959 521.602L243.757 518.914H245.437L246.235 521.602C246.431 522.246 246.66 523.086 246.921 524.122C247.164 523.198 247.402 522.363 247.635 521.616Z" fill="#F6F6F6"/>
<path d="M32.606 560.312C31.2527 560.312 30.1467 559.841 29.288 558.898C28.4293 557.955 28 556.691 28 555.104C28 553.517 28.4293 552.253 29.288 551.31C30.1467 550.367 31.2527 549.896 32.606 549.896C33.6793 549.896 34.594 550.19 35.35 550.778C36.106 551.357 36.6053 552.206 36.848 553.326H35.658C35.238 551.758 34.2207 550.974 32.606 550.974C31.5887 550.974 30.772 551.338 30.156 552.066C29.54 552.803 29.232 553.816 29.232 555.104C29.232 556.392 29.54 557.4 30.156 558.128C30.772 558.865 31.5887 559.234 32.606 559.234C33.3713 559.234 34.0527 558.996 34.65 558.52C35.238 558.063 35.5973 557.377 35.728 556.462H36.904C36.7733 557.703 36.302 558.651 35.49 559.304C34.6687 559.976 33.7073 560.312 32.606 560.312Z" fill="#F6F6F6"/>
<path d="M41.4984 552.696C42.3011 552.696 42.9264 552.915 43.3744 553.354C43.8224 553.793 44.0464 554.409 44.0464 555.202V560.088H42.9264V555.314C42.9264 554.241 42.3757 553.704 41.2744 553.704C40.7517 553.704 40.2897 553.9 39.8884 554.292C39.4871 554.684 39.2864 555.253 39.2864 556V560.088H38.1664V550.12H39.2864V553.858C39.8371 553.083 40.5744 552.696 41.4984 552.696Z" fill="#F6F6F6"/>
<path d="M51.635 559.178H52.041V560.088C51.8543 560.116 51.649 560.13 51.425 560.13C50.669 560.13 50.263 559.785 50.207 559.094C49.703 559.869 48.919 560.256 47.855 560.256C47.0616 560.256 46.4363 560.074 45.979 559.71C45.531 559.337 45.307 558.814 45.307 558.142C45.307 556.835 46.1983 556.089 47.981 555.902L49.017 555.79C49.773 555.706 50.151 555.375 50.151 554.796C50.151 554.395 50.025 554.105 49.773 553.928C49.5303 553.751 49.115 553.662 48.527 553.662C47.9016 553.662 47.449 553.769 47.169 553.984C46.8983 554.189 46.7443 554.558 46.707 555.09H45.587C45.6803 553.494 46.6603 552.696 48.527 552.696C50.3376 552.696 51.243 553.396 51.243 554.796V558.828C51.243 559.061 51.3736 559.178 51.635 559.178ZM47.911 559.304C48.5083 559.304 49.031 559.122 49.479 558.758C49.927 558.403 50.151 557.895 50.151 557.232V556.378C49.9456 556.537 49.6283 556.639 49.199 556.686L48.149 556.812C47.5423 556.887 47.1083 557.027 46.847 557.232C46.595 557.437 46.469 557.731 46.469 558.114C46.469 558.487 46.5903 558.781 46.833 558.996C47.0756 559.201 47.435 559.304 47.911 559.304Z" fill="#F6F6F6"/>
<path d="M56.3597 552.696C57.1624 552.696 57.7877 552.915 58.2357 553.354C58.6837 553.793 58.9077 554.409 58.9077 555.202V560.088H57.7877V555.314C57.7877 554.241 57.2371 553.704 56.1357 553.704C55.6131 553.704 55.1511 553.9 54.7497 554.292C54.3484 554.684 54.1477 555.253 54.1477 556V560.088H53.0277V552.864H54.0917V553.942C54.6424 553.111 55.3984 552.696 56.3597 552.696Z" fill="#F6F6F6"/>
<path d="M66.0763 553.914V552.864H67.1403V559.808C67.1403 560.797 66.8509 561.577 66.2723 562.146C65.6936 562.715 64.8629 563 63.7803 563C62.8843 563 62.1656 562.795 61.6243 562.384C61.0829 561.973 60.7749 561.404 60.7003 560.676H61.8203C61.9603 561.591 62.6136 562.048 63.7803 562.048C65.2736 562.048 66.0203 561.301 66.0203 559.808V559.108C65.4509 559.873 64.6436 560.256 63.5983 560.256C62.5809 560.256 61.7689 559.911 61.1623 559.22C60.5463 558.529 60.2383 557.615 60.2383 556.476C60.2383 555.319 60.5463 554.399 61.1623 553.718C61.7596 553.037 62.5716 552.696 63.5983 552.696C64.6716 552.696 65.4976 553.102 66.0763 553.914ZM63.7383 559.248C64.4476 559.248 65.0123 559.001 65.4323 558.506C65.8523 558.011 66.0623 557.335 66.0623 556.476C66.0623 555.617 65.8523 554.941 65.4323 554.446C65.0123 553.951 64.4476 553.704 63.7383 553.704C63.0383 553.704 62.4736 553.956 62.0443 554.46C61.6243 554.964 61.4143 555.636 61.4143 556.476C61.4143 557.316 61.6243 557.988 62.0443 558.492C62.4736 558.996 63.0383 559.248 63.7383 559.248Z" fill="#F6F6F6"/>
<path d="M75.1188 556.476V556.868H69.6307C69.6867 557.652 69.9061 558.245 70.2887 558.646C70.6714 559.038 71.1941 559.234 71.8568 559.234C72.8554 559.234 73.4947 558.786 73.7747 557.89H74.9367C74.7407 558.618 74.3767 559.197 73.8447 559.626C73.3127 560.046 72.6408 560.256 71.8288 560.256C70.8301 560.256 70.0227 559.915 69.4067 559.234C68.7814 558.553 68.4688 557.633 68.4688 556.476C68.4688 555.337 68.7767 554.423 69.3927 553.732C69.9994 553.041 70.8021 552.696 71.8008 552.696C72.8368 552.696 73.6488 553.055 74.2368 553.774C74.8248 554.493 75.1188 555.393 75.1188 556.476ZM71.8008 553.718C71.2128 553.718 70.7321 553.905 70.3587 554.278C69.9854 554.642 69.7521 555.169 69.6587 555.86H73.9147C73.8587 555.225 73.6441 554.712 73.2708 554.32C72.8974 553.919 72.4074 553.718 71.8008 553.718Z" fill="#F6F6F6"/>
<path d="M78.9273 560.256C76.9953 560.256 75.9733 559.435 75.8613 557.792H76.9953C77.0606 558.333 77.238 558.721 77.5273 558.954C77.826 559.178 78.2926 559.29 78.9273 559.29C80.0846 559.29 80.6633 558.917 80.6633 558.17C80.6633 557.843 80.542 557.596 80.2993 557.428C80.066 557.26 79.6366 557.115 79.0113 556.994L78.3393 556.868C76.8366 556.588 76.0853 555.879 76.0853 554.74C76.0853 554.115 76.3186 553.62 76.7853 553.256C77.2613 552.883 77.9053 552.696 78.7173 552.696C80.6306 552.696 81.6106 553.494 81.6573 555.09H80.5373C80.5093 554.567 80.3506 554.199 80.0613 553.984C79.772 553.769 79.324 553.662 78.7173 553.662C78.232 553.662 77.8586 553.755 77.5973 553.942C77.336 554.129 77.2053 554.39 77.2053 554.726C77.2053 555.043 77.3173 555.281 77.5413 555.44C77.7653 555.599 78.1386 555.734 78.6613 555.846L79.3053 555.972C80.192 556.149 80.8266 556.401 81.2093 556.728C81.6013 557.055 81.7973 557.512 81.7973 558.1C81.7973 558.781 81.5406 559.313 81.0273 559.696C80.5233 560.069 79.8233 560.256 78.9273 560.256Z" fill="#F6F6F6"/>
<path d="M89.3945 551.772H88.2045V550.4H89.3945V551.772ZM89.3665 560.088H88.2465V552.864H89.3665V560.088Z" fill="#F6F6F6"/>
<path d="M94.3812 552.696C95.1839 552.696 95.8092 552.915 96.2572 553.354C96.7052 553.793 96.9292 554.409 96.9292 555.202V560.088H95.8092V555.314C95.8092 554.241 95.2586 553.704 94.1572 553.704C93.6346 553.704 93.1726 553.9 92.7712 554.292C92.3699 554.684 92.1692 555.253 92.1692 556V560.088H91.0492V552.864H92.1132V553.942C92.6639 553.111 93.4199 552.696 94.3812 552.696Z" fill="#F6F6F6"/>
<path d="M107.576 556.476V556.868H102.088C102.144 557.652 102.363 558.245 102.746 558.646C103.128 559.038 103.651 559.234 104.314 559.234C105.312 559.234 105.952 558.786 106.232 557.89H107.394C107.198 558.618 106.834 559.197 106.302 559.626C105.77 560.046 105.098 560.256 104.286 560.256C103.287 560.256 102.48 559.915 101.864 559.234C101.238 558.553 100.926 557.633 100.926 556.476C100.926 555.337 101.234 554.423 101.85 553.732C102.456 553.041 103.259 552.696 104.258 552.696C105.294 552.696 106.106 553.055 106.694 553.774C107.282 554.493 107.576 555.393 107.576 556.476ZM104.258 553.718C103.67 553.718 103.189 553.905 102.816 554.278C102.442 554.642 102.209 555.169 102.116 555.86H106.372C106.316 555.225 106.101 554.712 105.728 554.32C105.354 553.919 104.864 553.718 104.258 553.718Z" fill="#F6F6F6"/>
<path d="M114.238 552.864L111.62 556.392L114.378 560.088H113.062L112.67 559.542C111.989 558.571 111.424 557.787 110.976 557.19C110.304 558.095 109.73 558.884 109.254 559.556L108.876 560.088H107.574L110.332 556.392L107.714 552.864H109.03L109.59 553.634C110.215 554.474 110.682 555.127 110.99 555.594C111.699 554.595 112.166 553.942 112.39 553.634L112.936 552.864H114.238Z" fill="#F6F6F6"/>
<path d="M118.416 552.696C119.219 552.696 119.844 552.915 120.292 553.354C120.74 553.793 120.964 554.409 120.964 555.202V560.088H119.844V555.314C119.844 554.241 119.294 553.704 118.192 553.704C117.67 553.704 117.208 553.9 116.806 554.292C116.405 554.684 116.204 555.253 116.204 556V560.088H115.084V550.12H116.204V553.858C116.755 553.083 117.492 552.696 118.416 552.696Z" fill="#F6F6F6"/>
<path d="M128.553 559.178H128.959V560.088C128.772 560.116 128.567 560.13 128.343 560.13C127.587 560.13 127.181 559.785 127.125 559.094C126.621 559.869 125.837 560.256 124.773 560.256C123.98 560.256 123.354 560.074 122.897 559.71C122.449 559.337 122.225 558.814 122.225 558.142C122.225 556.835 123.116 556.089 124.899 555.902L125.935 555.79C126.691 555.706 127.069 555.375 127.069 554.796C127.069 554.395 126.943 554.105 126.691 553.928C126.448 553.751 126.033 553.662 125.445 553.662C124.82 553.662 124.367 553.769 124.087 553.984C123.816 554.189 123.662 554.558 123.625 555.09H122.505C122.598 553.494 123.578 552.696 125.445 552.696C127.256 552.696 128.161 553.396 128.161 554.796V558.828C128.161 559.061 128.292 559.178 128.553 559.178ZM124.829 559.304C125.426 559.304 125.949 559.122 126.397 558.758C126.845 558.403 127.069 557.895 127.069 557.232V556.378C126.864 556.537 126.546 556.639 126.117 556.686L125.067 556.812C124.46 556.887 124.026 557.027 123.765 557.232C123.513 557.437 123.387 557.731 123.387 558.114C123.387 558.487 123.508 558.781 123.751 558.996C123.994 559.201 124.353 559.304 124.829 559.304Z" fill="#F6F6F6"/>
<path d="M130.997 560.088H129.877V550.12H130.997V560.088Z" fill="#F6F6F6"/>
<path d="M138.98 556.476V556.868H133.492C133.548 557.652 133.767 558.245 134.15 558.646C134.533 559.038 135.055 559.234 135.718 559.234C136.717 559.234 137.356 558.786 137.636 557.89H138.798C138.602 558.618 138.238 559.197 137.706 559.626C137.174 560.046 136.502 560.256 135.69 560.256C134.691 560.256 133.884 559.915 133.268 559.234C132.643 558.553 132.33 557.633 132.33 556.476C132.33 555.337 132.638 554.423 133.254 553.732C133.861 553.041 134.663 552.696 135.662 552.696C136.698 552.696 137.51 553.055 138.098 553.774C138.686 554.493 138.98 555.393 138.98 556.476ZM135.662 553.718C135.074 553.718 134.593 553.905 134.22 554.278C133.847 554.642 133.613 555.169 133.52 555.86H137.776C137.72 555.225 137.505 554.712 137.132 554.32C136.759 553.919 136.269 553.718 135.662 553.718Z" fill="#F6F6F6"/>
<path d="M146.531 555.216C146.13 555.757 145.542 556.028 144.767 556.028C143.992 556.028 143.409 555.757 143.017 555.216C142.616 554.693 142.415 553.961 142.415 553.018C142.415 552.057 142.616 551.315 143.017 550.792C143.418 550.26 144.002 549.994 144.767 549.994C145.532 549.994 146.116 550.26 146.517 550.792C146.918 551.315 147.119 552.057 147.119 553.018C147.119 553.951 146.923 554.684 146.531 555.216ZM146.237 560.088H145.159L150.479 550.12H151.557L146.237 560.088ZM143.493 553.018C143.493 554.437 143.918 555.146 144.767 555.146C145.616 555.146 146.041 554.437 146.041 553.018C146.041 551.59 145.616 550.876 144.767 550.876C143.918 550.876 143.493 551.59 143.493 553.018ZM153.713 559.402C153.312 559.943 152.724 560.214 151.949 560.214C151.174 560.214 150.591 559.943 150.199 559.402C149.798 558.879 149.597 558.147 149.597 557.204C149.597 556.243 149.798 555.501 150.199 554.978C150.6 554.446 151.184 554.18 151.949 554.18C152.714 554.18 153.298 554.446 153.699 554.978C154.1 555.501 154.301 556.243 154.301 557.204C154.301 558.137 154.105 558.87 153.713 559.402ZM150.675 557.204C150.675 558.623 151.1 559.332 151.949 559.332C152.798 559.332 153.223 558.623 153.223 557.204C153.223 555.776 152.798 555.062 151.949 555.062C151.1 555.062 150.675 555.776 150.675 557.204Z" fill="#F6F6F6"/>
<path d="M159.672 560.312C158.319 560.312 157.213 559.841 156.354 558.898C155.496 557.955 155.066 556.691 155.066 555.104C155.066 553.517 155.496 552.253 156.354 551.31C157.213 550.367 158.319 549.896 159.672 549.896C160.746 549.896 161.66 550.19 162.416 550.778C163.172 551.357 163.672 552.206 163.914 553.326H162.724C162.304 551.758 161.287 550.974 159.672 550.974C158.655 550.974 157.838 551.338 157.222 552.066C156.606 552.803 156.298 553.816 156.298 555.104C156.298 556.392 156.606 557.4 157.222 558.128C157.838 558.865 158.655 559.234 159.672 559.234C160.438 559.234 161.119 558.996 161.716 558.52C162.304 558.063 162.664 557.377 162.794 556.462H163.97C163.84 557.703 163.368 558.651 162.556 559.304C161.735 559.976 160.774 560.312 159.672 560.312Z" fill="#F6F6F6"/>
<path d="M173.129 558.87C172.251 559.831 171.094 560.312 169.657 560.312C168.219 560.312 167.067 559.831 166.199 558.87C165.321 557.927 164.883 556.672 164.883 555.104C164.883 553.545 165.321 552.285 166.199 551.324C167.067 550.372 168.219 549.896 169.657 549.896C171.094 549.896 172.251 550.372 173.129 551.324C173.997 552.295 174.431 553.555 174.431 555.104C174.431 556.663 173.997 557.918 173.129 558.87ZM167.081 558.114C167.725 558.861 168.583 559.234 169.657 559.234C170.73 559.234 171.589 558.861 172.233 558.114C172.877 557.377 173.199 556.373 173.199 555.104C173.199 553.835 172.877 552.831 172.233 552.094C171.589 551.347 170.73 550.974 169.657 550.974C168.583 550.974 167.725 551.347 167.081 552.094C166.437 552.831 166.115 553.835 166.115 555.104C166.115 556.373 166.437 557.377 167.081 558.114Z" fill="#F6F6F6"/>
<path d="M176.18 561.95H179.372V562.832H175.06L175.074 562.44C175.102 561.843 175.251 561.343 175.522 560.942C175.802 560.55 176.264 560.223 176.908 559.962L177.3 559.808C177.963 559.537 178.294 559.164 178.294 558.688C178.294 558.1 177.935 557.806 177.216 557.806C176.861 557.806 176.591 557.904 176.404 558.1C176.227 558.287 176.138 558.539 176.138 558.856H175.13C175.139 558.268 175.321 557.801 175.676 557.456C176.04 557.101 176.563 556.924 177.244 556.924C177.897 556.924 178.406 557.087 178.77 557.414C179.134 557.741 179.316 558.156 179.316 558.66C179.316 559.509 178.784 560.163 177.72 560.62L177.23 560.83C176.894 560.97 176.647 561.124 176.488 561.292C176.329 561.46 176.227 561.679 176.18 561.95Z" fill="#F6F6F6"/>
<path d="M188.52 553.9V550.12H189.64V560.088H188.576V558.968C187.998 559.827 187.172 560.256 186.098 560.256C185.081 560.256 184.269 559.911 183.662 559.22C183.046 558.529 182.738 557.615 182.738 556.476C182.738 555.319 183.046 554.399 183.662 553.718C184.26 553.037 185.072 552.696 186.098 552.696C187.134 552.696 187.942 553.097 188.52 553.9ZM183.914 556.532C183.914 557.391 184.124 558.058 184.544 558.534C184.964 559.01 185.529 559.248 186.238 559.248C186.948 559.248 187.512 559.001 187.932 558.506C188.352 558.021 188.562 557.344 188.562 556.476C188.562 555.617 188.352 554.941 187.932 554.446C187.512 553.951 186.948 553.704 186.238 553.704C185.538 553.704 184.974 553.961 184.544 554.474C184.124 554.978 183.914 555.664 183.914 556.532Z" fill="#F6F6F6"/>
<path d="M196.079 556.952V552.864H197.199V560.088H196.135V559.01C195.584 559.841 194.828 560.256 193.867 560.256C193.064 560.256 192.439 560.037 191.991 559.598C191.543 559.159 191.319 558.543 191.319 557.75V552.864H192.439V557.638C192.439 558.711 192.989 559.248 194.091 559.248C194.613 559.248 195.075 559.052 195.477 558.66C195.878 558.268 196.079 557.699 196.079 556.952Z" fill="#F6F6F6"/>
<path d="M202.267 552.752C202.454 552.752 202.58 552.757 202.645 552.766V553.844H202.365C201.619 553.844 201.035 554.031 200.615 554.404C200.205 554.768 199.999 555.291 199.999 555.972V560.088H198.879V552.864H199.943V554.138C200.429 553.214 201.203 552.752 202.267 552.752Z" fill="#F6F6F6"/>
<path d="M204.84 551.772H203.65V550.4H204.84V551.772ZM204.812 560.088H203.692V552.864H204.812V560.088Z" fill="#F6F6F6"/>
<path d="M209.827 552.696C210.629 552.696 211.255 552.915 211.703 553.354C212.151 553.793 212.375 554.409 212.375 555.202V560.088H211.255V555.314C211.255 554.241 210.704 553.704 209.603 553.704C209.08 553.704 208.618 553.9 208.217 554.292C207.815 554.684 207.615 555.253 207.615 556V560.088H206.495V552.864H207.559V553.942C208.109 553.111 208.865 552.696 209.827 552.696Z" fill="#F6F6F6"/>
<path d="M219.543 553.914V552.864H220.607V559.808C220.607 560.797 220.318 561.577 219.739 562.146C219.16 562.715 218.33 563 217.247 563C216.351 563 215.632 562.795 215.091 562.384C214.55 561.973 214.242 561.404 214.167 560.676H215.287C215.427 561.591 216.08 562.048 217.247 562.048C218.74 562.048 219.487 561.301 219.487 559.808V559.108C218.918 559.873 218.11 560.256 217.065 560.256C216.048 560.256 215.236 559.911 214.629 559.22C214.013 558.529 213.705 557.615 213.705 556.476C213.705 555.319 214.013 554.399 214.629 553.718C215.226 553.037 216.038 552.696 217.065 552.696C218.138 552.696 218.964 553.102 219.543 553.914ZM217.205 559.248C217.914 559.248 218.479 559.001 218.899 558.506C219.319 558.011 219.529 557.335 219.529 556.476C219.529 555.617 219.319 554.941 218.899 554.446C218.479 553.951 217.914 553.704 217.205 553.704C216.505 553.704 215.94 553.956 215.511 554.46C215.091 554.964 214.881 555.636 214.881 556.476C214.881 557.316 215.091 557.988 215.511 558.492C215.94 558.996 216.505 559.248 217.205 559.248Z" fill="#F6F6F6"/>
<path d="M232.554 552.696C233.338 552.696 233.944 552.925 234.374 553.382C234.812 553.83 235.032 554.432 235.032 555.188V560.088H233.912V555.3C233.912 554.236 233.408 553.704 232.4 553.704C231.868 553.704 231.424 553.919 231.07 554.348C230.724 554.768 230.552 555.365 230.552 556.14V560.088H229.432V555.3C229.432 554.236 228.928 553.704 227.92 553.704C227.397 553.704 226.958 553.919 226.604 554.348C226.249 554.768 226.072 555.365 226.072 556.14V560.088H224.952V552.864H226.016V553.928C226.492 553.107 227.187 552.696 228.102 552.696C229.184 552.696 229.926 553.149 230.328 554.054C230.832 553.149 231.574 552.696 232.554 552.696Z" fill="#F6F6F6"/>
<path d="M243.009 556.476V556.868H237.521C237.577 557.652 237.797 558.245 238.179 558.646C238.562 559.038 239.085 559.234 239.747 559.234C240.746 559.234 241.385 558.786 241.665 557.89H242.827C242.631 558.618 242.267 559.197 241.735 559.626C241.203 560.046 240.531 560.256 239.719 560.256C238.721 560.256 237.913 559.915 237.297 559.234C236.672 558.553 236.359 557.633 236.359 556.476C236.359 555.337 236.667 554.423 237.283 553.732C237.89 553.041 238.693 552.696 239.691 552.696C240.727 552.696 241.539 553.055 242.127 553.774C242.715 554.493 243.009 555.393 243.009 556.476ZM239.691 553.718C239.103 553.718 238.623 553.905 238.249 554.278C237.876 554.642 237.643 555.169 237.549 555.86H241.805C241.749 555.225 241.535 554.712 241.161 554.32C240.788 553.919 240.298 553.718 239.691 553.718Z" fill="#F6F6F6"/>
<path d="M247.67 552.696C248.473 552.696 249.098 552.915 249.546 553.354C249.994 553.793 250.218 554.409 250.218 555.202V560.088H249.098V555.314C249.098 554.241 248.548 553.704 247.446 553.704C246.924 553.704 246.462 553.9 246.06 554.292C245.659 554.684 245.458 555.253 245.458 556V560.088H244.338V552.864H245.402V553.942C245.953 553.111 246.709 552.696 247.67 552.696Z" fill="#F6F6F6"/>
<path d="M257.569 559.22C256.906 559.911 256.066 560.256 255.049 560.256C254.031 560.256 253.191 559.911 252.529 559.22C251.875 558.539 251.549 557.624 251.549 556.476C251.549 555.328 251.875 554.413 252.529 553.732C253.191 553.041 254.031 552.696 255.049 552.696C256.066 552.696 256.906 553.041 257.569 553.732C258.222 554.413 258.549 555.328 258.549 556.476C258.549 557.624 258.222 558.539 257.569 559.22ZM253.355 558.506C253.775 559.001 254.339 559.248 255.049 559.248C255.758 559.248 256.323 559.001 256.743 558.506C257.163 558.021 257.373 557.344 257.373 556.476C257.373 555.599 257.163 554.917 256.743 554.432C256.323 553.947 255.758 553.704 255.049 553.704C254.339 553.704 253.775 553.947 253.355 554.432C252.935 554.917 252.725 555.599 252.725 556.476C252.725 557.344 252.935 558.021 253.355 558.506Z" fill="#F6F6F6"/>
<path d="M263.425 552.696C264.443 552.696 265.259 553.037 265.875 553.718C266.482 554.409 266.785 555.328 266.785 556.476C266.785 557.615 266.482 558.529 265.875 559.22C265.259 559.911 264.443 560.256 263.425 560.256C262.389 560.256 261.582 559.855 261.003 559.052V562.832H259.883V552.864H260.947V553.984C261.526 553.125 262.352 552.696 263.425 552.696ZM263.285 559.248C263.985 559.248 264.545 558.996 264.965 558.492C265.395 557.979 265.609 557.288 265.609 556.42C265.609 555.571 265.399 554.908 264.979 554.432C264.569 553.947 264.004 553.704 263.285 553.704C262.576 553.704 262.011 553.947 261.591 554.432C261.171 554.917 260.961 555.599 260.961 556.476C260.961 557.344 261.171 558.021 261.591 558.506C262.011 559.001 262.576 559.248 263.285 559.248Z" fill="#F6F6F6"/>
<path d="M273.885 559.178H274.291V560.088C274.104 560.116 273.899 560.13 273.675 560.13C272.919 560.13 272.513 559.785 272.457 559.094C271.953 559.869 271.169 560.256 270.105 560.256C269.312 560.256 268.686 560.074 268.229 559.71C267.781 559.337 267.557 558.814 267.557 558.142C267.557 556.835 268.448 556.089 270.231 555.902L271.267 555.79C272.023 555.706 272.401 555.375 272.401 554.796C272.401 554.395 272.275 554.105 272.023 553.928C271.78 553.751 271.365 553.662 270.777 553.662C270.152 553.662 269.699 553.769 269.419 553.984C269.148 554.189 268.994 554.558 268.957 555.09H267.837C267.93 553.494 268.91 552.696 270.777 552.696C272.588 552.696 273.493 553.396 273.493 554.796V558.828C273.493 559.061 273.624 559.178 273.885 559.178ZM270.161 559.304C270.758 559.304 271.281 559.122 271.729 558.758C272.177 558.403 272.401 557.895 272.401 557.232V556.378C272.196 556.537 271.878 556.639 271.449 556.686L270.399 556.812C269.792 556.887 269.358 557.027 269.097 557.232C268.845 557.437 268.719 557.731 268.719 558.114C268.719 558.487 268.84 558.781 269.083 558.996C269.326 559.201 269.685 559.304 270.161 559.304Z" fill="#F6F6F6"/>
<path d="M280.038 556.952V552.864H281.158V560.088H280.094V559.01C279.543 559.841 278.787 560.256 277.826 560.256C277.023 560.256 276.398 560.037 275.95 559.598C275.502 559.159 275.278 558.543 275.278 557.75V552.864H276.398V557.638C276.398 558.711 276.948 559.248 278.05 559.248C278.572 559.248 279.034 559.052 279.436 558.66C279.837 558.268 280.038 557.699 280.038 556.952Z" fill="#F6F6F6"/>
<path d="M285.386 560.256C283.454 560.256 282.432 559.435 282.32 557.792H283.454C283.52 558.333 283.697 558.721 283.986 558.954C284.285 559.178 284.752 559.29 285.386 559.29C286.544 559.29 287.122 558.917 287.122 558.17C287.122 557.843 287.001 557.596 286.758 557.428C286.525 557.26 286.096 557.115 285.47 556.994L284.798 556.868C283.296 556.588 282.544 555.879 282.544 554.74C282.544 554.115 282.778 553.62 283.244 553.256C283.72 552.883 284.364 552.696 285.176 552.696C287.09 552.696 288.07 553.494 288.116 555.09H286.996C286.968 554.567 286.81 554.199 286.52 553.984C286.231 553.769 285.783 553.662 285.176 553.662C284.691 553.662 284.318 553.755 284.056 553.942C283.795 554.129 283.664 554.39 283.664 554.726C283.664 555.043 283.776 555.281 284 555.44C284.224 555.599 284.598 555.734 285.12 555.846L285.764 555.972C286.651 556.149 287.286 556.401 287.668 556.728C288.06 557.055 288.256 557.512 288.256 558.1C288.256 558.781 288 559.313 287.486 559.696C286.982 560.069 286.282 560.256 285.386 560.256Z" fill="#F6F6F6"/>
<path d="M295.673 556.476V556.868H290.185C290.241 557.652 290.461 558.245 290.843 558.646C291.226 559.038 291.749 559.234 292.411 559.234C293.41 559.234 294.049 558.786 294.329 557.89H295.491C295.295 558.618 294.931 559.197 294.399 559.626C293.867 560.046 293.195 560.256 292.383 560.256C291.385 560.256 290.577 559.915 289.961 559.234C289.336 558.553 289.023 557.633 289.023 556.476C289.023 555.337 289.331 554.423 289.947 553.732C290.554 553.041 291.357 552.696 292.355 552.696C293.391 552.696 294.203 553.055 294.791 553.774C295.379 554.493 295.673 555.393 295.673 556.476ZM292.355 553.718C291.767 553.718 291.287 553.905 290.913 554.278C290.54 554.642 290.307 555.169 290.213 555.86H294.469C294.413 555.225 294.199 554.712 293.825 554.32C293.452 553.919 292.962 553.718 292.355 553.718Z" fill="#F6F6F6"/>
</g>
<defs>
<filter id="filter0_b_11922_32011" x="-44.5" y="-44.5" width="499" height="678" filterUnits="userSpaceOnUse" color-interpolation-filters="sRGB">
<feFlood flood-opacity="0" result="BackgroundImageFix"/>
<feGaussianBlur in="BackgroundImageFix" stdDeviation="22.25"/>
<feComposite in2="SourceAlpha" operator="in" result="effect1_backgroundBlur_11922_32011"/>
<feBlend mode="normal" in="SourceGraphic" in2="effect1_backgroundBlur_11922_32011" result="shape"/>
</filter>
</defs>
</svg>
